<mxfile host="65bd71144e">
    <diagram id="I6mK61nRayx7uVgw5S4L" name="Page-1">
        <mxGraphModel dx="3350" dy="1170" grid="1" gridSize="10" guides="1" tooltips="1" connect="1" arrows="1" fold="1" page="1" pageScale="1" pageWidth="1100" pageHeight="850" math="0" shadow="0">
            <root>
                <mxCell id="0"/>
                <mxCell id="1" parent="0"/>
                <mxCell id="2" value="&lt;pre style=&quot;border: 1px solid var(--card-border); font-style: normal; font-variant-ligatures: normal; font-variant-caps: normal; font-weight: 400; letter-spacing: normal; orphans: 2; text-indent: 0px; text-transform: none; widows: 2; -webkit-text-stroke-width: 0px; background: var(--card-background) !important; text-decoration-thickness: initial; text-decoration-style: initial; text-decoration-color: initial; box-sizing: border-box; line-height: 1.7em; padding: 10px; border-radius: 4px; word-spacing: 4px; color: rgb(165, 165, 165); text-align: start; font-family: urw-din !important; font-size: 17px !important;&quot;&gt;&lt;span style=&quot;border-color: rgb(0, 0, 0); box-sizing: border-box; line-height: 1.7em; font-size: 18px; font-family: urw-din !important;&quot;&gt;arr[ ] = {2, 7, 9, 5, 8, 7, 4} &lt;br style=&quot;border-color: rgb(0, 0, 0);&quot;&gt;&lt;/span&gt;&lt;/pre&gt;" style="text;whiteSpace=wrap;html=1;movable=0;resizable=0;rotatable=0;deletable=0;editable=0;connectable=0;" vertex="1" parent="1">
                    <mxGeometry width="250" height="90" as="geometry"/>
                </mxCell>
                <mxCell id="3" value="&lt;pre style=&quot;border: 1px solid var(--card-border); font-style: normal; font-variant-ligatures: normal; font-variant-caps: normal; font-weight: 400; letter-spacing: normal; orphans: 2; text-indent: 0px; text-transform: none; widows: 2; -webkit-text-stroke-width: 0px; background: var(--card-background) !important; text-decoration-thickness: initial; text-decoration-style: initial; text-decoration-color: initial; box-sizing: border-box; line-height: 1.7em; padding: 10px; border-radius: 4px; word-spacing: 4px; color: rgb(165, 165, 165); text-align: start; font-family: urw-din !important; font-size: 17px !important;&quot;&gt;&lt;span style=&quot;border-color: rgb(0, 0, 0); box-sizing: border-box; line-height: 1.7em; font-size: 18px; font-family: urw-din !important;&quot;&gt;arr[ ] = {2, 7, 9, 5, 8, 7, 4} &lt;br style=&quot;border-color: rgb(0, 0, 0);&quot;&gt;&lt;/span&gt;&lt;/pre&gt;" style="text;whiteSpace=wrap;html=1;" vertex="1" parent="1">
                    <mxGeometry x="260" width="250" height="90" as="geometry"/>
                </mxCell>
                <mxCell id="4" value="&lt;pre style=&quot;border: 1px solid var(--card-border); font-style: normal; font-variant-ligatures: normal; font-variant-caps: normal; font-weight: 400; letter-spacing: normal; orphans: 2; text-indent: 0px; text-transform: none; widows: 2; -webkit-text-stroke-width: 0px; background: var(--card-background) !important; text-decoration-thickness: initial; text-decoration-style: initial; text-decoration-color: initial; box-sizing: border-box; line-height: 1.7em; padding: 10px; border-radius: 4px; word-spacing: 4px; color: rgb(165, 165, 165); text-align: start; font-family: urw-din !important; font-size: 17px !important;&quot;&gt;&lt;span style=&quot;border-color: rgb(0, 0, 0); box-sizing: border-box; line-height: 1.7em; font-size: 18px; font-family: urw-din !important;&quot;&gt;arr[ ] = {2, 7, 9, 5, 8, 7, 4} &lt;br style=&quot;border-color: rgb(0, 0, 0);&quot;&gt;&lt;/span&gt;&lt;/pre&gt;" style="text;whiteSpace=wrap;html=1;" vertex="1" parent="1">
                    <mxGeometry x="520" width="250" height="90" as="geometry"/>
                </mxCell>
                <mxCell id="5" value="&lt;pre style=&quot;border: 1px solid var(--card-border); font-style: normal; font-variant-ligatures: normal; font-variant-caps: normal; font-weight: 400; letter-spacing: normal; orphans: 2; text-indent: 0px; text-transform: none; widows: 2; -webkit-text-stroke-width: 0px; background: var(--card-background) !important; text-decoration-thickness: initial; text-decoration-style: initial; text-decoration-color: initial; box-sizing: border-box; line-height: 1.7em; padding: 10px; border-radius: 4px; word-spacing: 4px; color: rgb(165, 165, 165); text-align: start; font-family: urw-din !important; font-size: 17px !important;&quot;&gt;&lt;span style=&quot;border-color: rgb(0, 0, 0); box-sizing: border-box; line-height: 1.7em; font-size: 18px; font-family: urw-din !important;&quot;&gt;arr[ ] = {2, 7, 9, 5, 8, 7, 4} &lt;br style=&quot;border-color: rgb(0, 0, 0);&quot;&gt;&lt;/span&gt;&lt;/pre&gt;" style="text;whiteSpace=wrap;html=1;" vertex="1" parent="1">
                    <mxGeometry x="790" width="250" height="90" as="geometry"/>
                </mxCell>
                <mxCell id="24" value="" style="shape=stencil(lZ3J0iM3koSfRldaYgfOPTPvITNVt2Tdo5KV1LO8/QCjTrLonvxA3rRE8M9EAoFYPDx+SH/5/ecff/vyQzx+/+Pb179/+e9ffvrj5x/Sv/0Q4y+//vzl2y9/zH/6If37D+kvf/367cvfvn39568//fnvv/24JNc//efX/1q/8D9/6oV0q31pxeN///wv5Zba//+H//hT/h+//PosH4vIlwHy8daryDeWL03kR0H5GJ7k6y1kkA+3HkU+0e+HW04iXzrKH1nkewD541af16edP/BKPg6RT8dr+XEb+vMFPu+41SziHZ5mnHvlFO+3UEk8RBHP8DD91oeI01J23cnzz8GXuv/thzh92H6Lzws5v8SBT3OY/L920qV803My5TsclKb7Zu68BJ+q3XJW+X+dhBfy8flbzZOWUP44VJ6+Vr215+VflgXWfx67qvIN3reeq3GXz+cXfCEfgsrT+hTdnGEaTvhe5Vabyg9436LbM8wVAENVztW7y7fzjV7Iy1mc8hWeJ9/Gsx0MHQ1PvrWi8gPli6znQOOQdT/HeR7hfOVbCipPljDfwvPzxIDrmfW8T/kG8uk2ntc/RlzPdOuHytN62r0+/0uG/Zn0fD3e6IW83ItTvsL+TOfb3eXLeZO9kA9N5Qecx3Q7nvfbshiwH6Lu52nB6O6K6jdM+QbvG8+vf5fv+L7xVk2+4/MUkefzEk/rdMqn4xZg/0S976Y8v6/YkxTOE3rtyJzW7y4fzxP3Qr4nlR+wPkHtbUrnjfNCvsjzz/0M+23etrI+02KTY3iL8vwV98P0I+V7tfNEXMoftyHv29GRPNTfmPID7NX8+iI/8H40vzYfeF8f6vfn+QXh/B6nNbvLRzzvU/75vOSE3+tQ/yHn84u/kJf7N0/7hu8r+yHX24HfNx4q3/F9xX7mhv7tlH+2n7mjv3ecYdZdfqA/fCXfPvn9cpwn9E35aX/AXtn7loj3o61nSZv9Kf5zmf4kPk+U36+nRX1vf5aG8cXc//I8fXceRX5gIH7o/VXDxv7I/VjjZv+35/Ne02a/iX2b8uQvTfspcXvG+y6cf/0uX24F77vj2T7Uen7xF/KyP2tD/9bulynP9534w5WD8Xmanu1PHXgfzfvU5Dvej/VZvrF/Pr1rkQ9or4L6zy2eK/xKfqj8wPUXf6axvxE1XmgZ7UnU/dB4v0W1P62eX+SVfyjrM+0J+p9J3rdj/Bs1nm3j3IGv/Nvn3+8H3qdR90MPO3/++bx3tj/z6w+VH/A8Se+jzvkKi496Pj38V/HX837o5fzir+LBoPKU2kvq7/V6WoBX8eyh8pS/mtHl8/7sDf3hrPt/yleMxyVPOuX5eSSf0Dvat6yZ0ilP8U629ennCr/K58j6czqz6H065Sker5rHHwe+7/yaTeVpPzeNT0fARHtX/2rKD04Oy+9H9G+H2qsxTyjY2/tt9Z083keHHuCpQAZiZf6fd9DgDOVUGEUVCikE3UODc5pTQYzuKJgEmgqSxZoKlMVaSeSgCris8YwSvlOgvEhIp9m/K1S+6NMZ53+nQJ50yOrKTYVGL53Pm/o7Bcr9TgW5bEbjrVHUu58KFC1NhW4KdJxDVf9yKmBhrtqydv4OTW+EqYClubuD8p0CpcinguT8pgLFoKFf/AW6RMI4ffS7wjjzkq8UJE0yFSK5Rce5Jt8p0CqtQMIeCROFQUuGU4GO6HKlDlWo5Kols3xTgXzHrMnmqUDJ9VXdGKYAX3oll8NHCvdqzLsK7eI7bBTqZwrd7NJWodiH2yioud8oDM1S7BWkLLhRSIf5MVuFD//C9Fs++g5TYXz00ilq7WunkM5Q6H2FDx/pXsx5V6Gc0ff7Cm5mUOHTE5fah+chNc1B7xT6hbnfKOTPvnQ3n2+jMAzWwAr50ETWXuGzVcrBPLKtQvtolXK8uh9IIZ2x/vsK9bNHsvhzr6ABx0bBEAI7haol0r2C39OoYKCRvYK7DqjQtYy5U7jyyDYKGnCwwqpLfHSASvjwHUrUWuNOIWkyY6dg2YydwqfWuzSFiu0UuhZ8Nwr1+PAGqlZS3imkD79DvZd83lWolkTYKLQP7VLtFlqyQjvOtNO7CuFDj2wl4j/7C1Fz7TuFpGCAnULWatxSgBB/KjR7JEq/tXKxSpS/mgoKbxyY0G9VM9Ar8KOX9oidQ8vWNCe7glfKCV7tVkrCtX6xSge9g6cFGXbWDMK6cgL0HYZ5ZP2M4a8TlX4/dKzc9GD3dMcPNxWKpSkoC7dKHV0VqFgyFaQ6NzpWI3tSOOVKFxFcNtlfaAgU7/niL9CJ69m2d2P4cbHtzVm4bjn4wWDuXi1BW0+H6JWCesaMCu3NLsWKMNtVJZHzwDjV3i31WPg7dEUqbXLGfViaImPqcRyKRZ4KlUDyh+X5OBU/FYYn++GIjmDhAJcTpoJ6ZOnMwL5SULvEBev5vwVRNP8Lfbj5v7OVXOh+WL+XVIHOw/zfuvkCgpKHmxlGAUwF9b0P/nCGo12bhV46WaF4YB1oGDK532tVrxTEkM0jRWWddVysVkn39DyQkuzvDcEJq4gTVYHQOaOoIetcdJlmS+vFXL9edi6rAh6gahX1jK1NU0FyZJ0hRqNqwLGuSfrS1lQxL2LcfE1TLdM3IOdk2P0w3RVc1qYZrKlAHtnjVj4VpgdFQN9hOYHp1BHyYHkWz++w/Ex6JEvbNcZSLu8oq8JBH67rAZruO75DN/jNjCj4kZLhh8gjWz7ks5mZUVHaKAhiJ/KV1U8A7l0hIARqOc7ySAfW/JdCUwUs4nftQqmDjUC39kCG7T/Ci7tC2y2r3A8r6KfdOgw5WNCFG0OhFDXzOwyNsuq9y/OVgpREakTwyFKQlw58gIZ6ZAt+SgfInMSFb90oOICWv4NEWaXyiRta1ikZI/aVMnhe1hIxaFoKAhoOvL2HRiiZi8FLQWDh7fybLxUEl1+wD3AMPXE5sREYmlTLEVt+l4K1IkT+0t4bQVjdpWDNHZszLXdcyoge8++QIt9xQ1MtiftJl4I0aI3dKoknELdbQ6ALq0mTd6tEKLEghGSZSmtioyan0bXsv/rI+GIXWGRkGPG6suQdAlvvftHYSI0qy9eQzs+xcx209XNwWNY02R/uzsQrBTECoSFoazT1BKYCxkBNK36hchzn/cyVl7VqkjlUhPIsEJj8hcJHtCqkfiqgIbMCXsiIgR3edJz5HYoGTSGxXcp6HhZgj4xAtr8Qsa/WA/AHJcMrBemcCwcibVdeo6sCPpJxSGwuUevl4NbOcegDdXTHul0/DV2fPpQzo2FE1rv6JRUNTDcgUuUEn+EuCl5VUz6Ir4etf72aX3VeLK/kBaqV0ffsRW08H8spL+c4MzQ6aySWcX/2ZO7ImVd7mawX5wKzPd17iZEzZtUnVP6g73tHlt+vQLQpbWgvR2SqDYvZIqKcm99/CFdsTTlgAraOrkqd/j5Z6VY09j+wVNKsun8gbnxlEg6Rx8KhwQ0OpiKJup4H2odmve4HxrPNylsHulwtKAh3Kx8++v1Dr+GtvDhoLF+HIuM28l1dm618/uh5mkZoW/n40fNUdTq28lHXn/ZbLVpEPtA+T3lJh3CJoGb1Hw4s4lVDIxwYaNWkKdcDS9rV8BQH3nfVegsDpoCrAZ4CtjZXK8cFvK/LMG4jbC0sXb9XQPtWDOcQsIBfipbiOAlf3InG71WsVh7QXyrOFYLFmWJcGOyiF+N64Jg4D+Ne4VY7Txzgfshd8zcRq7lTXvztiHmJKR/0+Wn/ZAuHmapiymd9XyrMZgM6R/QHFq5TuHWQSiVb70/i71ssWYXZsGxRJ1MV5ayRNvurC4sr2TZs7c8WciZsXZ/yQf1bymBm61XOmH+Z8soVgq3KCz+t8QUltaZ81PgC5a2FIqM/nw/9viyfLK29lT8+iY+Spdgyop+SnV9GhyymHv198v9TNS4brBOkolDxDfWW+ScZy50pa3a64P6c8lJEZuqblNQ/LGg/p3y2eB/2f7L4omA+JEVd/4IorBQUwcT5igcT1kOe8Evp0IJ2QXsy5aW3mSFbq7fZOFap/c4wkht5I+7cysv6VPRPVqNbVHlqUGzqLzFH7OK+VHnsyax6Xpjaa6XDpECL+ZMH891DnuKLdZx0PZEKL/vvE/BlmTPN71G+a12f+vuUGI/GMbyRj1rrqkylYoDzjXwwrqKdvHLrsLxxt23l64fyWn3fyQfN95J8sIrsVr58KG8czyjf/Txu5NNH8k39t628cUKj/IV9QPny4fNY/nkjb+3XFf2NkNT+V0RxBuOyqcxFkHx/kj/jnOKNqbeiQkOYmmbJxw/lD5Wn9XHuJKwHLXkl/ab7K0Rdf6aavJQH+3z1PHRfX70vUp+Z/3bHTb5cf7UnSMdh+2Evb++7eZ7+2fsWe19eT+VW230vl9+cF32eyL/v55HYTaLeF9vzokDEz88jy2f9Xpvn9/O42c92vjb2weQ//H2Kry/PL9nni/Uhf/5jeUP9V+ZBsvpUZarDi/uL4C5X9yPO0Li4f5Ho5uJ+R/mr+GLDvKPrs5H/7Hku/KuNvPlvKH/hH27kzf/cyJt/i5Q7F/7zRt788428+f8beYsvNpRBFr9s5C0+QvmL+Gsjb/Edyl/Ejxt5nwlD+YGL+JfqBSu+tvVh9iKzJ+TvOXlRxft6/fmq8kQNal2HFet9j+vqu/wP51sUKM3U95b/4Xyd55cKxhdX+asdy5Hmxzbyln/DUREX+b2NvOyHTf7zIj9J9eVkDGEF8z/J7veC5HQpar/aNj9s60P+WzJ8FMOKk3G5ZM7HZq+PEH5p5ecFlY94gJX/198nsGyqjh8j/zMZVdmm/tKU/CBhfLTqL4ZP29R3qsrT81v9KGELgtentvI6C4Hlrb62lW/2PFTvNjxG4vqv1R8TAmSzzWJJaE9W/VTXh9qvs83a4dEMq/4bRJ7u91x8fSLYk1W/1v1JeLxVH1c8IdaLjVcpIp5w1fcVz0D2Mxs4PqJ9WPiED/ESQfEkiAewTsLI62n4jYD2JBvLYMBeAMefbPAzhm8J+H0XfiaoPNirYvmHgP5JSTYrC+sjxWdxYX35Cr9E+6dYvTvg/ild68UB98/Cd+n3ovxYPTS/cSATQg3qP3APdDXmBB6NVC/wrpRvr8aPeiAVfM1KI3IgFf/CHxqelvCBxu24oQovGr8fiCe5wmcinvAC/0n51St86Ube8Ksof4GP3cgb3hLlL/C9JH+FH97IGz4Z5S/wzxt5w1ejfNQOnq284cMpf7jw5/a+1C9g9amD+wWyUmoeaN8WPt/wzIRvL26vyB9Y/QUqjxRXTfFUAf3/1R+h9xH2C3S/f7F/weLlyGxVhk+LeN8tjgz1Z4hPpUc975t+lgv/mfBgq3/nE/+5Z/UfEt5fq/9I41l8/qL30aZfqdrsMeQD74ZHzZgv6obHLljP7U0Jcwr3N1mDbGUaL5s8zPWF1X+n+Vh8X5tF0ZgF5tB6ZUf7uciphIGI20qDUdVyp7jVTwf2ow0b4RDYwI1kDi53DDjn0pqGzG2r0mL2KEpeK5jPFDjoHAaaDolZnYzfMWR0+0a1PtfM9BKGawsbFhsDoocNSZPRDwWGzq2xFtb3Tb73akWXv8BgiNXsfqgCZVsXm5DcflvKGG2B7szU1q1RfOwIjnSY74EVyUVrIBmDwMxUliLf9FCOoTXGdWkyGYoOYM5MNGVZgAVb3nDMSNsEj+QbQ++RuKFFG9bIuuG+MjKUxdqxYR6R1FlkqsOhufWUuZ1+2GBZrl4tBXkkZk8Jh/E15mNHYyN/Im9YOIZG4JlT1Evh+UPkwtbY7ujM89SHNS3nwYQUxhlTwo6lSdzgRSfE7yBWoPAMugcp8l2BPaULwiKeWvqYJHNX4JE9F6RLg43r0Bul8qB3p6Za+SBW0HJx2vFxKV4ib4lyxGEtOwX1cBmyMoxGv7bdjSInrnYsqq8bRVZpsDU2qufGaanR1Ro37lu9oJsLbASM7KdF9qS7IduYSmHYAJHGvVrDam2LWJC9EyUWLMxu0jWaefAZvFIIpoDcbl3xUo0JTi4YITszrzU1lW3s/FAdp3kgpnIRFmVVQBLjZgMsA9PYND3TPSIsbjEcGX8p3uyWd+3cuDiq+qFTgSobo2qnby+7mEZK1Z2xKaOow9S5eWUUY9ttHFtat93i1GbyXLGtm1Giw+qffTATYdYAovOwgZFtPg6nMEeyqVrMUTAVdHpNYPIra7KdChiBRyPEDmxmotG3R76BDHe+m0Eaje89MilftOFMG8ZgG4s9uJb+mMr6nQLecTYofW4WvHaPC/p2zOYcGiqu7AvlS43Kc/GYEUHSsGXljtLugyALjzNoNk+QMXyLqL+oAk6JqEZCVhFV0qtWwQa3DXSDQax0DfNa6SCXxsRcPnaoYTZnDX2IqkAhTffhrh3zFCtXbwp04npUT2B5ULRKUdnLBpv77lN5O5qZNUDEZ5pQAeHQBqbBjPLN4unl7xPlkxEADx6M2oyI+UFr/EpBbSu7cK2ZuR8I829Grr5iR1ol450bnLdr9WKgDo4dKlfjn3iKkK9S59qkz+KjE7dGJ9mcIkq1+HCm7xJC1xrGV/SGRvhQw6ZYbTVsUNZOw2dxbTVsgNJWwyaKbTVsaNlWw+aibTVs9NpWw6a77TR8gNxWw2bUbTVsDN5Ww668rYZ1L201bF7gVsMZunYaNtVqp+GDFd/QOD77gj4ecqth0ybe0IgfvofhPd/QUKbfnYZNA91q2MDRNzTih6trY1Pf0FDsyU7Dhr9uNWy+7BsaVpHeaNiU3Dc0js9OlM/63WrYOOE3NPJna+VDkbcaxv/7hoYWmncaNj16q/GxbfcZ2FsNG7O91bBJ3m9oaLl5p2H93FsNG3n+hoZyMO40DNX1hsaHPpyPn39DQ7HnO42uyek3NBQfvtf48Hw8KtkfaIQPNT4+g97Z+IaGpgkHk09Z8/YmXnmQDX6vQO2K8SqEov5PH+XHQVoMNgZvYB7lQdD8ZmQarA47uFodhvZorqom/QVr0lwBP3X1e4qt45cO1hazyXKskRJDFXCVqhrOzeTWYJ1Dq5pGVAM2N28wti8YVng0zBCEbJuPk3jB0KdjQ0+Tbb5txX7KkCwBVrFhKngSb8PgEG1AdN1RpGgepTAHkWMmOeU8FQSX8IAUvlLQvVSYFubQUtjImEFeKExTIHxIsMbKkbl2ZhPZudNz2HTbhOVCGwe36i+UoDa7GhGYZMS9a34pZTVsWnXgLIhdbgemjg243Tl5Zwn8KU9IYyMy7zxJKBswmdE82UqpHeFCWZEFDyj3C3mtvDZm/lRsaG+4/kkbo9dYVHgea/zqzNyYbBjnhinU1pNxQta40HmySbIhrdyJELXRYcpTIdsqtJ1xf0Y01Xk+XrwAadCkgKhu1KpzkCuoAUnj/RwNKdMQx2KNU43Hg1t5uRVk/gzauLNal8iZ0FRyY3tuxNUr1Y/PowAthuIFIx4LCGgPRkR3MPOhES9xaBDUi1iYN2LWssmenX0zLTVWhqIEI9ZlZrBDfcXNLNPDMH4F78fDiKAy2udDK9Y1YVnSGrtrQpfJknpr7im+ryDMK3fSGdFL5Wj30ITsQsfi84uLuOC3sD8PbTEpzJx8aNqhZISvG9KjJOwUsxRpiTgpwIDlJaA/4/LceOTA9YG9Ivb8q8SB31fOY+54H9l65oYQwEOJJXLdnC9tHGS8t+2fzJPXDm1Ey3ljT3RwAY8rPBRkkyNmMQ4bFBAwaDMcRT7wfjwUnZIGYjzNvqWO/tWhPQap4X10aMr7kWh/735JzJQebJBIQWYJK0smho4FjS9SQhSioeVSRKSZ+TMpoj2Pah9W2hv9YUmpJvY3LAuRNtlRvV/iwPU34q7I94sR2a4IGtdHyoMrDc3xQlB5QnNFGzRU0d9OmpmK3PVj8dEjgn4Vfz3vh0dE/Cq+k+dPeH6TJtgj50MMerOZHJTUH1s7FuV1/QPGF9mIjg70/404KnI+xAaVBJ4qb4M3pzxOhrJCf2dmLc2fTHlkwlF7EhpPItP9GSo2HdhgyUUlS8xIVrjl81I0HzLlKR6vVhJnJoFqpU6elFRt0FziSXwGVeNx4dV6iSM2jFoLR+DR9s2KjwHXp2k/RmDmJSMGW6OUCSLpJXOMZ60TaDCE2WoZeHt1TVd3TI5ZP1lHWzX0ruj4qkMZBxi4bG2MbfMwQ3+dMMjBKuMbRm9zVCsXkYIaKgazB3P0uMc4BDUklf1US6Qxw6wzyDMjaohqyAsXRpJiyJixNNhEz01pxxgYC/pJwSbebX9fG395/ZNi/woyDi95Y2ilvFXS1s7CteMLeYpLL+V5QonLb9ZT3xf3/8V6Ulxx9b0oT321H5DRfis//+G3H//4+c9/+esv//jH7398+/r3L9///79+/fblb9++/vPXn+7/6feff/zty/y3/wM=);lineShape=1;" vertex="1" parent="1">
                    <mxGeometry x="87.25002987618817" y="34.19702413895513" width="57.808607050372125" height="28.449255588766196" as="geometry"/>
                </mxCell>
                <mxCell id="25" value="" style="shape=stencil(lZ3bkiQ3jkS/pl/TgnfyeXb3P2Sm1kg2s2pZS7OXv19yZVFV6c48VL31BchgBEkQcADOL+lvv//8w29fv8Tr9z++f/vH1//+5cc/fv6S/u1LjL/8+vPX77/8Mf/0Jf37l/S3n759//r379/+9euPf/79tx+W5PrTf377r/UL//OnXrweIy6teP3vn/8yHr3+/z/8x5/y//zl12f5en1OPgWRHwHlr/4kH+a/gEKYz79UIURUyFUVIrzCVPAh5QwK/VHtCY2G1B/x+SOF8LgGKLRHM4XMCqGpQm+gUB81PSvEe5CvFC5TKAkUyiNVVegdFPKj5meF9Ig0D+leah8UCiuEoQqNvlJ8ZFkamVfr/OpZFSJNXLhf8YNCoa80N+hQhUGL77InFPysbxv+g3yBB4z7fz/Id/z9IL9fHxEWUn/0qPIVfr/b/m+PC/Z/t+3fcK/NvZlUfhSSTzJhc4Twvs3G0/H366PJ708LiPKlqDz/fno2wNOG0/jrI5j8uF7LF93Fcdo6WG/ltrUf5Pn3y/N8xXjPyAt5sVtTnkzp3E3yvunw+1dW+QHrM99W800+3zP4Ql7OjvnEAPM1f62pfAMbl+/Zf5OfKwT24zSA8vsNbWi+j8YP8nS6pnv23+Q7Ht9J9++ySChfusrTekj36r3l0/QOYL6S2ucUbv/ihfz1vD5TfFT4PlHXT0oHefk+Kd8+4Qv58jxfqdz/8kI+P9ufNO05uYxqf1K7j8AX8kG+Z380OlEfQ77PtId0ZOt5lMMj0QGs3mJ++8Iv5PPz98z5EXD86Xm+crlPhBfy4fn75/YoML/Tej/v3zzuGXkhLw57mc4urP9L3b4Scb9c6m+UjPb20v1Yyv1GL+Tle5Z2W8gX8vF5fkvH9TPln8dTOT659Hyp4T6hXsiLk1sjntf++9OCwX40f7JOCw/r87r/901+nkf4+6moPIWUb8Ham3zF/X6p/1P5fJnWW75PP6zP/rxf6rgtxov9eD2Pp10H+xOf12eL9wy+sifP36dN/wTtiUSGLaP/b/awFdwv8T793+Qr+jNR13Nr6B9G9d9ax/01zy8Zz7g9tBfytah8x/NR/PN+YZQaH+N5vjqfL+neTW/y8fbAX/kbQ+UH+z/P678nXM9J90vPeF6nO/p4ky/3jLzyJ+X3K36f6a8+78f+FmG98p+zytN5Ov15GU/H+KuoP9x5vRW1V33gfiwav095mt+q+2u8nYCv4seg8g3WW330Z3sywg0lvYh/Bcqa8gnja/EHpnwF+9P0+0x5+j4G3g22t13jzSmfUV4goylP9nCo/zblCQ8xPHTK03k37tPzozyMZ+GxlykQ4Gon9lIgGO6yJRT5SA26x6YC+RALt5NJnmHWARmsqpDoCUndoKlQKQzIpnDAHosNKTNCa8jRKBgJLxw7qgIdfWHcO/FNoaIvuoITeULD4GGd3pcq0Gddx5M8od8GZ6+Q78X8QYH22zTA1Z4w4MB5x0/eFAYitFNBQrKpQC77tHk1qAKdIcvo2ZDQqeuKMiwF8rrG7QR9VIB3SBZ3jDfL9kph2JDIEKegnstUIGQrmau5Jg5mOplvtxToHcz5Wgr0lbKmaaYCpcumQrHlTeFxKrdh/KDQaUhFAca1gWCLpqoI4GCPagFItuPwszY70zv6YKmZqWyY5EjdlgajVqmrGzwVKBGUhu1pxnGyp2obAqU52FpqjwRLYyqoqWx4KOaoWNdUoA2UDSxdCjSkZKay4dLIWfNrJ4Vyf5O/qlA1AD4r6PI+KLTdV2IFdbAOCv0+b/6qwtispYPC5+ahXLdx/6sKBoSeFcanXrpEc38OCslcuINCVvDxpGDZp7OChgMHhar4/knBEp5nBT2nDwpdId2zgp7TB4WhQfpBoRpKe1b43BatweL0g0I07/6oMD43pKRQ/0khm2d8UJjL+3PvMJ31Ty2+WjcHO5Uv1LbZcRRlTQW3GgSY1G6RYsVKm6nQiypQyrcOO+MqhpZTQZKyU4EO9nZplcRUuMCbab4fCqbVWtA84lTINKSweUKgwpComaYZgFNlQkvmSmcMmqaC5NamQiCFbGAUg7etmJOYuBqm3sUFHxQoXTkV1GpE/kpWDLcAL3qCVQCNiKFlGwY5MmS3EH/D4CgntyB/e2kKLXvQKqmlQFVSwXCNiJVnPZqTeMA142YesLAqmYPFlTpTQUoJFpQLM92zYu+Da4d6NjMT+B2yBX4XBq+92Cl6YfnNVBBHd+H7NHHVEiADgcFedeJ6R7ioN32HlQKBKGv9t+VMKAc1BxAlqcHA4FRokjUpCDLPb6JploJpn6mg75AxPJ7zKiDCSozBZ10rp6oCWe+5NgVZ7xGN8VQQM9MDDyncqeYPCrRaR9Tqr2naCIVbSL2kYwcPKek53RjBmgqyvNcBAItvnZnPy3seMZhBsVO0sYM1slbdr2OSXrpoUnYdxPTSRV3pedTj0iiKhk5nolKayeo+W8Q86HIJ5QmcWFtealEFnGmLFKcXGOkdmr5DZUT3HUJ7UzisJYtFp/tOhmzhhlKeU/HIGlafPGMWyoe+Y59vChkjlNGtgiZh0uUdv31TePOVXymI3zrDWar5G4aGzggbv9JQzLhwWmfh6FLmVbHTZeUCZEhc5zIs8boK1WgtDYXiS8LAbyrIPJSAcdwwUK1cvB/Gnfq9FXLnPT3UX8oNq0eH9ffkio7uGJqqzQWx+80TEroOwzLgOWLFzjDXYZWEkqkcijoscP6wNJ69mTTY8g3d06mfFMRfSm9e4MsdJwqVFboWxqWC2P17nvVNISM2MxXEu0/cQbRSv1JbHNlqNF0aiYtZVorleQPFg/vTrPy9Y7n2gm6efY3IaZ1RFQ2N3ICzXAepsC98PhQtuXov8nqlIDWQkes1poMlGNkq46aJy4prxMC+tyWO3guJXylo+9rgOpukQ1qdiOxKi7O+OonopaM1KjY+46LirVMBjXHQrxQq4ksrQjGFwxO0XYzL21c1mve7kbNuedGQ8R1mpCi1DlOBKmq7t6TmG6d+pSApwsDO+gyPxXWYChQ/TAUxM1OBTtEZ0EsMFCKWWc+AXqzGahilIVX1yEJE692tsCAELLSZAX03BUrKTwXpJQl8sM+AXpzE1elL7xCte/LimQ5q+VaDJyEnlyXl7w3yCts0eao4mcG2hH1c3dEMXGrY/tYMH2s8nqwpoIpTtqrnxevG8stm1YuZy1+71osnPNqq7Zs3GHUvb4g9t3vM2E5ym+EOw/fyUV2egMauWj8At/9U63+4sKZwRo6pizz5R8Wc8wuTAcX8Wga4VnL5Unkq525ap8DttKWqU3uQL5vxkLzZuIN8VCDpIB8U8DjIX1plcZSXfkiWX91r8TPytn+P8tenfr8ponqQrxrOHuV9PZN80cqEg/wn10+On5vfbB7jQf7ShCTLJwOzDvLtc+87g1yzPyiftSbuIJ/0PDrIR2V4OcgHxbKP8m6vDmW6Zp+p2PPy9YCFlZe6lRcz2rh3z+1gQyHjwO1mTjdzKsUW+8MpnVW6LeE95r2i1f5FhKLe0YV3eSo7jU3tM7efTHdNsLGI/mE0OCNxPb+VX3I7ZLQKocTt8EWrcRLSBSx+B4FYEZiY/51UnvZXTIaXYi539Qc+76+CnTDRygIKt2dGrQooPJ6gdc4VU8ve3875lWh4QUV0OFqdKbcTRmuPaph8D8P6aZkuwOwJx19Lvqj8gR4rfEa+q394GI+lejoTIHWtH+rozy/5KPJ0fu3kKd22Gw+h2ku+qjz1UHVL0aN9CFZp3bmpa6h97hhvTnktSsCquDA0286JiDDUv+pMr2H9kFzcsvt9pFbbjJ9q9IJlIhm/331/AoCWvI7ntB9tPNzkZ+uTzrvtfjz8vu3Hw/htPx72l+1Hmt+N/Yk0Xxv7Rv7Gp+WH8u809scuXQ8NC2ed36Qync6l/k/FUsdoRUsVq9OW+6v4G44n6u8XHo8lQQp/n6T4ZMb9GJPipRlT6jErPpM5vrAKxIT+QLQCxIR4lLerclHa4mtTf37QeKr6w9xOHo2Zktvh39nEPsQv3Asr/tsxPjL8k2q/3rf3uzzZ52UuJRODeHU0+x/YHx6agb6wVmfFvxqPk/1P1slywAcubfy90F9a+IDG79jQGhwfxtbODb5B9mGHn6D8Bp9B+Q3+g/IbfAnlN/gVym/wMZLf4W8ov8H3UH6DH6L8Bp9E+Q3+ifIbfPUgb/gtym/wYZTf4M8HecO3UX6Dn5P8Dp8/yH9qfnf5BZTf5C9Q/pPrZ5d/QflNfgflN/kj8q92+SmUNzzhwgqnYvniC8/Temnr8IXx48oP6njI/69B8TTOD9ao+NiFeGO1wqDA+daieF3E71+tP4rpIld+WfFGbNi6lNOa6fta1NJ0ppNd+Xf1t6kooxWNdyrW97Sm+fqG8Wbr6t92rh+w+tKO4+nGdzm48iZYGxVXG0Ur7TkUfCQjnOYdsKpcrKSEtkDPVtrDOY/V42QK5NSvWiDns6d3qFbVwCx4vVnx0KGFr6tfE5h3dyoIcB24qLFb5cEijaKv5NTrCcvqFxOclYkR1+QwsDscm6Ikm7To6bkDSTrBAucPhvHpTgUsLo32WeupZUkipqlAJmx4iUzD9ujVIiuflUHa1YSbVIGquEbSfrnA5EerKcpo27FlKVse8MJCoqkghjVyd+cwTzzyjltNUfKEhLH36jGXd8hY1LjoywTM4NNt9TgZ+zm5O8O4WxbeSU8wbq+VkWYFMZUzxMaSdGsoSofGrq5sGOnQyNJ1aSweK+6tkYlL3N05hpqZxTJ1aKAQhXYakuJonbvZzHFOg0vS7WaOfGh/G+pKZqbSXArC9c01u2NocmH11iBZ5KUt2/nQTOCP4PsGloI4uEwJOIZuiMyEfcNKRMrFe9RyuiUcW5CEFD2hO7NWn2TVmRV9dRRJ71jhftChcduMXMlL9I6i0rkQf6iHVQb3XVlqpV58Knof4qFtxIKHmth8dz2oK/cGbLo1D9ftdI2vZsRIfAGr41QIyRs3XxoBTe2nJ0i/T2XyRz/kVlTKfVdiNRadCylUy6Ixu8U62Y0mHe19tS7yhImQYUxaLXMnS1E+mVULz0+QU7Exq8LIxmV+aPrLNnGNN1DSeKAdHVctrxmnJic5s2ZEjj180UgSDv5PtIw+38a2QhQpMTi0FQaj9Ih8h5Y1dSzuFJo4a3LqfKtItzTQ6p6hgHooMdaM+om1c8bHSlRemSmlK5LWKw/JShvnvxDl0/xvwbY7x2XdwPx+QIssG9o5LuvFiE8GNzk5gxM3PHhX1OLEgbXUs/ErBQyou0GCg/kCetKc0zigOW+cUx8UEIWzW44GU6ssuiSnXT8QMtkTqPB1S/mEFDc7UikqpWwWQAym9FjMK/ZZaeIW84opUKjY7Da9wY5uqwphDe50XMwrpkAJ7WaA/eCOrWY3qL0fk3uFZJT/fOljszs+FsMMzbTT0xesimjB+LsLOokt2FcqTON22RMqFhp6o93y0ZilUFk7K7fmDaOM5ZCmOsv5gcvRkm8HRuTaNrS3ZFtr03LewddVLQJLo5ekwG9LkUkVWlsSTlTY0Xyiwo5IFBV2VKUHhfi5d9jRraLCjtD1oOCUsaSwJaVFhR3t7UHBiXVRYUfde1BwcmBU2NEPo8KO4Pig4ISuqLAjaUaFHQ00KuyIplFhR2V9UHCybFTY0XGTwpbw+6DglOKosCMtR4UdLfpBwYnXUWFH7X5QcPJ4VNjR06PCjgAfFXYU+wcF/0p0Tm+vCcArancXERDqkMNmT1NoufiabOKorTBZemDlYbgvVT9rx8KR1LXwcdEbkUJTVHpw60ry5c0ENOtijqIK2KxpoNo7a9RewSoLxsB0wlTQ26oGllOkrPwWp2tksq2lwR2tyVyHgS0a6xqZYgp874wagYEbaHsVDoWW6dIszcp5cBmwxtPjLuTbKkT3Zvheu+2VRHgPk1169CFbtddom9VHtQjr5iZ/a77qSdGcweXkZbdcqR4+G3E001CtnLpdz4MXPnsw2vkJVvL3nmHYKoRh8UDFWoTQzZdm8rp1V5qFuxRmBQPvV8hOfU7ZNkRG/PS9OOiDwunOOhkSEyGGYK5x4hvlrJhnJMxCrpv9bEh4jZ6DAonbu/x2QlYYireOxCyFuwFRzsWgnMQQsxGQcy3FDoGjrdB310nCTmhW7sh1c0YXMLjfptl8BTx5fGMGrFCrtgm4f6baeC48Og2vf0+9vJBXQu2BHk+x9tWBNR3ZsiycgMvajrSo4uiGLUuZtMN4tP28oiFNdn1ywQqTpO1FnS/hSAphdObmS9YOnDBr5dc5H/g1LLMXmF9Dy78W4RuMP2quvg2EkqN+n8Z8cFFTBo377aO1rzJhcFDsvFV832Apbr4nJqiz0jL61sHK0Q9npF33zjeB2HXyjRn6L/XOKs/vpTXE7yD3C3kJJWpDR9/8/Mrc+Zema2rBEmU736c8VdFd+v1rxvzRpYBLTVifbPVtlfn4/Pe5Ru9S1Kte6LleWv1cmMH70vOlNEwfG71SKZgts/bzcvr+yqIe8XrvS+1h4WaGy8i+BxYKXVYieeBzUf8qc3970IAvZ/SXgtrzzP6b1abkwPwj6u+lgUBX0PxsYj6LqOdpatzvbTzlFWs6ooK+ictSotUuH/iVFClZDb/4+8qCzvYhqb1KAd836X58J0x75f9IRfvA/ZW06GDhLATp6fdZEQeOX1Cb2PB7mj+5IgL0b6XUavFT0JWzmps88FtZ+3bMWF2WtZ0lcvFA1og58j3yWYG5yETPRc/fA7+btzdyf2NR//zAf2ft7cuDwvhIELZ4YRFx1ea3dw/hr8WPYWChRDW+5oGovN3tHph/p2l7ZuB4rWlpVeB7prv6M1Oext/VPwyV73DTAqApj5c8GH1i4VJJa+Zi+2/tn1Oe3jdYWn7Rx1MAcNlFAZkZzKw6NDBFYLAzOzAHYfCOt4SQbkjGyp8winkfwAcF/KzZWkYjdoCGokDE+1u9UtDrFLjIMNQN3zx1i73vlA8KhE2FZkuDybODN6Xy9YTvxuSDAh03Tic3br6UV/KaZMfcbtjQzVP47PHbYHjhUvs4mC7qspQO3k+x4oH4SXkdP9JFXdrjchh/sCsxmU4oWLEW00UFXw8IT3lmHVtDdvK0oHfjQfqwzfsiHdXme1LJ7G6+kG5psx4Irt+tN6QzPsrPP/z2wx8///mXn3755z9//+P7t398/fj/P337/vXv37/969cf3/7p959/+O3r/Nv/AQ==);lineShape=1;" vertex="1" parent="1">
                    <mxGeometry x="369.629352934654" y="34.96848695174701" width="57.70214116483223" height="25.36243789001889" as="geometry"/>
                </mxCell>
                <mxCell id="26" value="" style="shape=stencil(lZ3J0hw3koSfhteyxA6ce6bfQ2aiWrTWiDJKPcvbD2DsrPrLPesD68YlvBKJxBLhsX1Kf/vz15/++PwpHn/+9e3rPz//z5ef//r1U/qPTzF++f3Xz9++/DX/9Cn956f0t1++fvv8j29f//X7z9///sdPS3L96b++/vf6hf/9jov9NsZCxeP/vv9Lv8Xv//D37/K/ffn9Wb5FkT8SyqfyJN9unX//3z/3QZ5+v92qyreC8sHkA8jXWwkqf4B8OYf7kK/0vuUW9PdrB/ns84ny6VaqyjeQj7fW3pEPun428xluMas8/f5xK13XA7xvGLfxPP65oCrK5yTyCb5vmPtF5Su875TPz/M/bgf//r//+yGfafztVqLIDxpP098Pxy3TgKpO0ATgE+YOeF7RIfArFN2SId6ODIB8y0EBFQ6JkM49cgekW4wAiLqKJqDTS8dbfN6Wa5D0DuFcNndAuR1wUEzAERVAJ936rs87c37KRC996NE7AXT2jluRB7RbQvnQVb7DG8yrRuTn3oSF1M+F/EF+wAvPrSafYJxTdik/T8LnLzAPpwPOonaLSeXpi9VzNu7yAcdjV9M8vAPKx6jyA7Z+uY3no2teJrTNiqoG67KC8ZRbfv6+818ifN/7/97lK+7iouv58UUu5fOtP6+fpQvB98q38nxIrLMa5nPOxvP3SgfeHfk8Be/y87KFMyXd2vP8pITvm/SASPONYPxJ108q5xOv7249RFM7d9wL+fb8vdJdeXwhL+s/DdaFTs32lM/zTMXfF9UsRxxP0P2S03livJDvz/OZM+s2p+Z5l6/nzflCXs7n3M4ZeyEv+zHP8xPHk57ftxznE1/Iyx1Z5hfB8YheUDLqBcc52rv8nB/4Xoeq6qXjnX2oFlHnL8D6n7PxvH9rQttqXtjP66EWXM/HeZ3f5Tvur0Pvo3bgfXrofd3i+Uav5MUUyKfx8Wo8YspMBQV/P4lp0nB9Hqoat3k+g61xnJbLXbU/UOk7ztP4Lh9Ztz9X+10+sZ6r4+8Zbe2g+kMvm/NWvm+vp4756ryV8TR833ieZh/kB8x/0vXQ78bWC3kx/ftAbiHp+TB4/+ZTm73Lh/OGeiFfn8c/4mk7vZDX8SSc/3Japh/kC8qLiTHlaX7KqS3f5fMtwPeqqo+Nu2H2Ql7n5z5jL/Rn0X8G349NLdVxJ1deyIuhOuXpfO66X6Z8Rvul2Hgq7Jeu+2WwhTf0PJ/y9H2HUkFTfqC8UB2jor0TDlUIJoAW0AToG9eTHnplBIvKOjY2bTwH8AGAdEe8eGm6NEJSrXUCSIsOWdWyBaB3MDtpB6in2fURQBdHs528AfSTq/hxQH8PMFX5/A5gaQflLYARKntAfQ8wF99b0zoB9T1AUhV5D7hYfAQwI3QPEKtsAYjh9WuwshlXzg35AUB62rrY7AmDDL+qmvtoSM4tr0JTAB1kEzAOBZCusGjmoQAiY+Kwo7LhLKXD1J2G9FkyfXZ01F9SPM2xD4BAhMNc3tEApEFmO5eYwknF6PYJgMU3Ab0agJTOqlbjYA9DaqdS8aOAfjGtG0CzWULAsKWxBXSbVgLk42ItbQD13SeMt146B7tQtoBmqxUB8VSnfhzw3tKYgP7ekJLa8HuAkKB7wLANhADzeO4B7T2AOaD2gPLe4punxnuzVNUW3gNUX9oA3LraAvK7gDdfupv9wARw7maxdrTI8jBvaT/9y9cmsXFg4x4A8QrgQyKSoQS7HwayNiXaxT5OPfMakOz0Hqcn4hqQTW8daNhPwCgGoCGZq2gwNVfMC70A9OHa6fb/CCDyo9kGGriWSr+YJXR3deWrFoDW0rh4B9Jmii/vgR6CCfAPR5RePS4OAdIqJ0CfwAET1bwQ6xAgr2ZUN99GSZwA5cUaRjQs2t4A5OiYAL122RyoWan/ZdLA8q5XRlMh33Ixk2ZeMfSl66maf2SX6B2qWSgFTZrqrENBf9wE6LRmDDaqFnw2OCqjOk2R0YVULXxo3L/9K4A4DRaJSyTlocEuI+EhMAFqWiac1hZs8UXmWYPt6YjE+PIbJQUQJ9Dc8It4P0yAXijxfKtrQDZdIyIx2HzHRTyXWjk35I8C6sVLkz9sAvRCiWi8tnbxhEiz1Iwuimixt347ROcL6POZAKWLwmmdvgLoBgqowrVxTuIHQKIhDVtLAeNq+mFH5YHE+gSoHXfgBpoAtdgP1Gb6HHFWAH3p7s7Ggc7VCRhBAeSt6FHDXzqrcN3iQSaArqyeNGBjORDhbO1JF98EVIowS+bSnFcMvUPWmJnekUnsWZ00vWGQzQRoQGrD5d2LXoq9YljRBMi1OwF0tnbzP/SCNlA3W3QCSF/qpgn0jBrZ+q7y4RL6ludSKwaIMK1rQ8qHi6dFcQ0I51n9AUDutXn0ijnQA770upWLAgJ8uKkoyKU4Dx4imZeyUxRAy3uqUxrzMdCXNSzIbl0A5BTNOqTGBO1yEj+vpXXr0RPKueXvgIqn93L7ypBYlV6atjwh80tXZRIngFzfS/mXaWWt8uEFvQMiBg8N471bwON+WTwSPnSgZrx8MhKPxRfKMsKev8PU94nXGBZRUDmCdFg2Si3oQxlNY9Bq5pfuelROY5MSHJZ7Qp4Q+FzqFoZ28Et3tadLx7jiB2VwBzTkBB6kxB1Q8dp9MGJ3QOHTe2hsTeHYl0UOPc9SiRxMMdQGKgEv9gkQd/MKr6TvMNQAz6wvTYAoWIuypaUxNDkoV9Q1hvmBFjm/AUjMbUJN4AIQOGlhWNTtgVylA9J2WhXAftELQEXlxKd1AogzXh9OQsMLht4ugDwhIxu6Fp8Ebyckytd+KAog6nEY1ZIiX+y2p1NgbWao0ZQONF5HVyIkHcjoLueBpDAMZLCWe6IoAC/2rtbuCkPjIclLr9gEvuPE8JsAoilG03NpZbrQl26qa8TKp7cxiSsNk58gqsMKKiFAVY3skV3yUv2RIWVMpHzEpX0AkLdsGEG7AlzpCUXjm1c0ECu6MSoAF19WTSByYt4we3oCDnqHO5V5BwSMthsWcxI5fXFxPU0BuKcPfULgNJRuykngPT2NV/E/hI70aW96CISOkebTYhfWYeWVksVuYTATQER5L2pwBD4EpkEvlFfgwLMJSPYEYkO7xYNPABHlEyAxJ6Eg2d8tY2oCSPfuFq/xCP58SapVBeBLB3XKr7xTWktBvccho8dvcZVVAfjhDsv/zahgtaFUS0iYSNqsaMEEkB+oNT2XHnHBr6h4TRiOTDJbTGIISJ824/kmAKl442YCc8bToG/CGWM4+bTnNZ4f9bFpzotB088HXsrXYZwd/n61fGFWZGozwoE9003vnobRKcuDquMhS70WPeYr2ko1G/+xc5TL/BTkfWvQ/LLCYSND6caM6Y+lqwKT8Gb2GJB0TvC1vN0gkUNGkjIlAU+Vab9roQPc8sXyAdlLlM3gOdAzlq3UxIHOjNxUW9ukI1d93wMdb9lIyQO1llw0tmQjn0+y4ofl43hHPqmVvZUXx8pGPqoncytf3hp/VKto873MrX9gutKUr7beaP1YQO2B58PKzrbfp/c9lJ068H7J5rHhdM8pH2z/wviTUVMBlfA01CscONh9aLB7wPtohX3r79N6SF3deIETCKx0DZdxSU1dbBHLP0x5ZSpQiUtVOayI63nKa70OPG9X9QOhi5DASkVLH3ERmmRxzKy0prvW/JCnUlUpacRj5vSNpPuR0z2TRatnZJeT3afM2SevD4BcWrLYxYpm94Oae8hT+vuq7CSeFtQ/vV5Nw/eN5itqPJ6m+ls7FcBreXPAcTkBz5LqaLZF218cO/FQTx/yRFetfGcdP5YiKxbAy0le5ijeymsyEur/S/6dUmFe34bLHS35KPLEXlzJb+ZTozhQH/D37ZxZaPPZMSYwWloHl/fw9cDJBOt4OlSe14Otf+LYot0XHdPll7wEY3ApxAt5itK5Gj9mUZo9O7hUZLEkSoyHWfLKV+z2r5bWI+YrFotl5PIYF+t/Mz+2f8nevNyPb/4+kY+xKL+xPW8P5Wc261/D83b76135quPfrIeh9y/5T5a6oHwR6TNXpUOxFGhVTp3LNS11QcdD1O8arr7vrnTr8/qvXO7LSslWTmk2fq/ieJJFwhe8X6Z+KPcF+7xTUOKaYxVSVP0tox906c9Srwz5rqWfqzx5clPW8zNh2PKyL57PE+a4k53nkfVt9zfi+ZCq3qeR9X+LMOP4yWTR74Hnv6nvncv/THnJbA24f5O56gO/b1d7dssnGH+C69lCmphfmvJN+T0KC178ifKH9L7Z7LUDXYz5UHuZY1Ef1f8+yFO5pgv+ivTzK36M7Kkr/o30jSt+j9bDFX9I7s4rfhLlL/jPjbzxqyh/wd9u5I0fRvkL/pnstSt+eyNv/Dnpn9nqzW7Wc9ewmc1+Gf6+pD8s/4WuN/SnBOUruNxasfpvAe/Tkp1fJf1t+Y8kJAf55OWfUn8TxQgVOw8zRttXO0/YsV6j82OYX5nV3imcU2rhPhX52Gr39SYFtak9VTmhtGkqfUOH90reVP2W7qNq/F7jzLNDz/OOcdHNMvs7/76V3h/IjzULnuKMrRVBIDEK7OBp1UqOB049bVZR+x5u8gogsYRhk7ZpAZQhohO7WRmkkPBUWdEoVvqdzDbPzQtcprMHC1TK6FhfqXaHAjD+K2qGygQQ9bvijrIC6Cztflbf2ZhXAHE2TACF1fV8Ue+e6O7uXQEKv3S2YCuuf9qtAOeqtEcxbMYwhMrxX9UizDhm5JHr9wGAs9Ttw3GDjEfO5QcAnRrDygAHrk8yrI7YBNBBOaI+YYVoUjpIslDZ47TVXgEk2OpRjPcakC3cN3JaTlFl9lFe9xVAo1nYXB9GV039ZRNQLCnAm3r/wxTa5UHcZGwlBWDYdVMKfKMjecbWg+V+BagGoKiB0axLwyY4vVus+aatRtdE6ci1AUe3D8dNmVYaQlIAfmlLuo9ciWalUljeAtamtSz9xNEqK39E2LGwSweRLZriLi1H9LHEAQErLccaMNA9PQGi4aaMIRwLYHk8dO0uwFAA1vQ/Do3i2CQjXSE43+kKwSlVF4hN1tYVYpsYJlOVNymxQ0N4c96tDyF4MhcjHkPV48zd09YKlAS9gTa9Z5KVTca3JYYtM3+T9ygsfMKaVI9KYHcA8+rDqlOWssvoExW/VE6k79ZZgmupDgtFLuybXEe4+E4OTk224JG6Wd6WRFI3y9vCuSpXWxrmX6qVyw001Xbr5qJrlprcMYTQ9Yc6OCvRY7wPNCJGtaCcTVqvFe1pmzoRFvbc2A80LM6mbbQss/MbN2JyXXTVLmKAtuJoXOvCYhMaFyMeRm60jmb7uKfj3QFMt4ysGkpjvmUZEc8v3Q8M+JgAsWB39TqifoceeD9ENYRWzRGaJcv+mQBUyw4tjbqq8pBBamnuPXHBG1Nel+VPfIvVIe0FF19vNkuFyzNVjXRcJXA4G05D7SpXKiq2NPio7FbYum+a7WX7Dlw6e5U2slpIWIPHjOrekZDuSR2wnZmEtdSqAugW7Ua59oExs55v1weX+vJaeQeeraumT1XArtSX1QbbFBOTK2vucnJkdtvTi7J5K6NvcCfDZqlDI+B3eJzVHwDINHe9HwaffM27t3C5geY9MTjfqFn+zYgY0HJZvg/rLl4VCKSk28sShOSzW0UOrYwi1X65LKNIJ99loUYEeEOWTe6mN9GI7EiJVks1cSPQYIuPq5qsUkn2BKwdeVjbmoS6RvMShImbk5q1O5jsq2bHLQ0KlJPq1bwzJrDVbodA5ozGZs0bOCRsArTlVmEfZ7Uc2sJJqNWCWLkJ3irka5V/6aisFjY6Nnmo2VpWN9SMq2UaTwBm9pr3aHCoZo12kHX27Ua140bHogw1WB1SLmJVrdvkohVoSJZuti//rafGwICyVf7bSpiTaVmGRTgP1L0vS5gT61C6xXQP7jncLKl8oKvGC71/oP6uERcdzTeIq3L1pPWVbEVqB8emZOvhMtDeXUX9bUiUzVGi1VUfHP4S1EAeXKqxeOFptqiLudrH4AbNxvkPptVyVwJ17WqK0bpqQYE9Iq+aXNB3uGyjsQF4ow4EXLUC2QD8OEbAVTuTDcAbpmwA3pIFAVdNXzYAbyuDgKvGNRuAt8bZALz5DgKu2vtsAN5AaAPwFkUIuGqCtAG8+R2uGjltAN4qagPwZlQEuGx3tQF4Qy0EXLXs2gC8KRgCrtqOIeCqsRnmh1+1TtsAvDkbma+X7d9In7lsMEes8WphZ2frJgnF1xJlOSbr6j02aYvjqmEKfLjl67dziQKFo1VDWjUAOfNYM2sbp6pZ6MnDN3QNKHYYN/T5xWLLu/EsmUNhAiidZjW+PBSA+WfeWrNhAP9F884tQG/RDcAbkG4B/qUR4E1Ut4AL85UA3giWARetZjcA7xKzBei5tAF4a5wNwFv+bgDeVHgD8LbFnD540Ri5cVhINP6nopUVrvrrktEUvLcUh6CvBtXWapZyqMJVF2JiZywCaPmH4RXcxOeiFBa9OTa9G4zK4eg2b9/CPn9XSwoaZE0DKQZXdm22DwrOZzMVgwvBVuPsCzcbs+ufKUrXkTLyVt7WK3MRMhsPF43NdvUn7rBo44m4w6xmzXJRkz5l65NdUckuZU46tBuzc69Eb7HRkb6N1hqlYRsF4zE7V1wPmtOygtYpTk4p9M7rx2py9YSebqvJ1SN6la1GXmffpJ23baA+bsHpraPr5lCGtHGRxUMzYBqnaliU4nIu4fg9PonWp9UsW1lVOP8aMMVJ9ofyZY9mia++r4R8cVLyoXRw4Zawh+XIcU1fa09ZEs5P0PVQ+LwKWgO0sDc/aOx35hiJoHEhueH6DOrVXlmsFHmr858zBtAF5Sky3xdBifIcMcQj6vmcDy7CYWHl3Jk2Kme3iBR4X8vJTFwkw2qopYL1y61376ryhvedcF0pon5lOYQpoL5hrYHTgfeLJWXFgeFgWdfbpiiL6Ser6BoVbdUaBJsiuMXaKXAnJvPOLisf5SUWZxUFJOesZTJx2pB3FQgYz1pVn3mceC/0Z9mPke+jpudPGBhvbjnAUx4r2ev5GTrud6+p0bh3kc5/YN+4dWQOFf1JluAROJIwHBoSvWrSM0BuvMBlFqfRrGVQMqoE0yzXjMHNnRotCzjhIgpJ3dDzJ/BWsiCiEDEJIVjtr8c0vAJoYjL3jgnVcnS5fEqo5lPGOKjQLN6Af79ZeCa/QLeQVNRcnTXrrDkNL49J2TXBsmu4jd+jus1DniyfVZ1H4r/xpF6qjZZ/x/KYFovKHTVi0tC7jbw5PDfydlVu5a08Kcob57+Rt/K/W/lq8lQezTrrca8/L4/WML02XpWn2JST1e9LZ1y0ctDcONavsobMWhzWJ5PLRQ5VDbgdg8t3Ln96JU/718bfURN9NNp6yOP+tfnn+PlowVedy/cNLy+J620oFbGRt/J93G5jLz//8MdPf/36/S+/fPnttz//+vb1n58//v8vX799/se3r//6/ef7P/35609/fJ5/+38=);lineShape=1;" vertex="1" parent="1">
                    <mxGeometry x="650.6679503585823" y="36.83541251235876" width="59.53264342861214" height="21.156016347235397" as="geometry"/>
                </mxCell>
                <mxCell id="27" value="" style="shape=stencil(nZ3Z0hy3DYWfRrdd3Jdrx3kPV1mOVFEklyxnefuAUfXMPwc9HzW5cxRgfjYXAAc4BN/ln/748Mvv79+l8Me3r1/+/v5fH3/99uFd/su7lD5+/vD+68dv9l/v8s/v8k+/ffn6/m9fv/z5+dfv//v3X5bk+q9/fPnn+oV/f9eb6eh9aaXwn+//EtNR0//+5a/fFT59/PyoEOKjQjxGA4VwzKIKsaJCaI8K4WgwpDGOmR4U5vknr+X7+YV3eRrQqMfMD/LjSAPky5HCg3w/MsmnozxOaTsKfa9Nx6N8PQp8bx/HmA/y5agZ5G24j9+bjzZB3ubncQ+lY8KO6OUYWeQzyWdd33jMgPJJtuhRaX7S+Xl3+RxRPuvvxw7y8ZyON/KwviZfq8gHmn/7v4PKw37r4Ug6HpJv88g6/wG+t40jZpWH/dba0R/lw7mhruXrOd1v5GE/tHxu97v8oPFEPS/h6LA/WzhyEHk6L9XOY1F52A+1+/FXsFfVzEdVefr9qvvN5GH/Vzu/+r0V5t/kY3tF3tZL1xflk9qfrbxbL5SPF/NP8racbj5Bvky15xv5cbqTH5TvR3hpPPXF8ZTTff6gvMUcL8mbOX5lfUs4zdmPyWc7j+73wV/k7sffSN7sm+63QeOpR5eI6TTw1/LOn8YzALmWz6e5vMsXOO/Zzpf6R7JXJi/zH0+Ddy0f1V/fYsxr+XCGC3f5CPbcwruqvx/B31l41/T3aT4tvBN7ns4PeiYfNF5C+XakqfJg/y0crEHkM8mXoyeRJ39h4aCL9zqNP2u8kc6A7lo+qb3NGF/dt9ddvtD6Wvg1RX7QeOx4P46nYPxm8rGIPMX/caq/KKcBfiYfh8gPmJ841J5UxDsmL/Ge4Qs4X7GfAPAuT/vB5PPj/LcjgH2I7RhD5Akfmbz4i8bzU3X8Hc+LyRfFd2TfYlEEPM4BPpOvijcH7R/bjo/2bZ4TfC2f1R/NM+B9Ji/xkgFy/ANJA+jIEbopFMlCxHOOrxWic0kRMf/6PfGpCYMCG/F4PAQ2DXhqgka5pkDbYp5G6iZv605pApepqQhTh0ujNIRtXb3qOncw/qZew841hQXtNJo3+YFrbFGo7Lp57vMn8jr/85yx6zDxBHU3rxTQTBe1Wissg/kpOv8m38GMZl1f84NkdrPun+UmKew7Ulb5Dhs6n6D9Jl9wPMlldSqHZepVTZ72W3Lf2/AEJ81i2Q6PAOOTZu02Zt1FuXbiKvx+VC+wLABZoKM//v6Ke8ltnKfvJh8xDIqaJbC4vaG8RKE5Y5omahRkuCbDfghq0g03DTjvQfeb4Thy20GzfHli4jqcq3mLsiKmKcNRRD5hWBnUnhiOTuBVg0ZlpW7GL1F36aeXfSYvvz/RngQ9LzVs1kvlE8LmoFF6LQjLvXzDNHdQ1FkHht1uPlvAMDecu/EmnzCMC2rfWj0C7h9Bqa0jLAmK+huvb9Qs68ozU1iv4+8J0xxRA6xezhP0xN5KlmnVHdA+CwrunWGz2pM+Nv5XUFifp0V9Iq9RPdtzV/UYEdMERffb4DSKgUYnT+tVT9B1k8+beE/84+D1bYriR0V73hU1j7aJhyULNDra26kob3DZzwCAOMgxj8SYROok85Y5eIp6nAK64KRzNCOWJgyyyDfMhJMUXS5xVZQZrIqbnBmza4ZypOBsCoSTTKEOVZhkuJp6plkw4WQKUtAzBarA+gzJLFhSMmikChXBj2GdWVWBkiT3HPEbBYID96TgTaGh/1gGrKoCBuxV6xqmQAu3IOijyZgbEz/UJpkCxezLCLi/QJkMi9F1SAOHtJLlQRVoSBZ1p6oKFHflosmVOTm/Xl1+aOJ5sEBdoM28lYyvFYbGaqaAvnYqWFkKBO6DoqelAIbMgnVJH5gCVpmy4oOdQjmmGxIquDruTqE7u7RRmBdbY1PanK8pJI0adgpZw8KdQr3YS6jQNBBbWwNOXO1H97uV/sJ0Z3qeKdTr0CdoLLlOHFMUsrMalMM17CFoc5kZUshu4diQtaLx0uyITw3eSJreFCiAbhbfiZlpZ87gWsERmZYHAsvXXOXDFMhULmqMfEPF2ll3KG8yyutR0xazoOXryRmBjHQXg13JKVCmu1cXCSS0rb25AxQx/DHkFZIqUK61T1cCCeiBDHtJDXZMRP+mICSBwSfO0JrijYFGYMG1x3UwgEIJbFMQ3o4pkJ8ejihjkKnRkLLDlPUM6p4piNs1hUTr4DbfQon0F8oZ7LyFobC9bQBy4mwaOtFDmybKbSk7rXQ/9+YbZD/oG7oWNG3/UqBrO0dqLaZAVsM2sxzRfgu5rsGuA6+9Y41vOtKhnXJyKAt5ikLFuNWMSnQKxCM0hfq4Dsu0EdM4nbN+U2DmwIKqLsfViPyc3UdHhMfTZX3MY1DW0LxBelQwn0Ts2+mqy6ZAttUUJCJbBE+a1qoL1xiWTQf8lqunla4u91kxIptVsaiFKxQkmt8XlNUywrIVWTxuvpaQpWkKOq0RMZBFR+LjWsCE4AqnXIabzIwpdFHomHK3kFCMQOWcwBx6gFZSn2Zp6LTWzEZgKDl10Tdp4abWOQ3k4Pa+ZfVOhTL4TE9dh1WJoW+Y+tGlIUN7egZRwdqTKQjlesFZst5Tq9Ml8RGdGvMVZo2bgizcqs/xX5BIIHMB50Jh4+PcN2QzC/wNwgzNlc/DdEVJzlUuBZklJt9NRzPJETHQdGz/HM6A6JmCFHrTxswMVwnvvHBDd2tqGN1Pl+tPlQ+Qs0spY55vOoSSEqZPpyMNr4I92dZ+YqqbQsBgfeU+hQY8MTJe6FkYRQMBx3QXNWJHAL6cYlIFquksuC28roaB7nRVpshVwdkU+C3632ZITgFX2n+DhSs8rcqMqnwempZCV82Dg5PohrQJTpIbUuVvSG5IVB1cCm7hqDQ1HQt6rQOd6SsF4oFeDglD6eYuUjGTdSkUVUD/4EpTS4HPtLLg9gr5xSFFN6SwOQ9+WnkdLo4or/TFEd0ouCH1zUdHVdhsb3GK+wMU3Tfsjqgb0sYI6Oar7FBuwc5bhc1feFWhyTp0zLdORwVfpFNa6X7FOqV16IpFzYtm9tMSey/mD+M4yTqs+6YcnEh1IDF32RSkcLRu8NJHD12HzZWCFcIJWXJjZqauQ9piIKVvDkzbTXfLJ4ctaHrcrRYZvwgHEhuBqbs1byjhropv+AFt69SaYm6YaokhKGTfgKArjS3OUibn3H62x4q8ElLjWGiU11rSamVzIqaykVb5ltdaEXXj7Mw8AfebrADxWhaSk28Y7EenYzgGjr6HAoLKdZrp8tI1M1Z0lqkyEWbZPhnSJjXocuv38u0zBaELVWY7LJwl14sCu5Smh7QxC2u5RbkglfgANa29trwLdTVFWzjZUjV30jYRU3Vp5sZotLqMK3NzZtHd2jauvaiXW+Vb/gtS3e2BKYPuzkdnzubMShfqfJfVFPTu2SYf6q5xmAL2a3GcwV44iHMXJ3pFPsWqBEkVhZ3WjBrf985u0d0QNgWsyDlj3Mc5DdcKQ2OBPrF0NBw3Z0P/HS5yHZHrx03bkoyExnhU7bMwMl6MHkUj13Hb8M8Usqvukl2yAcjNQRskVnezOpQ1DTSkfFFlpwM03D2lwffcRlJEvYjD9BeieqDBeTjbOdqQiA2ZKchemhwbLz5FUwUih3d329AOLRJhmtLtlx0hikd1fLt0+tVrheK4zBkzrsuSOh4wpZlXLTepAnY+CopRZkUk1xwJfaUuSGHoiduQbhdHqqsCkqqaY+l2tHzNXZdeCJgult7uGd4U+GbX4qo50i1hxeY6bq0qIH1DdMQwvmPd3G2kBTdhL9XpaO4T41YLa6VetkDOq7xH2q2eWfkGC15rOPLmVsPxQ7cajoK60/As162Gc9ZbDcfV3Wo4OvBWwzGOtxpXpGY63Je0aVK4JGYTKM0umXXH5tcKzV16mVjbztUxJicGsNlfSWEG8aLge747MerjBfWbAth1jcCZQLJoySUHls2EhVtXIboq0JD8ff97SfNaoTpX1JGks0qujq5Lm89f8ZvMZ1x3Gt0NE0yXTTekyneJhgtrOMm+rgY5hURXg/x5KOe/PFOQFMpkQLfqCEUVMEVYLu5DES6Iniue+e551nTczDxLrtvB5Pr8agcyVIHaBdzbnr6JeLFNTtQ2bJML+tHdULYwH3MuGqQMNhpD46xFOKYA2eGUxo0RtcPGYMZn0/j7DjivQwEtEWzgaFEKhoHBBJ6kqJm/d2q9ttqaE1jIjpynu2EaThv7RF5TORPLnMnlWQb+ftL7Fb3jDXrn1XpDknG8yiyhfPa5LuxIIGWEHjGfEZTuaHCLvIG/od9x/zhOdWM2mOsgZDiFLLu7w7A6EuD4hbO0Oh7g+D27kzsqqDw3Gvbyu44QwdUzCCIFPS+GBMg+uPlcPE2cH0n0FLZvDhOWsts/jnNJHYSCQvkS0UkGDZ8smif7f2tzeZMfm/Ero7PheXedwnPd2BMhWq3yKnackApD3vQA0yzB6lSJHXIkn5qZSezSR4krT1E7NiS+UeTsc2I6t0tcJu4AlhxpsnFjTUdLqEhFTa4PZ8H1TRqRrR5c6H9l/9i/UJzrbkMlPo9Zz0tKaH+y48VGpJ4UN//ciLbofN67BjyJr7SDHFNhqmY3DQ1Rkb3pvanYMSHVNBMf+b5bdwTAhuvbXVNB5mEOvScfC1NJNd6L3EjUAIAySTN3Eg0a4cbEEZZrrWwK2Iszul78Ee9+RnfxePWCZCAmXsMU6EZgdO3+eVebfFN5bN5RNIwY3GqyuJLU7vdd+1FKiK22j0nksS9c1Qlt3E7U1REb96lzlRxmYC8KuLajxb55XZPKFctpZnQ0bOL94I7xJj3i7jtssiNTG/Pt2wdL2IQXjVcYp+2MyQukqOzxjIyaFXZoO+nXsnLcVzC5bGrizjWur0zCKHTBfh0PXSlYja603TkRJnx7biZNrfbf+vwGts927cU38q59ecSsUZq6XhHXK7vGdhFL9Nl1GuLKcHb34DkKyu5We0QKzQIJ+jwAFiDcjXPu+7fa57zyXER2bK/AxYSunCHuGnb1vAH2rb14PgGLTBfPM2yKUu75hE2hzD0vgfIXz1dsin3ueQyUv3h+Y1N+fGk8V8+HoPzF8ySbkqt7/mQj755X2RSB3fMtKH/xPMxG3j0/g/IXz9vQHYP1fI4bD9iH+x3pN/KEqi6e/6F44Op5IWqYd/V8EV1avXoeieztSmLq/qes+NXzTkTT9M9HBcwi+uepAt608c9fbeRdp4utvH9OiXhKLk0TEHV2l6YP6K9Nvuv8UP28uwZzEbMW63k29dcUv/Wi/igiHulN076JGyA5RhM3mOxDC6oF/eNw9pnxxXBpr4pZ/eHKTo0bDbnn95jwvp4/FNrnjuqq1V2+uePwy3oagUjQ/v06zmNN/8AQh4gzuRA68sXl5PYog4bpn7zgXN8iLwZVIDfgm9VEfsZoJpeq4XeDLv8CRaLXCjwkP0u4l67WATv0JM2R798zVcpaQnczfX4qcZOU/+OJ1Z2C/cf9RdffPn769P1B2Lf/v74Aa//0/fXY/PN/AQ==);lineShape=1;" vertex="1" parent="1">
                    <mxGeometry x="942.8716247365346" y="37.97370155800999" width="56.455356131481615" height="21.89652151575343" as="geometry"/>
                </mxCell>
                <mxCell id="28" value="for(int i=0;i&amp;lt;n-count;i++){&lt;br&gt;for(int j=i;j&amp;lt;count;j++){&lt;br&gt;&lt;br&gt;&lt;br&gt;}&lt;br&gt;}" style="text;html=1;align=center;verticalAlign=middle;resizable=0;points=[];autosize=1;strokeColor=none;fillColor=none;" vertex="1" parent="1">
                    <mxGeometry x="-150" y="34.2" width="150" height="100" as="geometry"/>
                </mxCell>
                <mxCell id="29" value="matlab har i pe jaake teen ke gucche ko&lt;br&gt;&amp;nbsp;dekh rahe ho" style="text;html=1;align=center;verticalAlign=middle;resizable=0;points=[];autosize=1;strokeColor=none;fillColor=none;" vertex="1" parent="1">
                    <mxGeometry x="-440" y="36.84" width="240" height="40" as="geometry"/>
                </mxCell>
                <mxCell id="30" value="" style="shape=stencil(lVjZUlsxDP2avGosy+szpf/BDKFkSgkT6Pb3lZvxJZZzz4W3EKRY+znSTm5eH+9e9jvvXt9Ox+/734f7t8edfNl5f3h+3J8Ob/ppJ7c7uXk4nvbfTsefz/fnv1/ummT79OP4q/3Cn7OeI3FNybu/5y+qo1D/f/P1LP90eL6Q9+TzIF+YBMgHkjLI50DerctHKn6QT4WKrMtnSmmU9xTB71fKoz0xEed1eWaqo0HRUQIPsPpXB4UQKAWgkCiPIZVC0QOFanMmnoRBzpjKGCSvb0agoBaPUdK8cwEKmobRaS6UQVmIs05zpAp8EKEaRwUhD8IqaVLQSgWZltotXhQcReB08JRN78C8hUhhjGohAVkIhTiMvUMMWkELM44x1WYCOYi+R3ypVFioMZIf5aU393X53CfJUkXEID6x2iJyVEDCEtte1mEG4pO0hJyRZ9DJKZHzRt4h+dKff5dPIP5Ze4BNfAKIf5be5cusIwYtk1Ov98sOAA7k2uvloovRrCtCaXxBSzQCk8pUEpLJgRhVtgraFSioVceIAQSGw7FW60P2EAFVoYxp0MRwggoGQhQDGb9QDWjq6EAg5ZbKXDQSFdCb7QnjdSGPnSjGpgptUoU8JqI4OC5aItgqVATlakCcFLBJBjhVIeJEcLZOI1hTBTeFNeGwmhmTMwkYklcUMHBeMSl0nPio09ID/cGwagdtOB2SVfAbpeGtguAX8vQCwsIr5S29zT/aQJEcQJ/rPRo2njA25U2bzGSqEOGa11NDIIhuiZiaOuPMRdPUDEG0FdPU1HmjqT+nEKeVoULeoxjEIwYps0E+KMr5sVyV+qGlRHE0jAqywNgaUhsfGjfEXIDHWuIKG6JhmqHPgTJiJ0p2RvajbIPB2Gh0ydLnAGqv0bHxgQINanTPlB4VJM8W15fJuUZXczTyCEy0aKKJqPJbEKDGtw1/8zDJjdAbBYErT5xzFvqkXV1JDEOMkKO3wjcvYMLXlqpx6VEO6vHaZi4GbT9Gi2G2COrx0JNAbkycLtQVDD1Z9pZFQcOK9u1sfWg8GoCJ/p7Z6Nub6GzjOxBcTBjExjSIZpkMrtPY6wrZRilkyHK11KI5xQjEQ61+M1bjQiRWILfvy8ukj7CBykSVmCIaGeTH328kGrWPPXro4HfocGMX3FJh4bl+KlsmUoURnRbQRghAnU4HhgtSs6IQJoMKyNh8jaxwJXZ2HNUCD1vOdkHNGw4byKkJcouJ4inZQJgwywc4sGd7BPaY67N2kccIMseTN37/c9fjbXn98H6qfjg8PZ0v3Zf/t6dt/ep8Fpfbfw==);lineShape=1;" vertex="1" parent="1">
                    <mxGeometry x="-190.64418611039514" y="48.19649642407006" width="36.2167096860469" height="4.084802933296479" as="geometry"/>
                </mxCell>
                <mxCell id="31" value="" style="shape=stencil(nVfbcloxDPwaXjWy5etzmv5HZkIKUxoyhPTy99UpNUU6nCXpGyFarMvKu17J3evm4WW9ivx6POy/rn9sH4+blXxaxbh93qwP26N+Wsn9Su6e9of1l8P+7fnx9PfLwxQ5ffq2/z79ws8TriTqbUJF/nX6RqiHP198PsXvts82PkQTH4QyBiQH6BQ6BBSbUUzU8AmdbQlMiQEgU88WkCkWAGjEFpCYYl4G1ECSLCCTgJRqplYsoI+qrgJaoGqLztpoAYBKzdaQO0ldBnShaAdXlBqgS4GZ2OZUIzV0RKXeLaBRQIBAbAEtUgJk0jZl29emnY5g1OemnAENAnImtgBNMrZlgFKnBgvAGxQiVUum3imDUQf2dFUAmlylKLN4QO/kmzolBHoUSSyTehvsvRrPs4IrZTDlGe96gdvGg2Tn+ISZPeuPUAX1CrHrTxwzv86hweGLeAa/38blc0G5vx27nn+YJRSogYbqnV6izyihDmUqxbdIwBaEQn02gwxWP1RKbm0yrkFPmLEooj3TGtwJjQR3Kc/2TNAJ7MVWAQ20tXmiXtyxS0wK/gDEPJltTidGFVBovqcdbmZwHSqQqTxOvxgyknK9KVw+Z3+ydBO5eIH1qhdxmx8hhz4aLwqwA1B9guqhuz9TwAbEoLC/LBqP6/u6GLDXWBVlBimpxjrS1UQRrHLVPbRFTwYLsEJthBNltSIFAEoZXuhsdlRxgKKpF6r2wssCV1ndVrZdShWmlIP3CSlAEVQD6ADqUhumhiv6hg9WgLu0bzhtBXQ76RteXmuIDoC9jp4gzprD54jGuzHEoStLCQm7eMTtrB20IhKgs9ApO9FhKiCfLJ53PLzGktss1cVDPagfjO9e+HE+JQyFfF+9JQ7Nfl8/9W3HltN4XhrvrCPmw388f2/E64d/b+2n7W53eqpf/t+/zfWr07te7n8D);lineShape=1;" vertex="1" parent="1">
                    <mxGeometry x="-156.6291303516482" y="48.083120495754144" width="3.5014545056195145" height="7.390908664448627" as="geometry"/>
                </mxCell>
                <mxCell id="36" value="" style="edgeStyle=none;orthogonalLoop=1;jettySize=auto;html=1;" edge="1" parent="1">
                    <mxGeometry width="80" relative="1" as="geometry">
                        <mxPoint x="-410" y="160" as="sourcePoint"/>
                        <mxPoint x="1110" y="160" as="targetPoint"/>
                        <Array as="points"/>
                    </mxGeometry>
                </mxCell>
                <mxCell id="37" value="lekin har i pe jaake tin tin kyu dekne&amp;nbsp;&lt;br&gt;better he ki ek baar starting wale i ko teen baar deklo uske baad piche ek kaato aage ek daalo" style="text;html=1;align=center;verticalAlign=middle;resizable=0;points=[];autosize=1;strokeColor=none;fillColor=none;" vertex="1" parent="1">
                    <mxGeometry x="-530" y="188" width="520" height="40" as="geometry"/>
                </mxCell>
                <mxCell id="38" value="&lt;pre style=&quot;border: 1px solid var(--card-border); font-style: normal; font-variant-ligatures: normal; font-variant-caps: normal; font-weight: 400; letter-spacing: normal; orphans: 2; text-indent: 0px; text-transform: none; widows: 2; -webkit-text-stroke-width: 0px; background: var(--card-background) !important; text-decoration-thickness: initial; text-decoration-style: initial; text-decoration-color: initial; box-sizing: border-box; line-height: 1.7em; padding: 10px; border-radius: 4px; word-spacing: 4px; color: rgb(165, 165, 165); text-align: start; font-family: urw-din !important; font-size: 17px !important;&quot;&gt;&lt;span style=&quot;border-color: rgb(0, 0, 0); box-sizing: border-box; line-height: 1.7em; font-size: 18px; font-family: urw-din !important;&quot;&gt;arr[ ] = {2, 7, 9, 5, 8, 7, 4} &lt;br style=&quot;border-color: rgb(0, 0, 0);&quot;&gt;&lt;/span&gt;&lt;/pre&gt;" style="text;whiteSpace=wrap;html=1;" vertex="1" parent="1">
                    <mxGeometry y="160" width="250" height="90" as="geometry"/>
                </mxCell>
                <mxCell id="39" value="&lt;pre style=&quot;border: 1px solid var(--card-border); font-style: normal; font-variant-ligatures: normal; font-variant-caps: normal; font-weight: 400; letter-spacing: normal; orphans: 2; text-indent: 0px; text-transform: none; widows: 2; -webkit-text-stroke-width: 0px; background: var(--card-background) !important; text-decoration-thickness: initial; text-decoration-style: initial; text-decoration-color: initial; box-sizing: border-box; line-height: 1.7em; padding: 10px; border-radius: 4px; word-spacing: 4px; color: rgb(165, 165, 165); text-align: start; font-family: urw-din !important; font-size: 17px !important;&quot;&gt;&lt;span style=&quot;border-color: rgb(0, 0, 0); box-sizing: border-box; line-height: 1.7em; font-size: 18px; font-family: urw-din !important;&quot;&gt;arr[ ] = {2, 7, 9, 5, 8, 7, 4} &lt;br style=&quot;border-color: rgb(0, 0, 0);&quot;&gt;&lt;/span&gt;&lt;/pre&gt;" style="text;whiteSpace=wrap;html=1;" vertex="1" parent="1">
                    <mxGeometry x="270" y="160" width="250" height="90" as="geometry"/>
                </mxCell>
                <mxCell id="40" value="&lt;pre style=&quot;border: 1px solid var(--card-border); font-style: normal; font-variant-ligatures: normal; font-variant-caps: normal; font-weight: 400; letter-spacing: normal; orphans: 2; text-indent: 0px; text-transform: none; widows: 2; -webkit-text-stroke-width: 0px; background: var(--card-background) !important; text-decoration-thickness: initial; text-decoration-style: initial; text-decoration-color: initial; box-sizing: border-box; line-height: 1.7em; padding: 10px; border-radius: 4px; word-spacing: 4px; color: rgb(165, 165, 165); text-align: start; font-family: urw-din !important; font-size: 17px !important;&quot;&gt;&lt;span style=&quot;border-color: rgb(0, 0, 0); box-sizing: border-box; line-height: 1.7em; font-size: 18px; font-family: urw-din !important;&quot;&gt;arr[ ] = {2, 7, 9, 5, 8, 7, 4} &lt;br style=&quot;border-color: rgb(0, 0, 0);&quot;&gt;&lt;/span&gt;&lt;/pre&gt;" style="text;whiteSpace=wrap;html=1;" vertex="1" parent="1">
                    <mxGeometry x="530" y="160" width="250" height="90" as="geometry"/>
                </mxCell>
                <mxCell id="41" value="" style="shape=stencil(lVfLctswDPwaXTEkCL7OafofmYlTa+raGcdtk78vVZWRSapL6UbLWBJvLAbz8HZ8ej0MrN5u18v3w+/x+XYczJeBeTwfD9fxlk6DeRzMw8vlevh2vfw8P8+/X58myen04/JruuF9xmmlSKkJxupj/qTIyd8PX2fAaTzfAWIgKeUtaQPkPbEp5HV6EQEcmVgCDHkNAJZ8KAGB2EGAkQLAhkyAAKVLQCTFACC1SiZ5Cakk5MoXRJNFRgtJ6SXxFPELddyELIqD1F5ymrSHAC5Vcp4C9tK/MGWAlxz7/wLKXAqKLDaaS7cG17Wh9FJUFBQE6NLo6Qrwgs7V8ikfYe4ZcrGW10BepwdUDVDAAmayZa6mEg/AAuMomhrggUqWydkGAMLmAqnYqARsCDr3rDtAROWjKYTGSyiTPPkmbmxhn6zdGkkQIOW+rQEOAIIl8TUgAKM9rxgdQa+3qaWUuXQ3LlYRwnXkegj2K/mKlNKpbfEes22TG9ivmqS5HwWOiRuvoswIKx0ApV6aZqaKM05uoylyDUDlk0ZH+wIsULNSoKgFeE/SFChqMuHTxI1tbKINDQA1ykWBjZ14N8DmtNw4GmwO0sbZk3hPGYTOcEvypf6d6Znky5h1xrPNNG3j/E+FWY7/DsFI8rsYjM0MaiNFsjXx7HAwS1yWWYfkCcXy/g6LlNo/HZoqtT4dHmxqztkh2lznT4fJ6yZecFPYuYjo3JQXcYHFWM1vlent+u0NK1KZSq77pjFWkUY9mnMrWOQV0EcMxVof1A6ty6HZJu8afoP18WkN1DvsDWkA1Pcjfy6tclu8Jrq1Jx12770bAOmwrNkv4+k0b+n3/9drefo0r/Tm8Q8=);lineShape=1;" vertex="1" parent="1">
                    <mxGeometry x="91.64320033247759" y="219.7621299954971" width="0.2979129786509523" height="23.281266635366006" as="geometry"/>
                </mxCell>
                <mxCell id="42" value="" style="shape=stencil(lVjZctswDPwav2II3nxO0//ITJzaUzfOOE6Pv++qHioibG2aN0XmCtdiAWYT7l53Dy/bjXev59Px+/bX/vG824QvG+/3z7vtaX/G0ybcb8Ld0/G0/XY6vj0/Xv5+eZhOTk8/jj+nL/y+4FSlugnl3Z/Lm5zFl39vvl4Ah/3zApAltOF8yZLa+vnJQB4NRImOAKpUPwBSkkws+CJudCkGKX4dELK4OACCk0JijlHa6BKcLCSGFETDAKj9C7eT6iTpcN5LSuQ8Qi7DeSeO+FOCJG++74k/pYlvxn+t6+drtOe1iCoB1CuHquSwDmgqrY5FVikMEKWMANAokCK3ItEQFUUjFtTNSe8IGPWRmGjSRhMtSSNpAiCPTJ28ZEE0UeMSmJoJoPakzIDGC1EkjS4t8nAbkXv7LkxUZmJOygKgHGDoBy8b4SvqVA0AKsZiAJuSLXUlHTr9PNKvQROIik0xGIBSjQHAxuB6aVbrMLKvflCHYlWpznxcJVO0gMaCbuKqjYGmdSbnDPCcGnAg2TpkQo1bXQ3hYC3UrNIg05R9TcJVk1JpgjaOajl9guW12Bk65YFzo13JwAcAzRYQyUhBEmO1QUemfbFTZ9HUjlmIXekWhfvAwicB3qpA8ZLZmGt2aiVMVsLvWqySRb5eYfLq2KMh9trfBri+WcyTFwBCPux3puUw2z0JGjkJowXsgI0oGbaZYvSebifZ9xy+jyC6LmHym9GumRY6QvnGumHvVdIOodr+wRvWodg4/SiVCXLPtly17YA9mgE02Q4tALCWlmh2Vqzu5Hzq82w+z0fila6Cio5F3MffHDBEj0h96YI1ZxSySYhdLSlSoY2AWXV1PtB8GlbjvLKLj+tjZgmgo8pSAoBEIkAfpmxTxBZW9V1xF/qlZBYCYGLA1YZdJwEwLmWlmxgA2dDC9yvsGsAMHjSO4y75sXA5UdH+9B36PwB4eL+yP+0Ph8uNf/m7veLj1eXfA+H+Lw==);lineShape=1;" vertex="1" parent="1">
                    <mxGeometry x="89.63028088509077" y="219.04664733875376" width="6.544658989450909" height="3.3230787603212635" as="geometry"/>
                </mxCell>
                <mxCell id="43" value="" style="shape=stencil(lZbbcsIgEIafJrc7wC6na2vfwxljzdQaJ9rT25c001ZA/zR3GPnYnz3S8Oq835zaxqjzZeif2/due9k3/NAY0x337dBd0qrhdcOrXT+0T0P/etxOv0+bcee4eunfxhM+Jk4rRUqNmFGf0ydLzn9/eJyAQ3e8AqIn5bL9RsgrAAhFyQAx5AQCPuaKIgkCmEzIgGh/RN4GNCmdAw5KCkJicyBAC17I5HeIkTQAnCYbSiDwfUA8uVzSVShvEswUKxMOaDK6AgLUpA1FkwNJpQZuIs9lHDQw4CpBQhYJUpWBJDECIFRh0NhHsbKgYDkIl/WWAA0kWV8lKwa8qsoBSwqaxCy5dIiVBezWVKGqsIADl84zeZeZyYyQvFRImkm9ULkVJ7dzFYDLxxriPDVmKzSQVCaQptSrvSoBbUF+W7JS3loBIFQVhzulI18EGrfipfstmdxDM7PBltNqZviYcljNTLeF01OXc0SIwem2bC6/dXSv/xbdS1MIsMG7XL2iCNRzqkpf7Gc0o6qJg/PfphLjBftdNT+wHl/VF75vairCC/yZmlrhHxyvVHt2STosfqz9A0iLv7fhrjscpqfl9f/lWzJ9mt6hvP4C);lineShape=1;" vertex="1" parent="1">
                    <mxGeometry x="87.986828282862" y="247.93748525576956" width="0.33484884391854347" height="2.931439197937643" as="geometry"/>
                </mxCell>
                <mxCell id="44" value="" style="shape=stencil(lZbdUttADIWfxrdnpNX+XlN4D2YIjYc0YUKg5e3R1mOIlkSd3vnv88pHR8c7yc3L9v55MwV6OR0PT5vf88NpO8mPKYR5v90c55MeTXI7yc3j4bj5eTy87h+W8+f7/mQ/+nV462/4s3CNUEKnAr0vV2JCan+v3C3Abt6fAxmlGCAJWnWAhsoGyIKaXSCJAUoEeyUltGyAqis4QG2IFmiMFh1AVbIltYLE14FCyFYlJgLRdSITJNolGtiRKRGq7ZzqQE4jooBtI2oFO4BUkAVK84EMsrrmBhIHKGMjUkV1VIphXCGqW5zO6W1pFggITklaQK4G0CKzs0KuaMkCGSE53lARrZlU6OB8dG+TXUFbGfyBoGFG6V8zykPjCLFcB87c/OkNWoPh8hI6MBbQofJa3UdysGtbX3FZJh36YUg1GJySeqzYkr6i53KrBeXbjFYnBjQa6wBofHozmhCHoVZZHTN1QP4HkDima09Dx0whrm7+BBKyE0yc1rQ+i43ofHRBtW4tDHHaEMYwzrym7cXn1ar2AxKvKXLteWuLSODg1ZNsYgRfUc0TWz831xQcR4GYkZweBxmBBHEmRz0x/Bm0AY6garpBofHfpgdfO47HebdbNizn98cdil5adjdy+wE=);lineShape=1;" vertex="1" parent="1">
                    <mxGeometry x="88.76457103320627" y="242.042495180691" width="0.6617428263782705" height="0.6637728320011225" as="geometry"/>
                </mxCell>
                <mxCell id="45" value="" style="shape=stencil(lVjbchoxDP0aXjWy5etzmv5HZkIKUwoZQnr5+2pLDWt5OSFvu14dW3cd70oe3jZPr+uV57fT8fB9/Wv7fNqs5MvK++1+sz5uT/q0kseVPLwcjutvx8P7/vn8/vo0SU5PPw4/px1+n3EuUkkTyvOf/ysU8r+Fr2f53XY/l0/kuJOP5LE8106+UhAon/r9nSepAJApGQNUxQAAlZLrAJ4pARO8J9eboDbHAgCqQOwAwlTcbYB+zv0JkiggQKTsO0BwVNNtQFAFereGTJEBIFLNfZyF2N8GREfOAAoJiEOMFHobkpAHKsVK0tuQMpV4G6D7GZXyJZTLgGSNzjgO2VHsk69oKEF6Z/W69IBABeRSkeGESgyMrtUCaiEPbHDMxGwRCRihR+TeCF1hkH26Xy4WEEBu1Ew+WUBGgEjiLaAigOaGaRtXPywjHLEbjgAVoYEyrXIyAgFyc/vcTUClkijHIRDohEQx2FBHUBGqEkcLcChfS6vhCyDD3qdeKsUCIoqca16fAdCEqGGIgwKADTXZhl9xs9TPdbABpmttQ3PmVkYqaaqJBQRktAKGokbZqgDTLHVFEEDjOpRcQp0pDX1GY49skPZ5XnEI4CiPJQoakyZfHlVCFVdao5sBIq64OrjVAS99GpCZXB+HySqQSymQ791aYiNdy4O32GwtrvXnZYDYOOgcLYgLMEnfZnRSI5VCsqmRVElwQpBWXzO2kUDgZJhZ6gZI4qQR2xljCogmai71blVOhrJViahxa/CNQ93ixqFPb+WVBZygXNsb5uqgW7UvGi4dW6NadlIbyjPujSqabTEouRcQhIHKfHB7YKs/vp1wGwP3XX64DYH77lbcon8Vd4i42ZsSw7LXggpGHA2QYD3JLTWWK7gV01Wcwe6XiT0TRwO2Mdj7xB3beYy1cX50JTLWiY0U9qVesgdnolCpfLKJAzPhs5f4D+X14frH4GW7251/OMy/2z8MunT+OyGPfwE=);lineShape=1;" vertex="1" parent="1">
                    <mxGeometry x="88.02761811229584" y="245.57368550709833" width="0.8920096216336941" height="4.56358348754432" as="geometry"/>
                </mxCell>
                <mxCell id="46" value="" style="shape=stencil(lVnJblsxDPwaXwnty7nLfwSo2xhNkyBJt78vCeO5JvkySm5OrLEkbjOkDvnD8+3N4/GQwvPL08P34+/Tl5fbQ/54SOl0f3t8Or3wp0P+dMgfvj48Hb89Pfy8/3L++/FGVsqnHw+/5Bf+nHEjUYyCSuHv+T+B8vkfn8/r70731+sjla7WR6oZrg/69zPlCdYHavr3K7UC15es1ndKA65PVa2fVAJcH5O+b6TeICDoA8UCT9QnzaYBjSY4kgC0SeOk2iFgDAVIabPCqwBtJPZCwEca+tLsBmQlAWiz5kAV+FkAJo4yFRCoAgga0CiBSN0BzM2VbwQUDg3shz41oMDg2wE0GiB7dgCTcnoPoHI+v2uHmqm9D1A3378VMCigaGWb6JLROMnRkRJ1HUstUQVHanyAogGFOojWlinqfGic0yCW+IrR7MDBB+7AVo86+HqkCADF3aFffmIfkGjqqtH50uAOJdAwOzSKwHGcX9PU7k4FmJUB1ewwqILaKjvoQsbR1UDV4Ds0DRBCQlaKthgLQ4IjsVmbvjRTMCoCJVPQ/DCYQoGVyuXrC6DAfOAjde3pUSkjTxebQKNBx3HwRWPWvhl6P7zTpkIugAFJsTYbfJOZGzBQ4zqnzTojZeA4zuCiM24mGHyckFlz3MwbEb9WyJL2w6wwgTj6swE0qK44+q366ZsZXpVXBjAgoBarNeaEVqrdCjgGFMCiXKtDtQDouEGpOwCSDpVKsgCUQJzBvbkdkKqcG99cA0ACzYv+urYSoCx2U3M7II6LIexs0UAV4K89oINw5Ut0d6aBAKwJ3Q6IRrkyTg/AKdc04MoO+9HEjnK+RltwvE4XrxN4ojqmnhd5vQ+oVjyIIxCgUHVHQrTI1TW7HSqyUrD1e+I+i6tr8CmE1LeTJ6skDTt3gIDuqisW01zefWigcjy7VRtiJRBL07Uc4jhgVnHTtIAOPP3/994IYC2QXP1GpFW8lTClMMA0BEJagCFYz5hulGkR9Yqi+gygQjGdq52CsO8n2IG7W0vtaSvQuwBpuE20Rljw47QiTgQQuEPkIuAlFqr3TpJ12PkVKx1EJAK3BVuUFirU8dVC5joXLHR0sGy1EOpuMrboBLzqxq1Gtoy+6mVsnkmzhNJmI+/rbgyxiJ3USbuHKrZrD3lHZM+0zTquOtYALhA7TbMD98QAkByHSNeNALyDGTU0nPfJzSZwE527zQKZTeAGtGkrtQDnjVywTYVfzFd2AHiCswPAM6IdAJ5CecBizrUDwJO0HQCe1fHXhmkX00APWMwbdwB4oikAHd6LmakAdLQuprLFCcnF3FcAOkUXk+XiWGoxuxY36UsvpuMCMAN7PH8vrrAuJvwikcybCX5DYIAV9KsRkXlCwI8goqg0leBHFpFsJpCgrpXRof59/EjE6w0140coEXjNrE+LMLXrES+UvgmJq/Vo+BTs0CPAiioNW7brQfWqTvYvelRXvJY9bbL2QedhHq720RBO6LsdVmN7+uck7K9xCa+3xcO7Hz2X6/nD/xfWr6e7u/MD7fX39kWW/3V+zc2f/gE=);lineShape=1;" vertex="1" parent="1">
                    <mxGeometry x="98.35829292479843" y="220.77662869690027" width="0.31064075424277526" height="19.79385715897454" as="geometry"/>
                </mxCell>
                <mxCell id="47" value="" style="shape=stencil(7VrLchQ5EPyauVZIKj3PLPwHEZj1BMYmjGGXv6e0E+pppabTcNsDN3umsqV6Z1XPSd98vX//5e4U3NeX56dPd/+cP7zcn/SvUwjnx/u75/OL/XXStyd98/Hp+e7v56dvjx8u/3953yX7X5+fvvcn/HvBqRd1HRXcj8snSUr674N3F/mH8+NePkj0k3yVGKi800ne2xOUALzENAOSpEgATmKZAU08OSHY1/MJIUgjOocisc6AIo4obTYEHUwrx05QCbMOGqkbgpM6u02LNHIlXyXMV4pOUiaAJJpnQJDCTlgiI0ZJ5RjQ0EgxS2jH8lnKrHIsUv2xfJQM9zHHVxJIksKcCRZZ5D6KYWTyhdwn4P1NvhIPBAnLfRpJBC9FF3mSB15CXu5D5Ldvd/KZ3H/Jy25P+vzgUd4Tfd1IqZ1/WTyYvEP5SOLT5AvKs7ri0J6xvnKflFA+kecncXMVipaiNL8ayHtpRN4yvkHVssLnSICGod+uzLEMsFINzaArxVKsYExYHXMk5qKOGrUBvCRygvlU5ytlUSKfFLPY0prJ51GWh7wlDXFCdthrtrC9LR8WhcWTKp11xMDmM2ms6MbR3q/9PrD7RIw6r5Qg5IRlxdo380AuN4KIEYRcJUOv9LRXFjfycAOY0uSEYokAqRxFSaspCaMubX6/DbBWN5s1GU8jiVAddleLLKZDVXFzqlmo0BPSSKwNkEcHug2omMyZF9RmHWeO1eKH3W4DFDlLUWrWtpHdDZBouWgF06fUQaBvA9oooVv++MFLjgCQ0GZo1ja9Wxpb5UTHjgBmYYarDJDRc/YIJbFhdoUqYIBMos8AWRFQCQE2wHol1t1aRFfvDHeE0PUI5jodfGsHKExrlZwQQOPVOKpDAHX1CqiUdPYrRQQk5ggdNtkBGI03s4aGAM/MGpHYGoCNXxYbvi6AV6Jv0cHz6GsZATQh8uiaO0BmpSzjXG4Axv77CXClNj45AgC/NQCbCNvWcfbhzTy9jJA9gZgOEWPpF3I0LhnEZnkDuAVQ2Qm6RF/jY60ie+iO4Dkal3BtPEdTQUDmOfqbgIz85FoXjgBQ8K0HKUvqPDjbrs0l3oP8rEMNY2lyGExznSlWXLlZHQD4mqfzk1mHEmlxrRVDw5gjG6HNJtBRjJsysxqLg55ldLmQ8K7bDL8B4qDLR0wUzJr5WqIsVcBmIlYrzSZQZ5KnRcBsEmYrGf1mfMZsAo4zgs/8sA4pyoPPjAjRGhJdruRlhLAxKJPgyx51sEGLEUsDwP6gUl7ZJ9GZJfJ1XqqjGVwn40AUSEs7iWOwuy3vl+ShxCTmkby7zTNbYOrW/nYuCGxVvWw8+/KAbW0TEm9VSn28uWgJVNYaTEUYyq4bkdu5gx03FqrCnyXpnyXp/3lJ6pC4mHwm8RnGbXfxzwaqiLQlJkofy3KfOIrGwTSP01G0zkAS2Ko+dJroqQY+4SrJCh9bVvUiBPuzTHeG5gSo7MpLe18kQ5lz1ErmBjjBKi8bnHthhlIdaN3q7/xmP5gZ6Bs5GwCh3STaPULFGdKKNxucQ8OXhHWQ7l+8UR4fHMlDbm4T4uHz8dUxS+Xrm+KrPJs3Q8WdkDFJUuq6OfA+nj1/WYMluiUw+QQvVOjGqb+AQYLDerfFvC73YXzF4fYo0dKrW2fc2ZOULvXDfDt/sbc7v/tTglfl7Y/r7xY+nh8eLj972H+Pv3Owjy6/kdC3PwE=);lineShape=1;" vertex="1" parent="1">
                    <mxGeometry x="97.4255241205467" y="220.09915333554403" width="4.199932724324674" height="5.980090238265757" as="geometry"/>
                </mxCell>
                <mxCell id="48" value="" style="shape=stencil(lVjLbhsxDPwaXwnqLZ3T9D8CxGmMunHgpK+/72xd2SvKHjQ3e3e4osjhiNQm3L09P7xuN17f3o+Hr9ufu8f35034tPF+9/K8Pe7e8WsT7jfh7ulw3H45Hr6/PJ7+vz4syOXXt8OP5Qu/TnZOVVQXM6+//z0Sl/8++Hwy2O9eVgatSXQDvklg+CqujN/PopEYlL5+N/AqMRCDJCWOBkkaMwhS/WAQnJRCDPB6jFEoEvW2QW12DzGI88QgS2mjQZVK9lCjXSElUbKH6mzeshNP9lCq5DFKuYgnK5QsbsxD8T3Q1w1ij8nZoEgjXML3fB0MqucGKnWMUsUeiEsZZA4ju1WaIwZF6rhpsKuwFbL4MdMN9cBWCBLMCohSu22Q2mSAJ4kYRElGAi6qcNUi4oPVLsFKDvRvk0+OkClANpzddSKbCBM3oAtKDHzuQTkbOJpqyFAdXaqcrg4yNMa1BqozDiuMLhUEmuRBxZuaRtESamhn2grPmAH8WA2ZU09tDoDPJELaS2WFD+T7ToKzeKZhSOjkD5NhL7lMeEa6a/4Q/6eDB/jEysaK/EVubuCNtiC/jvgT+9sVPpHvw/9i8ZXHx8QfVU/y5aUki/eEP140WzyrF3fFH0/iD35OeKV8Dt7Gp/B6TBYf6fdNr5bPMnkD7yY+MwHSLrErfGSC1bO55j/hg5vyi/oi8fcSP4QP9tBY/KH4ud4jrS+d40nr92N4FyWPhEMXxrpx1+yJgY6IVTBcMilA6xkrCZHaGmu8NwhpOupR1mQP0YmakztKZd1H6iRetVCsDNCu2CYt0xVSlqyTAQlrdpNLiU456OqSCWug7UpOfcxa5YFpBRrNNoo7Ml1JphftGU/7hUtEvdBd+3HT6N8TmxB8V+fVhBCIS5gQzFiEXdGR4uzA2UA74a+PRWpdQjecSeKWiWPUeExqkZCvJnsoR9+r/LpBsacOpk0lm8a0aaYczLNMxpZ5dtRJTMyZDcDBCtlytBBqwMCQD80wKyCUi5kFG+2kgDeJhopwfB51TymRgK8Wz6i9KFAxeNZZA5+qwTtCCkw/RoaVdiLLtNQsnijeck3jLZ6wGvgcLZ7532yroHQQX66ZrP/sxgX4YuOZ2R0Q5tWJD2zy+Og92X8Y4MflWu5pt9+fbvXW7+01Hh6drgDD/R8=);lineShape=1;" vertex="1" parent="1">
                    <mxGeometry x="96.70617659553955" y="244.69773230771096" width="2.788462584451691" height="5.476481080944066" as="geometry"/>
                </mxCell>
                <mxCell id="49" value="" style="shape=stencil(fZbLctswDEW/Rts7AMHnOk3/IzNxak1dO+O4r78vVY3UgI3vjqJwSAK4ADnZw9vx6fUwBXm7XS9fDz/n59txsk9TCPP5eLjOtz6a7HGyh5fL9fDlevl+fl6/X58Wy2X07fJjWeHXyqWEIgsV5Pc6Uyua/Z35vAKn+fwekO33BrSI5fMeECPM79AqRO4DlpHUAw2NAKHCyggUBgjK4ENBJE5rRBx8MBgDBBJ9WAsqiVKFDmlQxMbsS3P2JaIRew0Q73JuECVA2fbfgQgtJKgRaQC6VCrJcxiB1NNGgCjIedwhM6Cg+SxkQybCSLattwOVijsVhDLmQUiUUtdq8okWpEiAvMVkB/Lm1cdAQPE7tECdjhl5KB++gzWoP1KvNyZWU4hPnIrQHhAM6oneNCIBNMPC2JYqSYQqwlChXH19f3+i2sWSmP2ojALlLWPQXhHa9j4GSEnvytzFrUjEY0H0EUo9ZpnZi+9hvWATiVAYlW2y6eRORLO/F5YTsgCVUUS9Cyo7UO8XXkT9diQa6v4F74Eis9I0JL8+r4KcUfNgzwqzNCTf5Pu9RbpXE1Sfsa6pwC4F+S/HOl7mffDvsfEyn07rW+X9//Fx0qfWh409/gE=);lineShape=1;" vertex="1" parent="1">
                    <mxGeometry x="98.7483249965062" y="242.5634481410765" width="0.32685351339075014" height="0.4082312587722741" as="geometry"/>
                </mxCell>
                <mxCell id="50" value="" style="shape=stencil(lVjbUhsxDP2avGrku/xM6X8wQyiZUsIEevv7ys14E8vsWXgLi87ako6ko92Fm9fHu5f9zvPr2+n4ff/7cP/2uAtfdt4fnh/3p8Ob/tqF2124eTie9t9Ox5/P9+e/X+6aZfv14/irveHPGefIhwby/Lc/CO7/g69n86fD85W5Jx9Hc0eprNtHYh7s9f0pr9snSuN1vJCv6/aFYh7sQ6IK7lOp+ME+Bop+3d55CuOFkiMHAuQS+TQChDICCIU6AHKiKCAFGsHxhKJPQIw0CWU8oWQSlGSxWRNHMawDgsZkPEE0keCEECmOPkglxwBQqIx5qI4quFJkqiNTa6AKMh0jeTcCEgVwpVgoj07XTC4BbmtpZQtAUUppulKmjKqnWrYqoIAo5WC51ADghDznQQGg4JSbMkUJAhLJFCUIqL1crgGggMRTLp8CJMtWBXiQadEojQWkXPIgD8r+ZADalyLoY47Y0FufgCZQp0amlxR0QrBhldC9eh8QKY8nFIF9SWNi8lA8zPSFzEurzDhKQjL6kDwcVwqo1QJQu6/atqb5AH2ofb5eAWCUJmo0AGCrArJMV0JRqiTBOs3YB9NbW1jRFGW2EyWFTuDVI6oFbISpjpM9xa3MCVtAAjXa4hotQDDAiBMFVNA2FODLBNhg3+RDRtxQfk9XQnqvVVCxeYBOy0SmABVcA5greUxX6UG8AqBurFHiqSAE89tqONd722qmowUgmdu45KcT8JWMhlNA3SggZ6MU8JXm1icA8H5RR0xXm7mw6cTnAKUL22VCFFxyi9xZZpAWBKqgZEe7MB4p0fZvyX1mrA1eZ9QGU0E+LANkAeCiVrUxSyzEviYVjGISuDY1+T/y+9IMP6jJruj1Qdm3iZiU5SZiEq9biHf08VJXH1XgCgAEbBp/Ci2ieNsi2AIEXKntKdMJaItom9B0Auo1umuxcVr5BK6k21wxm1DpTX1tX4zGh0SMVtj5Sqr8AMUD9ym11LX6AIrIl77sLYDYNfna3u5Nb9KxATLtp523NTPAVlfs55AscItw0fqQde1AQ8LZRpDwB5dJb8QEP5/oBj26HHDDj30uL/ZMDmXNTiCv7RlMINeV89Ix8Mah7WSMj4ecmEauqgCQYDV3xhx1Ye65vJgjkc49Et2c4RRhq6oYNgnuc/hijgLPlmhLZFfMs3076utMMr0d1Albma2+g27lrEDlPhRWzF0x5ogEn/zEu2muPy5fkx8OT0/nj9HX/7dfn/XR+ct1uP0H);lineShape=1;" vertex="1" parent="1">
                    <mxGeometry x="100.50414882835616" y="232.9888274678874" width="9.864653590878339" height="3.389751974114975" as="geometry"/>
                </mxCell>
                <mxCell id="51" value="" style="shape=stencil(rVjLctswDPwaXTF8izin6X9kJk7tqWtnHKdt/j5QNUxMQFrl0Jts75oAuFiCGuLdy/7heTcE93K9nH/u/hwer/shfhtCOJz2u8vhKk9DvB/i3dP5svtxOb+eHufPzw8Tcnr6df49/cPfmeepjhMpuLf5C0fO/fvi+ww/Hk63cEcla/y4jp9+jgrvI8AXigbv1/ExEieNz+v4FCiyxvM6Pi/kG0A8uVINGh/W8aVQqRqf1vFjtPuF8NVR6uvpYb5V6t/HE6iC/WJP2XX43AJcxmedr/eUQEG5Uu4L6hlmzEzcVyjIngCCdx+Sb4zIrWprMdU+CZHJCLqGR3K+IxRPjLLOWqZjoIIIiXzpCNVTQSFJAP0KXCgBZXCg0NdVskKtLISYNQFtxLRC38vT5iOC5KBW4FaGNUJiTShoBUccNYFR0o6ikqvDjlqZxqCXQC0nhOA0IQHPqyJXr+vKKCQpO2tCQCEJwWgjA9sTwqi2umwl7Z0mBJQ0mxwydjI5CKomwJZzVJ0hYK+MZgVolnI4F510RCGFZu43BOgzSz0KbUMIKum6FZIrmsA46aII3M6YNYK3DYRcwJkjZbtH2eslUF2FEE0SqK7SEGyS8P+TMMm1J8hswNjwXd+jo2/D1jIhNvnfnHJoGBP5pz4kOUdRU09HVF/WiK1vIvRyDSImpI2s5SoD1kYHlb5KPm0ZU1Ed1AS/jJci9d5a2kYuT4isD/YMdTFNlH3GCR7rdmIVPFCFnYgTFIWduAUP/MJO9AlOuPbGkOCEbm8kggf7ZW88WA/2RpWaxS7j9QUgtVNlBZ509ZFdez0Kp2aui3CJvf/3CLVphqMI5+yPq9/nXYRB5c0YH6A3GLhvjvq1YPC9xaTqoHeaQsoZhUSjY8e+aUTgmst9TWIb7wS24PLw+frh6XA8zm8vbn/Xryvkq/lVR7x/Bw==);lineShape=1;" vertex="1" parent="1">
                    <mxGeometry x="107.68059734538951" y="234.2473041146173" width="3.298121719277641" height="2.8439065502260363" as="geometry"/>
                </mxCell>
                <mxCell id="52" value="" style="shape=stencil(lVjJUltBDPwaX1WzL2dC/oMqTHCFYMqQ7e+jiWvMk/TcD27GqD2jraelXbx5fbx72e+Ce307Hb/vfx/u3x538csuhMPz4/50eONPu3i7izcPx9P+2+n48/n+/PfL3bAcn34cf41f+HPGVU8uDVRwf8/fOIru/xdfz/ZPh+elvaPmhb2n3KF9kb8fySdgH7R9ohSBfabihH0hj+7TqDdh3yiW6/YtUJb38RwBcEDj8+UBPlIDHrdOrUpAJZ+vA3qkLAGcswpi1CsFeSUOagkA0KhlCWhUKwB0ykFmOZJrENBk2mKlBMLKgC5PSH7G7SpARilxZlCUGNAFIDsK/jrAO0dOOpETPGINUWc/fRRRPKyONUSiAEqcs92jBHDBgIrthaIEcJd74AVXrJO54DavqOsaJQXIW20aZHnUSh3xTJo0ceEBRxmcwEFUTrcImSZHqpIpG3MVAKQLT1wA7ANIdeSYyCgxl3TQdeHSYxPQPXXgNBOLKg1OJaIaX8jJPPQ8yWcdEDT7cXVlwE0+6fJmeksgSiFQVE4zW6Eo8ZWiBhQMSE0DKgJ4nbjeIZn5Pvl6AUDlzU9I8gYAio/Dqt7FBZFcy1w2TqDq44czJQMAxdS01BhRAplmKi0mDaC668zqMs+IZCjYQkLESsXUUUJZ9vPnlgD0OkTTPH1W1rX2jOZKENComBMSqApmjJINAFFM0G/DiCru52oABfQCA4rJW0UnsLIw3YYkHDsdbCsgEmv69dnqnaz10mZ7RoomEZABWFc4A0A6dKUdGvChkbNpQEr6k/Zu1tnyYQC1bXQSvzyoUqPJWYb6sM1BZ/F2FqTcElVVdljijsKWgDFLgAhFk+J24cx1SeKmPFhqGFB12c/eXaokAGA1q8qUdRgaBAoTlgwrKz3kNCvHbLUkaE6+gJdXGmoVvVNRKwzWww5VdtajxlDc6IRKTuZhQ9OvAPDYMADS6Y3JZAWAh58BkInbmK8GQL7/GxMcj96qWjdmRAYoxc1TaAbVygC1DdiYcznT6oUekzQCpLVZHa0PnL7S2AYg1VPMBqeSB1GqFxeXGw0AGC2qtSQUeiXP/npfyiCRUcy0V2D75K49SPBlyMVsJ+DSiu2V0sNLMbZXhIGXbuP3vbKH/l7Y5N3eg5LIbcUe3adroeomGVwjeR+0PWDgYiYwrHWYDNUScMOe46/jCe9Tp7D5oL8sjfR9UDz5ubD2qIWdjQ+qh08veTft+cP7Rvnh8PR0Xkgv/6830PzVeXsdb/8B);lineShape=1;" vertex="1" parent="1">
                    <mxGeometry x="115.26188392469953" y="220.90253121675175" width="0.8446302386753396" height="20.307210086144114" as="geometry"/>
                </mxCell>
                <mxCell id="53" value="" style="shape=stencil(7VnJUhsxEP0aX7vUaq1nQv6DKkxwhQBlyPb3acXRMGqNn4tDbtzM0E+j3l4vs5Orl/ub5/3Ou5fX49PX/c/D7ev9Tj7tvD883u+Ph1f9tZPrnVzdPR33X45P3x9vT38/3zTJ9uvb0492wq8TjguJNJR3v/89YQr898nnE+Dh8LgGJHJ+AHihHAFA/10HgOiTDACeXBkAwZEDgEo1j/KZWM7LZ0qjfAzkgHykGEb5SsWfl9fTRvkkFMH5Qn68TwoX5J1Y+Qru4ymPHkuRPDjfkyQrHxJwGNVo5SNysLVnky9InmW6DzjfUZ7u70GEOgpxsieU9zz5C9hHo3c6n4G/VN7Z+EnvOl+IK5LnMSGThxnsSEZ5jX90PvfoXeVXBf7V+Df5XikElI/B5LveH1BWsfkoEd/fWQX0CAYXUsaqowbNBsDDrBcYAfokIUDuHloADl6pJYFxAgniCA3hMaiZCvCZWsSQ7hK12z4ONkgdzElRih2d5mEMhWSdXLqJt2PI95RdeUBAksVC2fhYqIKo0yQvo8Za9yIAZEdpdFlQALBRjtZGUagAJxTXz1sxhQeZUAKlMSoy92KyDVCrj2/IhQp4Q2Xyxm8BklENtv+oyk/A07XabK65x8o5QJkAAb/BpH9VygGe3gSgilmXhmMBKAUDTzelJ0DESjNbQEF+KDZa2WEKqAuJrl5RkdbaqBULyCBHFSCTEoKiL1tW0kuipK7J9joKEKyDM1fKVNAbMnlvAYIBhsnaJbEfTH+hgIRdHYoFoIanTsXh0htqnznWOgCeaYEQJithgHVc7ml+pgmY2rDmahRMtTPdOpjAKxRgUujNDucAPlkAGqX0AsVZAEw5VXEEXMzqPLHlBeJQMp2pCZnp3QCmZLRmmNVatUypLokE6FCiHam0tAZwpeKJR89lgTOYlk02Q0CAZtXzbJceYbim0i+wtBsREo1OCcEM8rF7ZrtlUpYYdfAJVt44TWLa98JJO0x9NMNRXpY6u5gVGqmtKkaeCb3B2W6LNb3MrNFzfFs+Wa8F2MHpcTaO+v7m3BggwRooodknWxLjBBs4bZvNtK2dOipwLDad1WgB6NxcOvpMEtxHlK7hqo9GpJfsbKVxmOH8aeb/iNkiTPO8zj5oVvrYB/3/fRDcp3zsg+BGd9KXIUsrH4z211ka+XeJ3kXew11EtqNLWwbAfbGRl9o3zuf2QclM8h4mGHs7uLQcRRQXNtY7CQMsTTsYQ23jZJooyugFsa/g3uQRx6m8nVDhgKpVxc79VBGnJGvS0ivtuTpm51nYeqh8tPJoP9XqpJknYM5zme0P9d1oxGGzxcscugKgpvf9X34uA/TH24emu8PDw+k71fr/9sOUPjp91JLrPw==);lineShape=1;" vertex="1" parent="1">
                    <mxGeometry x="114.26275866118885" y="220.07415282837383" width="3.9657446583537346" height="3.5105630595028896" as="geometry"/>
                </mxCell>
                <mxCell id="54" value="" style="shape=stencil(lVjJchoxEP0arl1St9az4/yHq4wDFQIuTLa/T0+wYNQaHvZtGN6Tel9mJQ9vm6fX9Yrd2+l4+L7+vX0+bVbyZcW83W/Wx+1Jn1byuJKHl8Nx/e14+Ll/Pv9+fZqQ09OPw6/phD9nnneOnJto7P6+vyLO/198PRN22/2MUCtV3+ELeYH4YM6P5B0gFArcEdgRV0BIVHqJWN+gGwLV0BEkkEM6MMXYEYKnDEQqdSBUygUQItXeSjFTSYDgqZaOkCK8IReSXqQs5MANOVDprVQ0VEBkZE+Se0Ki5G8TUqbQ66CGZiBSYqrSE1I7YpGgRpTaEyp54LjoKJpovSbIIiOoFdleIYAgkdhonZtrFgmcbTBpADugxJQvxhEVJoRnm6MlUASOcDZFc4JFQE3Yq5w1WEEoKd5bvAA/q8K9/Bq8FVjIUQoWn4C+vhWgGT6AyOaWKDM8Kqpss3/CA3mE8oAXcH5o1pvri4KayiB/BfpqRTfxEGHJVvzg3wTwKk+f9xpvqHapvt7ikX2k1akZPoJ4Y9txFJ8AfijWEx6kvMbbKA/wl2vSzvAcEN4na/8KzzczguIjiAe34N/3CLlVT4Z4yzAfXbR41Ad8K3/zfAH6MiW2eAb+EgpDPRGgbyA/6IvsqdYQi0cF/bN4n2xBKYJbjMprhgMdA5GFdDjoQ057vQMmkmKbmHY9NOCEYJNgGg5A0sdLjZ01YlSlY6HcK11ja4Q35xVzg2+9fJmQ7A0FF7rs2jhz8XSFN+SxdXBz5TIht0ieDZqoN5WheF2nsGVCsNVUh2XU7UumPIzjAYhUXQvmy8Av7YhlgrdLjq4UEW0IWgF6kdjBBKrBmlXXIpQPU/SbFMV7V7A17M5eN5zvWvDeXKLE4BM6P9oZysHcqZd15opnhE92v8HbiuKrPR/N+VobktUX4outLnfkKXbduqNvtQF0x561TVgf9Jfu+fZ8FA+f/pDwAYI+XL9bvGx3u/Nnj/n/9juHvjp/I5HHfw==);lineShape=1;" vertex="1" parent="1">
                    <mxGeometry x="112.80809699919723" y="245.3274499699536" width="2.2984134298781473" height="4.84975581882515" as="geometry"/>
                </mxCell>
                <mxCell id="55" value="" style="shape=stencil(lZbdUttADIWfxrdnpNX+XlN4D2YIjYc0YUKg5e3R1mOIlkSd3vnv88pHR8c7yc3L9v55MwV6OR0PT5vf88NpO8mPKYR5v90c55MeTXI7yc3j4bj5eTy87h+W8+f7/mQ/+nV462/4s3CNUEKnAr0vV2JCan+v3C3Abt6fAxmlGCAJWnWAhsoGyIKaXSCJAUoEeyUltGyAqis4QG2IFmiMFh1AVbIltYLE14FCyFYlJgLRdSITJNolGtiRKRGq7ZzqQE4jooBtI2oFO4BUkAVK84EMsrrmBhIHKGMjUkV1VIphXCGqW5zO6W1pFggITklaQK4G0CKzs0KuaMkCGSE53lARrZlU6OB8dG+TXUFbGfyBoGFG6V8zykPjCLFcB87c/OkNWoPh8hI6MBbQofJa3UdysGtbX3FZJh36YUg1GJySeqzYkr6i53KrBeXbjFYnBjQa6wBofHozmhCHoVZZHTN1QP4HkDima09Dx0whrm7+BBKyE0yc1rQ+i43ofHRBtW4tDHHaEMYwzrym7cXn1ar2AxKvKXLteWuLSODg1ZNsYgRfUc0TWz831xQcR4GYkZweBxmBBHEmRz0x/Bm0AY6garpBofHfpgdfO47HebdbNizn98cdil5adjdy+wE=);lineShape=1;" vertex="1" parent="1">
                    <mxGeometry x="114.92040335813817" y="243.12344521079922" width="0.27482215740309696" height="0.2756652198475352" as="geometry"/>
                </mxCell>
                <mxCell id="56" value="" style="shape=stencil(lVjZbttADPwavxLc5Z7PPf4jQNLGaJoEaXr9faka62hH1hh5k2VSy2M4JPdgH37c3zzfHaL+eH15+nb3+3j7en+wj4cYj4/3dy/HV3862KeDffjy9HL39eXp5+Pt6ffzzSK5PH1/+rV84c9JL4jZohT173iR8v8Xn0/iD8fHlXiUorN4kJ725ZNYnOSjSg778llKmeWLJPL9KnH+vpkE25dv0tskn1S07csHlR5mhSKVGBRMdA5oNjGmkCXmWaHTkIYqafahFAkkZ6FjUGuUWEmSg1RQqJIZKkz67EOLkiNRKKJ1VihS2AkNo9R54kzFZh96lFSIwtnis0KSQKBqSeqc6Z4p9szBmlChkCgt2AyokJUoRIS3+1BJlBzMGFaj9Z+6NFAIkonTjv7S50x3UeJDrlLmsLYsjaC1OFpnTmpBGklcyZg4h7cyhS51RmsN1KRq0maTvERzJwoVTXKvIkGru2jzCTlLJ1hqCeGdnYmJD62KzYlLzlSMWvuGKnWw80UFL0idT7A8wHJZwcM6w9sC5VYvlzgrOPEwaHRn0tkk73gsSr1JmqHRBxXuyUMD7RJJNbg8IKmN8rgs37H9tAGUPfkI5TlIak8+J5BPLD5eOtAZeHw2IPLmxe3ps/3esRnNX1C4gqGNRSFKuOJyQQXGFktM5xj5EGHcByh+Vyg8y7o5IbMT2iiTlUK8gutNlGgtN5xilkmSn5AiKuiVE8BppQTmCpCHLonLV6y1yg3CKUmMNOd+poZVbfLaTwW/z2FUGtrP5RuMVKNF7FZOxQQEOmzrGA3WOb5CFxkVOq+EdyrUwQ7njpDpArBtIXYFdglLxydLalKUOleCdU7air0/GW2D3vshc8kJgaTaRzQgmOybHzshjFJZbT2VRKm2AZ3zhMSn7Zpw2q46KOeygmLiaqbD87J2Qf0rpbDiAw80Tx9tyYTks3AHBuDjhU/bfc60z0yBnaBoUuczmG8MCQYYH9hJd3Oowar31o12tx5DBRYl36sAGisi2VvdkOk77Ye+HEawqY04XN5XNzzjvMD2pFgHq6wy14hJTkPA9l7mkcDVl3QYhn3nZlGKYTNLKt0xQhtzzqqC2G1PKFJn6iu85YY0/j4r8PueZVYDnil0hfYWpcCVnXb1tpGPnAQkAtv74kY8SLgwLBsDu5ZA2ovnG6nLDotBkzba3xSZ3sYGsSc+uxuvfR28pbP2hirC6KU74gGGVAkEC4qpUnpHpWIZxFkL1IHDN3E2zupg2ZU4tb0lFKe2w1bEZxaPG349sytLvGXiffKdd9JXxf3h7fr7y/Hh4XR7vv4fr8v91emq3T79Aw==);lineShape=1;" vertex="1" parent="1">
                    <mxGeometry x="117.87817430462997" y="231.9808942433708" width="8.970753993244465" height="2.628973949735691" as="geometry"/>
                </mxCell>
                <mxCell id="57" value="" style="shape=stencil(7VlJUhwxEHzNXBWSSusZ2/8gAjATxkAA3n7vkgc1rVR3TnB1cJtF2WpVZWUtOsjF8+3l4/XB2+eXp4dv17+OVy+3B/l08P54f3v9dHzRTwf5fJCLm4en669PDz/ur07fHy/byvbp+8PP9oTfJ5w3khvI2z+nH6xJ6d8PX07L7473q+XJVBmWF7rcWZPtsN6JiZEAxPhxA5eM8wSgf5cRUI1zBFCNjQPAu26DTYD+Xd0IEGMtAQSTYYfAAdkUj4BCziCuP28BRBMDAQQTCgJePbkNKOg4db2QMwQxWRAQyQ6hGl8QkMo+IEakhgIyASTXn7cCFEK+VEx0CKjk0DlOZtVDEy4Vb/xkVksCqGRTgUvLnpuA6k0KCPDED1UDaFQAJV9lOxQjDnewhHwKKBNbA6F31Qh+F70VIBUBhQPSxCVPHKcADNHUf9kDoOOyCUz5rJ2CuhjHPFe7n1aAM+9UAFBN4KfOo6vFUroqIFQEnPGc9wgolZKpAkDFkNM1WQSwjKIBASog0s2wDRCTRldL7M7fBlgTRvap3CZipZIwgoIzkcmGZqgxqEOgZs21K+MCKNRxedHeDohaSpBDZzXiKEwq6JXtoLXDyKWoUUvYmjSNjmZN0l25DQiY2fURiVhJMwpk9uwp+WLBrJh5VlSbvPp1KbAcNataPYxnULIwx4WE4trUk1gpRPRDkwXiBwUAvVfatoeAmqxpG+G3sjlPh2CFqAKCRwBTAQWAMKmQBA5wI7+rkonZNWDlqsqTCfsUIIIAlngVEMFz6hoOAHGti2f2HOdhhyWm9gApTTtwukJWbGdgftBEniYrcQBEUPMD47cCYIfcDb0HEPC0conFg8boFHKOB1Cd44GZNfY2bB1x3NPYZ50L6qWHWesGEctG11mZzsRoRruyDNFCDk6daVrcBLACaOOVUu9zdoVpitHED/0+QLQ9zS4ZwlOzxtCVcZW0WN8UM6pAdrT8TrbntFXiZVbSRB5GsyZPO+SU0EqailnflKbKVc2QWD3jTRytFHnlqs1iHOU7ZFp954L9qzbZiUSc+tWOwiS11x/bgIhdTatcWf86NVriqVa2dhQ6s6UJ2QZENOvbdOSju/zoLv+D7hInQGq3d0cQC+qCxXQzKzl0G0oVBLCGNy/xsjo04/c8WBNHZ33z6E4BTMnm4WADsMw+jR8VwPzQBpwTNdicTAqWuqqVrIiTgLN4WcaF2wCL1GivRALoTSTWjiOe9lrOTFxizaJ3WDD5SjsIV3p8rZSMDvxjr+ZX80rWUjvfG4z1wJ+JABpJ31FYk4/VjxO6XjULJic9g+0sF6gzeoOzsxza0EB7E5UGiBta6k1ZZBk07S0fQ8DTSwSL2ujOvDv09JYWL9NdlKUVoUOe2U7tneXTRRrrjhyqiaVt8FTZWUqCd97qnV2uH94uEG+Od3en+8f1/3jhqD+dLivl818=);lineShape=1;" vertex="1" parent="1">
                    <mxGeometry x="125.03866532000143" y="231.33577654580773" width="5.304762915534138" height="2.415111056127009" as="geometry"/>
                </mxCell>
                <mxCell id="58" value="" style="shape=stencil(rVjZbtswEPwavS5ILs/nNP2PAHFqo64dOE6Pv++yAhFxKY8coG+KMiPvMXuQEz+87Z9ed5Mzb9fL+fvu1+H5up/4y+Tc4bTfXQ5XeZr4ceKHl/Nl9+1yfj89z3+/PlVkffpx/lm/8HvmWWPImEpz5s/8yhC7fy++zoTj4bQglELFdXhLiSE+pw7viSPEG9/hM7EH+ESpx1tLoQBCIGt7QqCMfkG+lzuChKiE24QcKXJPiJSAz1lCXjoCczNylZAchT6oLGkBWYhM3PvgI2UQpcDah+DJAJP8QIiWDHCavfYhJsrABwmi6zOdPFmQB1vIxZ4gYkQEpqC056kYIA3yfe3k0mxcTwPFXnrFUQJBDWT6rBUsVYlH77BUUwLFLClljc/AHqZkBjxQEZMb8KhynK60igfft1RUKX+0sxsENwSo5Nt4Q7EMeKBRQy4NAQIOG93sasISxDuNjxDvrMYH7O+IB4KwrQAXeI8qjPIgCA8E6sgP8fQg/tI2x++jJkRxiGcA9nCT4zL+QG9+JT4RCNqv2J9Avrh1zKXegB6GMVD1DBqKW8kXqhdHVg3jzYIcE4wq3uhtYqOjDJO1BggWgBnxwP5he6oJ+6/4ohIcYIceC8ZRBAkO5HpByASzaD1r5beYkMge2a3sMIMTGgGDhGTKG0Bgo12WPQINPVmV1JSPeJ/zQlC7ELfBsx7UoseAbFsJqDpmHVYxEg36JLuQInCb5esrpgijd7rupEB4ObU1fbn1ol1ISrMnSO6R04W1SXVzB3konqISKz6qhDZb7jx6BOI+bRtHGymevllsHJ2CDqmMZ+RvoKDxFjT32hq0PegUUSKxVXi0sQs+D3jk7yAhPAsEr5rdBl6qJn/Gntxm153+SrPT/sJ4liaXO/NVRn+RHj59Vr+DIA8fVwMvh+NxvllY/l9fJcir+RqCH/8C);lineShape=1;" vertex="1" parent="1">
                    <mxGeometry x="134.51014516361374" y="222.91695485810249" width="2.629149482503824" height="18.918197408018813" as="geometry"/>
                </mxCell>
                <mxCell id="59" value="" style="shape=stencil(7VnJctswDP0aXzEkAW7ntP2PzMRpPE2TjJNuf1+wDhURlJ8ntx5ysyWAxPqwaMdXz3fXT/tdcM8vx8dv+1+Hm5e7HX/ahXB4uNsfDy/6a8efd3x1+3jcfz0+/ni4Of1/um6U7df3x5/thN8nviAkpXEF9+f0xFPM/x58OdHfHx7W9I7ySF/JA3qfKPJ4fqXsAEOgMl7AniQCBkfRjQyVuJ5nyJTiQC+FUjpPH8mlgT4uJ2zSM4VRnhRJPDApeT/QZ0+pAIUpj/LkSIxcRtmcnygBDwRrH6UvwD6BoqHP5OH5r95Z0TOk98XSw4CgOskTgfy+x+OKHtlnCcf1+dBfwU/yg/j05CZ5GOjrqPBkf6Cvm/RNVAXRJ7b0Cciv9MHSC8P4MfYRCkBfoWzkcVRB/Ocu7SofXyXctr/v4bskfKGMAk6sRaNKhG4oPWEXCAo4hX0/b8E4poIwRaiOIBFSD8NtBrWSTDgNvMyuO2lhUKAESqvEthIEqiBvOFMYdfDcU3s7MDyxqWW5x+42Q+zAtliJYXFqfh0ZtDgVIFJM1qwqJKqXSdF69HRUrYBZU7Hpn3xPqO10mCq+5g/Cu1ynhC4UAGAUITdmnD6J4IaSLWSX2kF/k6EqRpouJMAaW6fgq0IFhHetFEYdaqYC/KAM0TCUDuTnGIzjlCGA0FCGmi0DLFTO2VKiHAgq2xUjFusTFH362oSrPkEpp69N9Wx2ABmkr/10A4INVTHniQG5upDIJBK+wU86JGTWKb6bWdENGmuTSA6ZNXcjrmPjgkhTMDG6QZWe4xugQDPrnEHI0xOSKUMGjUyttjNsDDipzajQzICj1fTazQwXEmhKatjsbeZoQXatG8EULgCNswwRax2nGy7YNUzhiip1U3GMjZUdznHMMkHXvZthmjNqgnOJ1ig7CnOHnm0GnYWNmRzsjEvo+L7UxQhHTy3MpvJq8UazQw4W8NvwCRiSNmWm3Qhdq20Gb/E7aq+Lxu3YkW7VHAdQg2RRcWnKAvS0CPGodGuXEYOzKwCPtx6c+kS4ao7RDSwWBXSoQO2G9p2myvlEDo0QtVt9UdrBsTgkOzfpk4oY2C4OVCs0GKsAZvMhfGmZJGNoRA8zri2TxoyLFyo1yRisaWngt6ObxMzSATauH7uYj13M/7yLmZqRHKG/XJ9YVuUDdZHThJ4E6st2yRBzr3BndrUm36V06N6usB0NFsgqcK/ivS1O7GC3Nu+GfOkl99xuyDTmpVfc7YxUiBhD2vVB9Bx9joYejSJKX8XQo25TXeaToYd1iS2EKj1aVE1VBjeOSl+n8xGCCnk29KgmKT0Ha08QEO2DSzb0sAxLf/1GX5C+YvcQ/pK+0TQScOJ/9weji/T64+3r1O3h/v70cWv93n7N0kenL2H8+S8=);lineShape=1;" vertex="1" parent="1">
                    <mxGeometry x="134.80452905882112" y="222.16141556770373" width="5.909674080070683" height="5.6995555845769355" as="geometry"/>
                </mxCell>
                <mxCell id="60" value="" style="shape=stencil(lVjZctswDPwav2J4gNdzmv5HZuLUnrp2xnGvvy9UhbIIxsv4zZawJAgswIU2/uFt9/S63Tjzdjmfvm9/758vu43/snFuf9xtz/uL/Nr4x41/eDmdt9/Op5/H5/n/69NkOf36cfo1rfBnxpVChSeUM3/nJ5ai+f/g62x/2B9X9tYYMqYBRPLxNkA2yLndwFIpEPD+egFECox3SA3AObIeAlLrkssUHQa4BuADFXzo2LrEnhjvENs0BFMTcxNgW0AmFyAgtGGNgQx2ybaAZMmiHZYgLoBICZ0hUQoNIFsKgHxlWW8BBGILAIFcG6VcyKAzOCqtS/LEgR1yR+/CVAD5xGO9QyIH8pCXqC8AfIbElNoKXRXth4iYKGS9xXtNfQgIhbjltySfQVELmxVdJZcGANjWxC4AD9nnXW1Dq1QnUKPO19crMqGitlzJuaIrg7AaCu0GycM2Y8iytkdH7jpxchQB9YwmkthbwG2jWSENIAJ/LDmv7R3Isas0XtkbwLquNid74L+n3PmD7gWuN9/KHuU3kE3aPgN/guaPxN/D9UOXrwz8D3W1FX88PG8q2j6B+HPNzmLPsIZ97Wsre3RFSTTusre6CU3+ZMRndd0kDzuEqbuv4wnr17Qta8oXrC8dT7lroP+qJQrfEoi/0UJK7D2wtzX763oB53W1G3y6HgN39pBvqqNP/sN60fGXfgXye6+9TZSVQwVKKJf0DtlDsSyy0rcpyxFexMy658qtV4BLQYqyTYIIHAZFFkWStVUpAgd19ZhrTBaAnArpFa/PIAA0g0yKiLVLFgFSBzBVDd9SdayUaYZULbZW7gJgWPsS9dSJCVRsIn/UlCPqOoBuITHp2wXUvt19MJoQWDeM0QzCWr+PphwBtGcYzVFcK/izk1p36Y9mQVGBrUujaZN1TY/m2U5njiZm2aEl32AkF2bcM/NPDjllj2aiKWttEgxlRItQA3i1Dyiiocrcq71DxRm1EDFQt4h91v6j8UkGuNCtj+wz2W595E/WwmVw3qKFyyCeRQ/ug3wVHZ8BH+78xjS2lx/XD1ov+8Nh/h62fq8/gMmj+eOZf/wH);lineShape=1;" vertex="1" parent="1">
                    <mxGeometry x="131.04752191453895" y="246.9623497604178" width="2.3180078738866037" height="3.955973413152347" as="geometry"/>
                </mxCell>
                <mxCell id="61" value="" style="shape=stencil(lZbdUttADIWfxrdnpNX+XlN4D2YIjYc0YUKg5e3R1mOIlkSd3vnv88pHR8c7yc3L9v55MwV6OR0PT5vf88NpO8mPKYR5v90c55MeTXI7yc3j4bj5eTy87h+W8+f7/mQ/+nV462/4s3CNUEKnAr0vV2JCan+v3C3Abt6fAxmlGCAJWnWAhsoGyIKaXSCJAUoEeyUltGyAqis4QG2IFmiMFh1AVbIltYLE14FCyFYlJgLRdSITJNolGtiRKRGq7ZzqQE4jooBtI2oFO4BUkAVK84EMsrrmBhIHKGMjUkV1VIphXCGqW5zO6W1pFggITklaQK4G0CKzs0KuaMkCGSE53lARrZlU6OB8dG+TXUFbGfyBoGFG6V8zykPjCLFcB87c/OkNWoPh8hI6MBbQofJa3UdysGtbX3FZJh36YUg1GJySeqzYkr6i53KrBeXbjFYnBjQa6wBofHozmhCHoVZZHTN1QP4HkDima09Dx0whrm7+BBKyE0yc1rQ+i43ofHRBtW4tDHHaEMYwzrym7cXn1ar2AxKvKXLteWuLSODg1ZNsYgRfUc0TWz831xQcR4GYkZweBxmBBHEmRz0x/Bm0AY6garpBofHfpgdfO47HebdbNizn98cdil5adjdy+wE=);lineShape=1;" vertex="1" parent="1">
                    <mxGeometry x="132.7984344373731" y="243.75295447480192" width="0.27482215740309696" height="0.2756652198475352" as="geometry"/>
                </mxCell>
                <mxCell id="62" value="" style="shape=stencil(lVhJctswEHwNr1PYl7Pj/MNVliNVFMklK4n9+wxDg+YAVEO8UcC0APT0LMBgH972T6+7wai36+X8c/f38HzdD/bbYMzhtN9dDlf+GuzjYB9ezpfdj8v59+l5+v36NFqOX7/Of8Z/eJ9wxpFRI8qoj2lEkTX/B75P9sfDaWlvKWlhryl5aO+tsHcUFbT/XL7YJ4oB2usk92NIZwhQUQICxQQAhnIWAB5x6AgMkEc2uax5C5DkCjaQR4dmQJCkui7ACYA32G08Lc8QVKHhJkDqIiTymwDRk3MYIJWaNBm0AnMiPZ08ZeSHVDiZAZk8CAbbBE820NNOU5S0ZltcuQrwqoh5Bngy9jaA3RRl/ORAFqwQXbNCJAtWyJlCtQKPAIBWipSqERHwytPG1YBPtawDYonIBSCDGM2OQm4AgKasybYAoL4U65Bb8LCOcOQaYpFeWf8uNQDAa8zFs0teQczF1IiDPQfyxiogIPmtbclvPbRDjlijFSWa0XO+ASD16RX1OaTvuQYuAYDWUd+6YQltaS2CAhDfepAGwOs43ewJFdLM2mgckYCrOdWFVt/Ac5x9fXPqDLbE+V1J9XWD1JeKcO8ShuymQ8R5+k6aOOZco1fkiM0Az01Z5epYmF4vjDMniyrkUc+USVfq87gPVSXoF5UU5T5tmqjmRhGEEIdc1T1kfGbSbbcBSG2SRqedaQpQp1/Ste46DRnby/13Oj62l3x2WkpdJ/pOz8r2kp9OU8zsyZ6403WzvdR0p63XpKtUge8NmpRMFJ2LiSpBft/FR1GQ5vhepWr14GtbUwzwrVDVWlBksBRyZa6Bp/jG5mpzELhzg/xlrlAHUt9DVHHcjUJJod4NKhjaFtXeaR9acuB+UukR7zvuqOPaV4jN9p6GnTU+EGzRwuYHiK49f3y9drwcjsfpsWQ5X7+O8ND0smIf/wE=);lineShape=1;" vertex="1" parent="1">
                    <mxGeometry x="363.89036443751434" y="219.51761183652206" width="0.5113285433573685" height="19.021360160124626" as="geometry"/>
                </mxCell>
                <mxCell id="63" value="" style="shape=stencil(7VnLbhsxDPwaXwmJol7nNP2PAHEao2kcOEkff1+qhjYWtTtBbj3kZu9y9CCHQ0q7C1fP9zdP+x2755fT8fv+1+H25X4XvuyYD4/3+9PhRX/twvUuXN0dT/tvp+Pr4+35/9NNs2y/fhx/thF+n3EcKPuGYvfn/MSTuH8Pvp7tHw6Pl/aOqgz2mWLYtveFOI7jR3IJABKFOgB0yhIBQMgbQKZSAcBTSQMgRAioJHmwF6EEfJSJ3WAfAwW/bR/7226fPMW8ba8hC6N9ocogZhRHB2WhIsBBVEf/5EIFcYI8D/ZFIwbX40ZKFN+fbK0nWHsG/vGUp/EFjh+n8WNB9lytfUKUJjeNn8D4jnKZ7EG8HEWZ1g/26yhM6xHAT0c+T/4H8XVr8QX8cf3tBX8y8Kfae2sfwfqVn+P4OVOC+VXH8bNmHNhvIh7zRfPRg/hW8mO8NN8DEiwmHgFRyCGCRpvxkmBGqkoXA3CdtOsuZcuJEKiAJanIGRHl0ivPOqDaGVioAhbpAmzhCN3R64Bi49CUFfBCAvFIDA19BG6V0nm2eMnjSiAUTWnKMPWTs1otEeZCyl3aLrgUQKS1Vhh1TwGyVZMxjIC8FJR1QJzyrXb+ruePypsRjNxTcB2QbBNScaRrpTJKZC2w5CvAxEEBBdUEN6lerZCubQqxAAHs09e5WgDSPX1t2Nf8gPxaiYsFVKR8pb9eusE3P2wh0jwF2nUhCRYAY12sujY/oEBMutH8gGfwE5vecROzBWTsJXEWIHhJKVoAUqa2YrEA1AQ0n0wzMBCa5vXJSwEnRM4WgOS4MWeaATUa60mKWtU2RbYAJK8tw6IFvKM0aWJfQZHTBcwZhPfgPpykeZ4CCUfpRepyE8hNxfbczQ9YBj4IEHsQbk9AkpbFi0sVKl0O1wFaaEd51VKZQOT02GUInrnTax3A/dy41GqBp/mUbKseY1/keoMyn4UTpKseff04g7ZdqBWVbNu4wDBwwlZotLNENwzaUpm6qM0p0g3tLOvUiqKUC842KNooerAkzuTMkmoX6HXA0m0vXhJYIfTQZGRDO3x0qPcaBxPpDE+VXs8kIyDiBPLeimtaTmrrCWRPBO3eA3HP3vNoLxuBvW7ANK646n7ee3zee/zP9x7OioryGTW2Oru52hU4vrcapPkYkfCSmHsS369ut+5FR/vI8I4h92p6cU+LTlR+CkCIkBCeLYN4UcktTbSFwME2u91+m+tywTlcLekSPO3MIuFgdZ2D7PD3Ae61980edf1qz9nYoxrQLrPZ2Du0frY9FG5llaRuGh9wSO3Z7tej/QbbQDnYNKp9Ctb/KL7BJrHGF+RYs6/GHn5LCFakfVfJTfsPfV96115/vH3Mujs8PJy/hV2+tx+/9NH5w1m4/gs=);lineShape=1;" vertex="1" parent="1">
                    <mxGeometry x="362.3777470441305" y="219.89490951868976" width="5.818809458712659" height="6.129643667903463" as="geometry"/>
                </mxCell>
                <mxCell id="64" value="" style="shape=stencil(7ZjLchoxEEW/hm2X1K3n2nH+w1XGgQoBF8Z5/H16QgSoNVzCMpXs8LjPqJ9XIy3k4W319LpcsHs77Hefl9/Wz4fVQj4smNfb1XK/PuivhTwu5OFlt19+2u/et8/Hv1+fJsvp15fd1+kN34+cMPk0Uex+HJ94yuHXg49H+816e2kfKXBvz1TcdSAk4tgBHCjG60CU9r4GqI9JrgPJU+pDCEwMXEqVUu9S5PZkFsiZsu+AxFSBSyVS6YEs5MEKVWPogcIkIIYayOUe0KgqAFJLYgP0Fb9LOQt458j1haiZCgqiUqw9UEgSAAp5sUABea2xxXgCKjFagSmIBRLIaykUBwAFXQIxW6CCQuRKue++i0zPE5GkDD6hJXxL+2XUGUxEpjoEISDqFImNS4Uq0I0kFLMFAnJJJ2zovoqA2CbsNBGnqOaBRM5bQJDQaG/0LpUEtS+zrYMCggqXyRcLeJBWVYkwrOBAljREo30KILGsJy29AKLHMxosgAqndU3O1iGCwk0yZLKkQoKANGSpUEZBCwWzQoVZmv4dLRCBME2y4S2Q0R5U7DzcAnQfHXYI5NK0LYZ7gtYBSneldVKNaAFUOAWicQm3hgpZNGnFzZcd1WEeUHurGI8iAFvD2T3r1ojG5vEfikB1lIcVkMzozj+OKBIynTizUd+QykmriwWQGN8N/P88+bc+T4ao/7bPk9DSfvH9jYRGYwjDllKQ9qlLRo65yef8SUunuo9B94wAgFBar53OQdLaax5wFPs66EkL1UGPetK3q57lkODrYdL3gAjsVq/i2wP6CiQ0wbaSx2e/QZZ8+1q5Ym4C9rAEvp2dz+YOOCP20Ofalj3fQm3tszkUSHtSd3Cf8mLFy7VazNtnCt7ag9JqLniwBzqkpc3WnkGpeLgGcPAmQ3R5m84KJl5miivI/t67m5v2+uN8UfSy3myO90yX/7cXS/roeCkljz8B);lineShape=1;" vertex="1" parent="1">
                    <mxGeometry x="363.2609008820489" y="244.57180425847145" width="0.38437603446776636" height="3.404984067977492" as="geometry"/>
                </mxCell>
                <mxCell id="65" value="" style="shape=stencil(lZbdUttADIWfxrdnpNX+XlN4D2YIjYc0YUKg5e3R1mOIlkSd3vnv88pHR8c7yc3L9v55MwV6OR0PT5vf88NpO8mPKYR5v90c55MeTXI7yc3j4bj5eTy87h+W8+f7/mQ/+nV462/4s3CNUEKnAr0vV2JCan+v3C3Abt6fAxmlGCAJWnWAhsoGyIKaXSCJAUoEeyUltGyAqis4QG2IFmiMFh1AVbIltYLE14FCyFYlJgLRdSITJNolGtiRKRGq7ZzqQE4jooBtI2oFO4BUkAVK84EMsrrmBhIHKGMjUkV1VIphXCGqW5zO6W1pFggITklaQK4G0CKzs0KuaMkCGSE53lARrZlU6OB8dG+TXUFbGfyBoGFG6V8zykPjCLFcB87c/OkNWoPh8hI6MBbQofJa3UdysGtbX3FZJh36YUg1GJySeqzYkr6i53KrBeXbjFYnBjQa6wBofHozmhCHoVZZHTN1QP4HkDima09Dx0whrm7+BBKyE0yc1rQ+i43ofHRBtW4tDHHaEMYwzrym7cXn1ar2AxKvKXLteWuLSODg1ZNsYgRfUc0TWz831xQcR4GYkZweBxmBBHEmRz0x/Bm0AY6garpBofHfpgdfO47HebdbNizn98cdil5adjdy+wE=);lineShape=1;" vertex="1" parent="1">
                    <mxGeometry x="363.3243773805084" y="242.1162317224966" width="0.27482215740309696" height="0.2756652198475352" as="geometry"/>
                </mxCell>
                <mxCell id="66" value="" style="shape=stencil(7VnJctswDP0aXzkkwfWcpv+RmTiNp2mccdLt7wvWQ0cE5Cepx7Y3W37PxA4Q2tHN6+Pdy37n7evb6fh5//1w//a4ow877w/Pj/vT4Y0/7eh2RzcPx9P+0+n49fn+/P3lriHbpy/Hb+0ffpx5PpkaG8vbn+cn1vj6+8HHM/7p8Dziox/w3gQH8d4N+GAywkdTy4DnAwvEl1GeahxBfLYD3nlDFhLSqIBLxmFCHC3KJo1YpDiK9P7kGiHkgUC2e/EqIYyEZAr2QqDRa97UBZGEm6uxmwgxGpswYbRSYqWxWamOhGSC30LIzgRsVkng6A2bCLWH71XCmA2FjMPpIAnJ2G0nFEMLOoyEyhVj0wnVmbLgOEEgXJM0gYvMNpE4p7cpnU1AfsiGxiJQCxSJXP/5Qqg9y2cJnJBWERJIoEYgScjAD8EZHyShgJwmFqAqAtCB2IhJEiqyUpDVuxGA0mzWqE9AsVR6MF/KvbW4kgVTyqYjXDf7lADM5ErXcaWZuEPpYEKOcLGH/5QAGoQLhjYFkyc5Z3BCoI5CJAcBTjkPUi7woDB2lBp7eM0SEik/eONBvefqbkcrFVwFmFCqJBAIjZx7IEwJwA/FzYjkgdKFM0iJhMo3t4NCWwhsxKwJoLhy7bVFEYCVOHKiUpqA0i2YteOQSExIkoBmuCaS0iEhK3HDiYqAlPY9ISeEDHRgx1VNwKFRlA4Z5AMHn9MnAKVzkT2rKQ3qUpunVCxFlEBzKRpBAmU1S7fQQDrkGcehgSlfavU0vIHSPOIFnaIg+N6r0NoUdTNKoxO4klqlNNKBa7XOOGQlzrioTkB+mLTlqatBR9nOKHyHES3Fw3KcL3fJSQ+KIIX4DpNUlyNAiLbPFpPGa/+BOTFLwv858W+cE8uMzgnUDZJlo92zAJ79LCIJj3Aaj2+KGo+vohqP77oajy/TGo9v6wq/sA7QeLxv0Hi80FD4hY2JxuOVjMr7hZ2Pwi8slZyMz4WtlcIvrMWcHIUX9m6uj7ErF3tOXqoWNodOzi4Lq8mLtVfuPp1cGy4sV12P3pXbW9dvTyvXw04VRLh+tvJ+h7fbts/f65bnVm5t8W5ejUN49W/l8nKxkgQBdyAQSP878pNa+9s+oV5rK1JVWKW4qMq3IjCrYhd2Jb7IMMPytDCjDeq2tpg3WFNv47GzWthK+VEs/MFbpgU8f3h/pfVweHo6vxGb/i5fgfGj8+szuv0F);lineShape=1;" vertex="1" parent="1">
                    <mxGeometry x="406.06737839755533" y="219.01400675999798" width="0.45902148314741026" height="21.145015376162572" as="geometry"/>
                </mxCell>
                <mxCell id="67" value="" style="shape=stencil(7VjJblsxDPwaXwVJ1HpO0/8IEKcxmsaB43T5+1I1pD6R743TY4HcvHAkLsMRpR3dvD7evex33r6eT8ev+x+H+/Pjjj7tvD88P+5PhzN/2tHtjm4ejqf9l9Px7fn+8v3lrlm2T9+O39sKPy84V02xDeXtr8svPhpLf375fAE8HZ6XADJZAHiJvA2ofbluT2RC2LZPJtXZPhoH1g8mptmeVwAB8O5lts/GJ2Rvk7QPwB9volo/WWRvs7IH+XEq3mxiRfa2Kv/jtr01SecH5NMaCjL/Fa7vnKqXQ/bWSnsP17di/Qj5yf4EaR+hP1SkvSvIPgv+B1PB+txfol7WeLB+NiT6MUG+OWfcTKBGWQTg+GaPXDEEMsqaIkrmAmwxdsDPOXKDVesA1ig/AVKXsXV7bhHRZJ3l6/ZVNpnrVV+vme+S0+0Ha9ftkxRFa6IH9sof6jVZ10QyNNuzpiANzaaKeANs+kidAQsSFdCVsaq2IZjSlKRuhWASIFFmB2ZAjD2qdUA1YQbwnhnEUFgY4pzVBKW0OnmWFQYAXtRxlHZALbg3rZJHRhRQOd6izoXgX9D52nxyEhAA+fjvqAAor80BLwEVtAOHmOY0LfKwhfBWbYGiziarNMG85j7VLADoXGaAV1F7DHAz/TgqRPCVHThxKK8cA0kAYUBOEmBRDKWflQPA0gOUvnkcFAC3kLMKgPktZKA5ielaVMtd6eqqujqDtK51de1j6KZPiq5IXvnvpNiHjohGziQBBe3AOqS7GnOD1A4QkLtKvNelLAW8BY0BXqUVlvpfAaXK8b9kOO4V36fHcQjxBAjoymeU0O+U4QUpW6kzMcGzPVHXrXFUxz5vrQ8DSd3BAgw62p7EMW4QrDTPCmIY4Ck2gJYLPGQLnelj8tYEF2fu4VsqT4g0V2GMK+v2tl9yRk6h7LUBT0580D5IGvG9AF17vJplHC6yy1L1+F6QQc145HRipiR4vvElQUz1vsCijYv7oJ2Dh080pK5u8eNp4eNp4T99WuAGU09xDj7FBcGHIQJbDVmFTBf8mJj6HLRoeYsmoywpxySHopJ7xy4AiBOuyKeF1nYohiKvO9cBVcWAxnLWzaBiyKgO+lGXYB0as4sEEAaIabC9qCDpsv0iMQDhmktyh2AIBL0SQ+j98d4sXXn6vg7gD39f2h8OT0+Xh/rl//Jlnn+6vOrT7W8=);lineShape=1;" vertex="1" parent="1">
                    <mxGeometry x="404.53822122964175" y="220.82506120921778" width="3.8865388782265216" height="5.293964618959946" as="geometry"/>
                </mxCell>
                <mxCell id="68" value="" style="shape=stencil(lVfLctswDPwaXTHgE+Q5Tf8jM3FqTV0747ivvy9UDVsScjb2TVGwFnYXAMEpPLztn153k+e3y/n0dfdzfr7sp/Bp8n4+7nfn+aJPU3icwsPL6bz7cj59Pz6vf78+LZHL07fTj+UXfq24Eol5QXn+vb4J5OrfF5/X+MN87OMDBRninRB7AEhUwvgBRzEDQKHqBkB0JOl9QPWU6wBIgZIAQCYpAyAnSoB0rSQjaclUQUqO2cpaMiWGOeU0AGqgHKGudWRdC0X3PkCY3GhEl+VVRPLEJqdKDnjtScYvaJIZfICpjLJqNQqMt6KqRqCUmPxYScVTKsA2iqOkxcH4YAuvMAnIJ7df6+I9sKxafaQ206/nHzaEGRrmMvloAVCh0gTvJAoBlIQyZOuBBxwUIN6aHICoCnCGQ6QIUlIOyQASBUQ6ExvfMjngm/rAzgIS4FApi41HhZ0pbqZLBD7rPNw0ZkHzq+nRxaMhrxZsGhnHs/HYUwXDjtu07aqugkHhN4PFNUeuT7rmTtcGqOZKO5C6eEYl51u99ABA2KXWJH1GqPWlCdhTBhTuBiShOIqqBy8ircPKbwAerQr/ju2+rPEyYg4ckdYZ1wFsGyFnuO7oOc9mt4jkgEri7LoTPRyQubRC6PajggCx7QU3bmA52m7DK57Gh7FYPRwuujyZ7nfwFFfJjQm48FShMBJWF8Hw0kXHFCpjj3VaOBOP1iJJ9pT9IF5aujfmo6dBuYOv9m0sd+ips7ak6Xa/li67px7uvlJ8GK8P/+8vL/PhsF5/+v/b+46+Wu9K4fEP);lineShape=1;" vertex="1" parent="1">
                    <mxGeometry x="404.85039218276825" y="247.58497625674948" width="0.7072607663822998" height="2.1983711483990884" as="geometry"/>
                </mxCell>
                <mxCell id="69" value="" style="shape=stencil(lZbdUttADIWfxrdnpNX+XlN4D2YIjYc0YUKg5e3R1mOIlkSd3vnv88pHR8c7yc3L9v55MwV6OR0PT5vf88NpO8mPKYR5v90c55MeTXI7yc3j4bj5eTy87h+W8+f7/mQ/+nV462/4s3CNUEKnAr0vV2JCan+v3C3Abt6fAxmlGCAJWnWAhsoGyIKaXSCJAUoEeyUltGyAqis4QG2IFmiMFh1AVbIltYLE14FCyFYlJgLRdSITJNolGtiRKRGq7ZzqQE4jooBtI2oFO4BUkAVK84EMsrrmBhIHKGMjUkV1VIphXCGqW5zO6W1pFggITklaQK4G0CKzs0KuaMkCGSE53lARrZlU6OB8dG+TXUFbGfyBoGFG6V8zykPjCLFcB87c/OkNWoPh8hI6MBbQofJa3UdysGtbX3FZJh36YUg1GJySeqzYkr6i53KrBeXbjFYnBjQa6wBofHozmhCHoVZZHTN1QP4HkDima09Dx0whrm7+BBKyE0yc1rQ+i43ofHRBtW4tDHHaEMYwzrym7cXn1ar2AxKvKXLteWuLSODg1ZNsYgRfUc0TWz831xQcR4GYkZweBxmBBHEmRz0x/Bm0AY6garpBofHfpgdfO47HebdbNizn98cdil5adjdy+wE=);lineShape=1;" vertex="1" parent="1">
                    <mxGeometry x="404.9977812611437" y="244.00475617925036" width="0.27482215740309696" height="0.2756652198475352" as="geometry"/>
                </mxCell>
                <mxCell id="70" value="" style="shape=stencil(nZ3ZEtzGDUW/Rq+s3pdnJ/kPV1mOVXEsl+xsf59GVOTMXHBOy3nTAgyb3WgsFws/5O9+++n7Xz9+SOG33798/tvHf3364fefPuQ/fUjp0y8/ffzy6ff1pw/5zx/ydz9+/vLxr18+/+OXH77+/dfvjdL+9PfP/7Rf+PdXvpSO3o0rhf98/Zd6xPi/f/jLV/qfP/3ySh+L0NcB9PH87wf9nEifwgt9O1IG+nD0KvQ1IX0aQt9hPXEevb3Q9yPA7y/6pPSpA/3Q/e+4/kWfitAPou9Hjy/044i0nn7EIfR0vrEdrQn9ZPr4+r7zKAXo69Gz0E9af9XzjeGoINCxHONVgGI8AkjcYihTGfDIyhGTMtAdiFllIqbzme8YsiwpH4F2NZ2b+MRQKzLU12u53io0ZAhRGRo94drEi6EembY1nJt4MTS+muEoVRk6vMM8hmzSupuwq+vqy4LGkeGV19WXN76Uxxt6uTqmzEC0+9Fer85SrhHu5tJsr+s3ZQ9itzTt69VPGdffTpm86MuRYT31FMmLvuL+1yO8Xn3T7bA/xe3P0qWwnqKmaZ04CVw+xusVyOE0nm/oy+t+5ojnm9UU53Qah3vbd4zX9835fKM39LL/eWkyssWnpbvoK2rSpPKw6Cdd4NPSXfSNbd9RX+U5L2NIWvHIsv7BKuuIcl7zaLCfQZVuWaYJbFk4xqu8lXhq4Tf0TX5/mQ3Yn3Depot+2RH8/fIqP2XJA+xPOHJTerLd4Xz6RV9RPy/t9yqfpaGvEtR1Kv0o+L5J3negRVr0r/JZJup/R1/XDuP+pFd9UuPpHH0jfT6f+I30yzfi/Rf6hvrZ06/9BP3m6Fs4b9y3nVdLqH+C2uuWj4nryRI61KOBfQzqM7W+uV/tVT7bQH3l9EMP7JMdQegj6v/oQo20oRfHuC8vlHz18+2e6Fmfz9f97wVd+6T3q1f0f9J5+57oB9ovCU36kn+kF4e1d9zP7NbfcT35jKQu+oH6JJ/W7aKfZ6Tyzp9pSk/nVc7Tv0LDgLFeUf0/4unRvaEX+7XoO65H/LGRTo/rjT8ZX893sP6sRxlKP0H/V93PUXD9Te/jqLj+puc7GvrnK/SX/V8RAay/K7Sz6AfI8zh/7aIfZ0T2hl7Pd6I+n+pPLnq6j1P920U/KfIPGiDNywV5x9CiMtCJrSA4OgaEX+LNExpH/hI0GAMH8s29NEVVMSsCZgz0hKxx9mIYZDeKKurFgKBTVQRmRvRcF4OoinkFB+9greqegLFD18u8GCbt0lDrPdMJdb1FFocyoGhMjednxvjWHKKuDIUMclSPbjGQxrAQUZZUEJIwG+sYKjF44SsoS2ZF5KQrioap+aAMnRiae0JDu2ywxVQGChQNoy3KMEBaDXQVWep4gXJ0B9cxFs0X1PTEQLtk2IUsaZz2656haDi6GCj8y1XxwsXQaElNHYDFMOkJ3SmyidmXfK34iYFC0jydmpnnIu99pHBe+ScGCupK0ATJjiEqjGBLgitakuJ6k3MGi8EviYDGkjVSMwZCDosTvomeQHHYpJ00Lam6O83OeVnenntCoG3tTlonu9vDGfaJ8V2ZmgPYM2iyhz2+6iD9yemnGjW9tRgI810M0z2BQJeanNkdmFqp2TlY49RU9wzFnTTn9GrVHOnSrQTE1Xb6wU8MA+5DHRqqLgZSldX53ouBsNAWTmjmmQHOoaXzBj8zwDu0rOkYM1n0hKr472IgZdyaAjxmRSnBMjQiWwx0gdp0bmhDC9SDc38uPXLPkFz+tuEu9eycxIZZkF4Uxlj+EoUDvbon1NOTvWdoLgaqmDjpV43Ak5M44OAM2HEMJHyLQYWvINbZvWhkLGR4YEHf6KwvhlGUAeEA72skxC8XgyqyhLI0giIyM6EsLYYm2xrxPhjiNJWB4rjFULsykFc5kqIgFovSOyRNY1l4TAzZ2bjAOEvWgMOAEGIoZ57riYFi0VHVwRoD78O4kNQnbAnPobs6lIZg2lqAvjRnmx7g0DNcBzfuAUo84YEUZZlsCoCVsFBkOgR6MRDCt26wxEAmvwSRZa2OWVcKX7poEmbdcsI1ppOlfrmN7xg0DdARtrP4XHBrFo1ZXc1XxQu0LJrgGsuIUf2NGVlJNSTE+cxREGw/ondv/pckn+apC+8ZhjrrbSDa/fBSL4aGdtqiZ8lv1bMC4x3DkIRbQQfrEcBcDJllaWoKuUUENy0ulJwh5zQsGJak58SkjzG8PqF2rIpYDALzL/cdT3qqr1HZ/ZmuBrJmPumpMVBNCEgZg7x0RF/DMxQGEW4YOitj9w4rwsb7MDWdWQqXizn3pyT0Ko3hVZYKFwh54csTPeMHTnIxdNbezuczEOwPXdFcTqv3TgnMV0WWMyJYFp8LQ2JlPFzdVeBdGopVJobtLHqWyr2OUPx02ExqiLdamCcMhXVrO7IU47F3v4yiCJ/l++kdipabxck3rmj+LnJ9yHJORHtHjnYtvJDi4IowxfLIRAnEwnba4UtWzEtLCiqtkYsmpitgj+w6jOkKnLmsc1xVSxdDRIxsudKCYFkxLzvruq0RL9Bomgq2qm6OUBQuwlKF5TdrNIAWbnnBcn36ibG9i++1FoghiqLA5nJiCWWJup6CQWVzzlvG0iHz1F73J6E+aq52JTKWFhVbDujTV4cUc9q7DgXGAroLtWv8yYl7c7mUns7XINkg9CQ/hvnKFcPzWg6aWP6IEUx1sF5Ep7MGDbe5lKZMLWzICOwXF75khIeXbyZYbOHfd8apIBhWXK1UwdK/5ck5eiwtd4amnun+d/RSDVDRehdfa4pWZvmJoh8q5oby0LioYniau9Z6behd78CGvqi+2tBnrVXb0EcFqZk++QCH6YfK84a+6X3Z0LvcxYbelUls6JOmnDb0rrZ/S+/kAVsTgpfPBPotOqepnoj+O/qg6yfHcnm2U9dDaRej1/PCqq2hYGVFTMDoBaZAfbvoh66fAvw7evIHoov6KpbSG73uP57X0LRu5Uq+ofHVVn6C7ueOXuWZIJk4vb7ayafuP+7n1PRSxbD+ln6zHt1P8peM3sn/Zj+d/G9+X9e/u7+6/zt6PV+sxbu7jxt51vVv2oj9fdzIv7uPG32l66dQ/m5/KJFxt//UJv6H6acmPwvm3HxvSMFkkrdfBeXH20eGd7z93dA7+76hd/7Dht75Jxt65/9s6D28i/Tef9vQO/9wQ+/8zw2982839M5/3tA7/3xD7/x/pvfxRUH9XFzzdsHWSYuPdP8J/7H4y8V3tP7s6Uk/FNdLkhEnt/hUem8RtFvxb1V8Bqv/nD1lUNDid+l9xkRZdW0DEVuLanZIK8aztWhCNKA81Kq5k4D+zyMl9qCnYuE7/AfXP27oN/hV1fVQJVjUgqKASZDmoHHukDB8TzBfhK2b0yfpTA+8xSeltxrxk+6GbGwLrgQgbgwoO3vNrZmGD+uYE/KHDX+WKh/0l0bTXqoY+AW6OgQxoAcxhqYnd5j7PBGxJwZK+PgCmRixhH+6Q7DMBGVXgmpd607idIxcGxuVAuf2KA+7GAqnWJOmxWxsCSV8snvphqbMCgGFgat3Z3HDXSYWW01XH5xYNKzk000KIfjal6+kgjXO05VzJZ4NYeUrwtA5PTn0HB5dMe8YREXmgJjxdDFW5uLD6YL0nHmXpuYCc8EOYWuckHdomFfy1SiZZ6T44hIrOeCX1sgmYjW7MYhpSDimYDFIbGmFGSRLrtupNFQCMQSFDzbVJXccvE83HJVzQPYaEuOn7XtLkJx3AquoG8NQdnYC43C5+U1hUEdHxhh8vRUzaKEcp5b9HVrOGWED/pYu74xqu6cD91rh4qah2azGkwuma61uHf1hX/LSBib8Ht17F8NkxdG1X8N8Ri55EYimJz6H5ny+wqa6qkPTK1cHVo0CemNpra6sc7C7UVxpKneqzaIvPThSmlkzDSOytLqxVSOyIU03cxhQCSRNrozMRWau+3T54zSFcTmWAtePiucwnG1fHjwW1XRXqs0dtOv3xLFcz6QU7KhuHMPAGorh+sjGRPG28nXXiYBRTXYdIQHDuJFch1TkxoLk2mAiV0PFm44Q7KaIrlkooaocrjRiMeAYwOBanxm86Q48sCtFHVLT9cJlngTo0mmTiy4Xg58dQAVX3RmUyYGWdUj5liqGBKSMbXKlaXcGZW6KrpprtOGBUNZGINLaEHYzGKQpA8Wv3U0CtVEAtCTfd98YaQlOCXRMvbepRnF2vA+3XY/ktzY36GZys5B1bnZlIKTCekN9QyzhaXfdpxS03/a3Yiezn9YxcFqH9ehmZSBM2bqAizKQFa1Vfb7JKFktWgVnQTYxZPXuzfVl3FqHb0wGcqPGQJtGfesod436mUoRg7vTm3EGrrFgNzDhru+eurxuO/uR4W52AA59uJtOgAmcqkCcMVAFYHWdmxNT7LczHHBcrKupNAZakputbvEvbWu6eQdSxsWlMSd3bt5O66AWw+I84ycg4pbDRo4k94hNbtIfBBUndjf1gWXDelL8QBAaX1NvZpTgaLxyegrPiome4BI0c2AFjA3Icfo+0ZKilsBsbFaaLmfRMQmXXJHH5CxK6lpVZ30rNHfIN943POnkTRB3bVmdhvPhyHG1SomsDJRatpFUSRlwLLILd61HlopPonNnClazWbWKvENGCDX6uRIZ87/RZZtseAAVMHU3uCvhnJXYdRq3dfcQSOunM3EgZ58eEIbI80nrTTBKFyi6Lo/JKbbo2rFtLh0tyauZyIWIyRlqhn8sZZcdA51DVMB1citzvJvJgF83CG4mQ8DBvjbY0Q9FJJDMiVLARI2rNt0NWFCzbslYikTd4ICBoEZ3kN1AJ7epUzx4mpubhji4Jbm5yaOV3Xr3URNuZ6iq70bh+V7ufTMa56Kw1Ug4JaEoNGFTQciTdPsTUde5ar7BIzizG57B1QcO8u0sn04L9Ws45Rv64GBxamdz3XudZz0lVRCG/eDkZs1N8AwjN+PFkB+chC2IeOfRIm7ojM2boHLc00hc9FwG4fDzzrbV1WV0Hpca3MyPgDnfoPqwDTwv9yUBm7yOXwYQB6rVzeR1P2eCoEU3VLFxS7pL9W4n32tqeDdZX+l3k/uVfvdlAKXPCO7epbb5ywZKv/tygk+285cZlH67nzKYYSdvEpoV/mqZk7fC7QbhTC1d9AUTBP5LFzy/xnU/F85oB509VhIiiW5udomIxAc3q4MTU24yU544tMthfHmwn66lc3nzVTf1H3LDcsqoZRSZEw8uS5YLjyB2Y0AyQwfqP+SE+tB9fixHBLuzlvHlgP6z69ZNE/WVmzyReMinG0D+mIX/zp+UauuG9tTliTbtKg4sTfx1tmtGy0WfsLquaXCeOGnqph2YhwC/P9zkDx4VMtR/ePQzvYnX/mAJpfsAHyfro1OIsXF/lMuiRZ6FFZ1KiYU/VhAVnLNKVg7kRehi3n0ZQL+Pl3mX3MjumPgJ7h7HDWRT1NGKWwRGq3EjZjMXg+TeY+CDq072uPXgIQgXuMCtuM3BI/wZxKYlnTyf2ETffUGUbF93n5VhIM9VAnT+1IL7bCLPxLWPKspgO8QWoqtg5VEt/jNeXFJrzo0ED6irkytA4TmVFhy61lGQh5R8K/HmC8AyioRbvaw0PCk9f/PBty7yetT5261HP6uHxQIeXCjYGpOSbx2l2nijd6NC+H09PflyN/RkOO7Wj19sdvtTMXbw+8+jRf6PL1Rv6NcfHp/D/vHTzz9//Zr28//r57PXP3399Hb+838B);lineShape=1;" vertex="1" parent="1">
                    <mxGeometry x="357.4745824495046" y="196.00184647778144" width="52.86346635752562" height="23.997295591176137" as="geometry"/>
                </mxCell>
                <mxCell id="71" value="" style="shape=stencil(7VnLbhsxDPyavRKSqOc5Tf8jQJzGaBoHjtPH35dbV/FKVGbtoihaoDfbyzFFcjiitBNfPd/fPG0mZ54P+93HzZft7eF+4neTc9vH+81+e5BPE19PfHW3228+7Hcvj7fH7083s+X86dPu8/wPX484y+TDjHLm2/EXQ2x+/PD+aP+wfWztHTf2jiyyj+R9Y++J89v24t6lxj6SQ/aecrueTCkA+0LJNPbWUuK3AewVIJArACAe2ghsqTENAV5CiG1KufocAzKV0gIyefs2ILyGWAEsZXcA4Ci3HljSCsoQmLgNWqKCHphCbgDBkMUeYushBCqg0oH7wkVJA17Sz8evgEQe1EEDEpO5DJCJPQZ07Jb+W4mhAyQKgHwaUCx5QO8BwFNBQUsD2RYgS0JszWTaLJVCFmQp+l6TBBAjBNjcAxLywFVUFoAMYoiucnMJAHUQbmbfAwrQpWjIJwVAlRbV0B5QpRNxWzhrDOZ36FtuzYVUTgNA5WZhUpUrqCFGec3IgyWr2JdQDKYq4xKAlpQGZDKITCJ9XQdh2Ug6rbG2yBCQo4rBVUEfA0QZuQegfTpnRQ1XFzkEFOF37AFIBeRxUEuyoA6iW1EFDQGRYlEAsAXNZVIxIPkWIgSVJTiOnTpygUCb1km4lgDA76J1w9W9ewwQbqi8IjkugaKKAQ1AhQceUMvJnsZBAUDL5TLgN4pBGqI4lSWQVmm5omIIIOi5R3XhUAyp9suSTAiQKznPpKtkKeuWQ5UWNVYeYMtx3dPO71GjKg1lI1HWANQPpT5eZglo5bxDqcIxylJRw4OrYvh7AEKNbhCVvCG9T5qtuW5K/2eyPzuTtYX7O2ayogD/1kzmZT5S3EDjiXdK+uRUgzzooPG5aQDAJzMNWDn7DQD4dKkBK+fXAQCfkGdAm9aVM/gMaMV15ZQvgHTRPYIA4kU3FQLoJteVuxBvan+dedvCr+xf3uegS6xEpru1yxigzlmO4TWZS1WsF7deaHJ1Mk91ShaIgQcrZO48WJglK/NUm9ZMGaxIDQIRrkfy0VUZFtn0sxW+N1VjPb6WNb1mG3jeM30PGDi22f7cY+DaXdW1k7lBDVYlZGGOdo9+msL7n2INNpfhTv07WIw1FPrrcxTrTNl4QSqFw534rFSK+30ME+EXrv9X7OXD6V3D3fbh4fiqYvm8fzchPx3fa/D1dw==);lineShape=1;" vertex="1" parent="1">
                    <mxGeometry x="646.0360203353116" y="216.99959312441052" width="0.9198977246956391" height="20.17420308849158" as="geometry"/>
                </mxCell>
                <mxCell id="72" value="" style="shape=stencil(7VnJctswDP0aXzEkwPWcpv+RmTiNp2mccdLt7wvWQ0cEpZfm1kNutvRAYceDtJOr5/ubp/2O3fPL6fh1//Nw+3K/k0875sPj/f50eNFfO7neydXd8bT/cjp+f7w9/3+6acj269vxRzvh11lOHElpUux+n68wZfl74fMZ/3B4XOA5UIkD3r8h4CjU8QFCIW8L+Ew1DwKqY6lAIJIbBYKjGIEAE4dBIHqqvC1QKaUBn4S4bOMzBRnwOZAAhSIVN+CLUAXnB0qj/tUT+228UPEjPnYfb+BljHEtFOH57C2+Anu5W3fBV5KA8GnCJ3i+sMUX4M9L9Bf4ijKue+NSA86Rc0jA+0kh8ABHOU4GAwO0xsLkUIhnZ/FIf7VuTogE8c7iPT7f6J8pgabi+t0LnruHNxLCjwVcAkVYYCahtYBRAiXKI14bRALx1WiOCRc1xYH+2rHqGIDgex9eF0i2ZESbHm7TdQxZ6/TIpYncaIMeISDGqoCMQfO46kVvj31d6wiNmpBsn9NO7ECfi8HWmYSu5Hqchfzo1qBXQKCz75NoEekAjM6VwiiQPFSpaKWMgcuut7/13KsUx8AV7iN6S8COJ4bV0LrnGDidZwLaxWu7XQgUELimknlCeOsJpuJUIGMb2LQMpRnIS4VKsAIMSlQFpL5LYCJGTSVkQ+5NZWk0cmvuTly6FatkmFQLHIqDCsypAepBBcxoa8mHbchiBQLyUrHDWQUYFVCxNV3w9GlsqE4COL3DVHGCSzRPNZ2RW7XixMYBNbIFw1lIZNDvVx4ROu34VyMCpHmN5EwVhGhMC0SxAog4t1DPRY0id+E5CwGPK2g2GlHDdwuoAoYKZO4jY30EZUtvdexF8IRULR1rgxW4tY200Ush9qG0PqjFkg1JfSitU4FoVwDlXBnEQYqdisp/MuhkSmfiaLSyTLQkKRexT2C8JYltrsq5EvBS41OjW0XwIjylRsAqKQ817EQjE1E92E01he62jc2Zx/NzhEQ69uGxKDe0+ASbR7o4wLT42IQ/NuH/exM2rLPGvqJsBdj43/US3UhoZxih9K1so8Cy2UYE6p+omgbB8O1gtQkXPTlwvnYsQ2l1rYwoQaMl/m1yIIE8bZ3cnbZek0ovR9riL8v31uQwlPYS9S28WRQcNJmLJeWuT54tvNkrHFyzeeK/uEeow03MHIwxT8TRQXotU5E5yK7F2bnqYEbI9Mrbwz1N8WaF93Ahb3g2ePT6WvGGxTJ+8fLObwJv4/XH6weIu8PDw/n7xfK+/WChl84fO+T6Dw==);lineShape=1;" vertex="1" parent="1">
                    <mxGeometry x="644.9475976991989" y="216.4955997667612" width="3.958632660074041" height="3.4638995805124595" as="geometry"/>
                </mxCell>
                <mxCell id="73" value="" style="shape=stencil(lZfbchoxDIafZm81snzUdZq+R2ZCClMKGUJPb19vd9yuZfiBu2Wtj9VZ8uSfPrYv75tJ+ON8On7d/Ny9nreT/zSJ7A7bzWl3rk+Tf57809vxtPlyOn4/vC6/319myfnp2/HH/A+/Fs57CnmmhH8vbxwF/vvi8yK/3x3W8kIaenkmHyAQYwcIU0wQkNQDhRwGuAd8Is0AcKSuA0KiiIx2VLgDYsJGO8q+A1IkRV8I5HqVcsCAkpYOKAIDF5Ryb0MpxAAoSkE7QHOLzEVAqw3RAsit9TgNQIkAUEq9W7WQFAgUtUAGgavH3gBKTgEQSQYgguRTJhULFKBSiTaXKqBApcIkeQCAl3K0yTer5AHAlEejQeBSppwGtwIvpX/1tQ6cQCBlC6BsTWVwa8ZGC3m2QEBuza2+1gUEvFQr2BqdW0ldBqpb8/AFB5JPbBOYbUAlWt06qITiMMc12Tg44FbHPLipUEQlp8RDfjMq6tTitAIC6jMytD5tCXwtEHGoIMWh5l6llR8uZ1O6UEJoQjwM1LksZqTUbgisrpPfTOpqFup9wcrPQw59gHI/H25MUWd7wI0x7doicuceUFejPso3Fg3XivHOTaaOhr4l3ViV6ulDu9hQaXjXY1sFrhXeFWvNYOMWvmvJ4Ix4AP9eG5s34oJCy3Zl41Zxl+VDa2sreZQKxeYmlhexuYn1kdTMu89eUVtb2J1+yH0crXnvfyQZHr5X3JSvD/8vMW+7/X65A63P7aWnvlouTP75Dw==);lineShape=1;" vertex="1" parent="1">
                    <mxGeometry x="646.9173279685083" y="241.67631691731526" width="0.3696239936612247" height="4.376072433589022" as="geometry"/>
                </mxCell>
                <mxCell id="74" value="" style="shape=stencil(lZbdUttADIWfxrdnpNX+XlN4D2YIjYc0YUKg5e3R1mOIlkSd3vnv88pHR8c7yc3L9v55MwV6OR0PT5vf88NpO8mPKYR5v90c55MeTXI7yc3j4bj5eTy87h+W8+f7/mQ/+nV462/4s3CNUEKnAr0vV2JCan+v3C3Abt6fAxmlGCAJWnWAhsoGyIKaXSCJAUoEeyUltGyAqis4QG2IFmiMFh1AVbIltYLE14FCyFYlJgLRdSITJNolGtiRKRGq7ZzqQE4jooBtI2oFO4BUkAVK84EMsrrmBhIHKGMjUkV1VIphXCGqW5zO6W1pFggITklaQK4G0CKzs0KuaMkCGSE53lARrZlU6OB8dG+TXUFbGfyBoGFG6V8zykPjCLFcB87c/OkNWoPh8hI6MBbQofJa3UdysGtbX3FZJh36YUg1GJySeqzYkr6i53KrBeXbjFYnBjQa6wBofHozmhCHoVZZHTN1QP4HkDima09Dx0whrm7+BBKyE0yc1rQ+i43ofHRBtW4tDHHaEMYwzrym7cXn1ar2AxKvKXLteWuLSODg1ZNsYgRfUc0TWz831xQcR4GYkZweBxmBBHEmRz0x/Bm0AY6garpBofHfpgdfO47HebdbNizn98cdil5adjdy+wE=);lineShape=1;" vertex="1" parent="1">
                    <mxGeometry x="647.232648544699" y="239.72411386260933" width="0.27482215740289817" height="0.2756652198473861" as="geometry"/>
                </mxCell>
                <mxCell id="75" value="" style="shape=stencil(lVjZctswDPwavWJIgudzmv5HZuLUnrp2xnGvvy9YDWURtDf2myxjJRyLJaCJnz62L++byZmP8+n4ffN793reTvxlcm532G5Ou7NcTfw88dPb8bT5djr+PLzOv99fqmW9+nH8VZ/wZ8ZZY8iYCnPm73zLkCv/b3ydAfvdYQUohZLr7C0Fhvaht/fkHbTn1NlnStgf19tbRz5DgC09IBFHAIgU+ww5JjYAYCn2LrEkOd0GZElJ7xKnducqIMXm8ZLU0NJwFRAT5b4KgcmF24AgWbIdIFqyHgAMMfeATBkQwy+8aQCJyoC0cmgeL8yQSgOX2BL3MeRMBnDPFYq9S8VRBFkSbpY+rUIWlCUXGxEWQCYHsiTdYlS7XTr2KkL+7bNUCQ/obXShxd6A/jFUhucjf5zmtkRcEC8oDBnKoBcildEetEIhHwZ7EK+1lHgIwAIAU8gDAFTAet2cNaUgRTY0/VnXGBBb3lCyBjhQNIkhlwEAsiqiawdaMDoXGgnW9uAFqYn62h6ULZDxjzzfNdLc6b8lN7SNg23mhhpbQOvhWC6LIt+w16QrUOts4/CapEDquIn52h4wKA58wG2ZB+nF9tKWZggA6YRQ2owRAK2WphkpZ1DjhyblawBy6VGAjEID6QrSLkMp6pg/6fug+l4KidrAD1IkRybKatBSVA9llNWimVqPfXRkRj3gpQCzxIM61tEFuOSZUi8udTgCzRYWj9fjF4ghGi2PdcAD8hKLnhM4wTE4LYPKekgFb8jiUp9W0QS0KWQmryZzPGgLgNVkjkd5ATjFJbgriL2KGe8iQjRVBbzriH3s2w3vUvX5Vtsjf7hNoxd7CzRb9orstT3o/hzJ613QoOdnPZEbeOYUo+uFR1mRErULfmLvr/iP/IlX/AfxlmGLwvm8nBf31avu1tofxIeHl/c7AHJx+Vbwttvv508N6//1twW5NX+X4Od/);lineShape=1;" vertex="1" parent="1">
                    <mxGeometry x="689.7637480879337" y="217.7550049082647" width="0.7133758145022998" height="21.31308021774297" as="geometry"/>
                </mxCell>
                <mxCell id="76" value="" style="shape=stencil(lVjLctswDPwaXTEkwec5Tf8jM3FqT90447ivvy9YlYoISpvmZktYkQAWwJIT370eH14OkzOvt+vl6+Hn6fF2nPjT5Nzp+Xi4nm7ya+L7ie+eLtfDl+vl+/Pj/P/loVrWX98uP+oXfs04dpRSRTnze36SyOa/Dz7P9ufT88reZWLX2dtE7AGAKccOICukAABGA9hTifsA2YDvt+SZGPhgmVLpAMGRQQBDvg9SKBTdPiBp+xio8L59INe7nEx7sr0hHaLkyIOYGjKm30+kCL5vmneLvUQABYiK1wENZt9eEmB1xpB92KCEAfFMjTAL5zzFdxLcA6wkrGAK9RnO7cEeR2NvzzCgzpHtI2ooWGAvVeuUvUEJYDJB7ccAArHwvS+ZQgYQyCcyfYYlAojRQRLEfcoiFeBBlJLtPebU9rgNKOT6FPhMBcQ0xVZTqypAQcpMrvdByhiVfS4tqQuLLFlAoxLI9LQohizwoRRK/ZbK0pv2AMVpAMqDNUNzKTIjQCLqEkEDMiiG6oQiX4EzR14HpwEJOCGv/w29FaCABl933Du9isMewvOwBEpdJjN4jZqYJCoPKzBaYWhK1S1A8ArwGsCgqgWQBjZlRL+0QT+PUp3JDQCLMxdUqmObXnsANUwqAK0gUR9qDjXLmlevAYzyUFoQVwCkqSrVFJeWuO0CsgYkDFAjutYU7gJKY9SqxQA2GpBRWHNrvuuKQysINcIAwCu4YUtIBlR6Ww2A9P4wgFvUF4DDQ0tqundaxpgFjUxGFPcriPhE7TsNo73ObuBDXEp+kZMGtkqZy64HiF5JSG24QSCWJri29UzQW7KlxW1bMGXNVmuh5JaDmFUaHc6TqviUJoYVLa8Hew/sxT+V5tCkxLZ9aCR4m4iQqVZYM0hElIP6PSURA0XEVPJ9ROtBEinEdmpcBKKHbdgPx0huPPy/U4/wFk0e1meAmOE8F46q73uouXMTUcv+M6zLyuB+AanLgABByyovJ1cEkA6sjklylAcNVU6eSkHXskGAkaahdf3tJBjdUOWwDkgk9op1HvYusVcizMOrBbZabvuW9j17lWUPSST2SX+f0X6cPpJ4eBUh9hy1vyBhYq90Ai5iHtpKgJdBYq9UgjAE+6tGR8R8cHqCRyjVPnoh9769/Hi7/Xs6nc/z5eH6vb4tlEfzTSPf/wE=);lineShape=1;" vertex="1" parent="1">
                    <mxGeometry x="689.211694054517" y="218.8544806974906" width="4.622840473947307" height="3.5447501500747136" as="geometry"/>
                </mxCell>
                <mxCell id="77" value="" style="shape=stencil(lVfbcloxDPwaXjW2fNVzmv5HZkIKUwoZQnr5++qUGo7lw5K8HcyuLUuri1fh4W3z9LpesXs7HQ/f17+2z6fNKnxZMW/3m/Vxe9KvVXhchYeXw3H97Xh43z+ff78+Tcjp68fh57TD7zPPO0fOTTR2f/4vkfC/ha9nwm67nxFEqNYeH8lHSOD+AC6U0AmFxHeEUIgRIVEpHSFW8hkQmErqCEkoAEKtVENHKI4yIgQS6QjVQbeWQrn30nSm3CZkaX83gkQqwKR8MeBCqBTrbULylGIf6atYFhnRU839EUIRXCIwcR85yS00iwQOFHr1aSzZ3yaoOG0gCjkQCEexj0PRI8EB6hGjDBUX8JHik8U7cGO1pw9C8W1l+cLke4+qUgXguWXKDJ+AKi7emOEj8GdsApjjgUwTpQGP/JmH/dUDKNHIDfgM7lsoDPFFeijkxeIFxDe302d6SwH5pyaLF5BikarRcyRGKUmZLT4A/zDFNOxfkD6jH+wHenC2LioelRTXoj/3P85fZ/HIfmcr1qQfkF/OlmnFO2C/ltAhv5A+2TbLKb+A3rRZuwEP8iURx8EemI/MFi/An5kkWP+grvRZvAag9IQaYcdgaf1h1olRhoWhBGlPqiCFYxi6XmpVY5kgtolpm3SoSGgV8vaEgKaJaGU3zUiozHk7c2lfTUAXOuCYQqQTkUMjFFMalI06d80UzFRX2zyyTBAbh3gxcnlu9BT6O2jsBYhPnRj77qr9IYLAKUF6k+5N12xHrjvjO7dqe8WjdiyDVj0MguJLv7+D5VGHVjNvudZwb8363u7vgU6nRLH7oxFW8dXuD/GlTScftKdaRdy5r9h6fcefYuenO/HS0mKff0gPn34vfoCgH9fn6ct2tzu/buf/2+esLp2fwuHxLw==);lineShape=1;" vertex="1" parent="1">
                    <mxGeometry x="687.8625481205711" y="246.71234978906898" width="1.7333029721359579" height="3.1998569099613747" as="geometry"/>
                </mxCell>
                <mxCell id="78" value="" style="shape=stencil(lVbLcsIwDPyaXDW2ZMvyuY//YKa0ZEqhQ+nr76s044Bc0ExvIdnFWnlX9kA3b5vV63rA8HY87J/Xn+PDcTPQ7YA47jbrw3jUp4HuBrp53B/WT4f9++5h/v26mpDT08v+Y/qHr5nHFVKeWBi+5zcJKv++uJ/x23F3hi8JIht8hEIOvkKJBh8ghut4yZB7PObr+BpauQ2PrcDL+AxJDD4DO/VXAQ5WbwByBMQQIHQMXaI4S1TIZCVEiNUhFMBkCQwoDoGAbJMoQIrOLgiQ3QUiiE6bBIE7ghrFEV0YhPsVkmek2Jp4psFzKhfIloAFgmMlVudXS0AITluVgFZ0ZMjOxnFu1lkI0XUrS582BvKahL27dV+Sgy8gfdqS0yKhpu+ED16aK0zfzLQgp56qprH1JCB0k1BsEsTVq1Hr8JFAfIJYwbECeVGTFt1lB5Kf/gRiPYHVTc5EiP8iSD+CU2hpvSaa7a5l9AkaNatBo5G8krB9boSyzP3LRlLRdkbqQRG8+ZL7KVx9DUz9uFBV7Ox0jn/SH/w0kPR91U4nx96a9mztqsdXdWo6nTRLmxYDX1YNbE9/iW2CXMT/Odt0LKMZYPpwums8jtvtfFU5/97fTfTVfK+hux8=);lineShape=1;" vertex="1" parent="1">
                    <mxGeometry x="689.0844825458607" y="245.0436794655286" width="0.4169624560300128" height="0.4366962633851029" as="geometry"/>
                </mxCell>
                <mxCell id="79" value="" style="shape=stencil(pZ3ZrhzHjkW/Rq+JmIfnO/yHActXwnVbhiz38PcdbCOzqjazVuCg3zRwnxOZwWCQm0N+yn/748tPv3/+lMIfP75/+/fn//r6848vn/LfP6X09bcvn79//bH+9Cn/41P+2y/fvn/+1/dvf/72819///0nk7Q//ce3/7Sf8N9/4WI8YjNUCv9z/Uur//cv//wL8OvX354B4Wj5g4DoAeM9YB59qHxvJJ+d/Azv5ccxRT4dMZJ8nSqfO8mnqPK9vJfvx6iv8vmI8H76UbPK90TyUdZfjgQ/vx3DyQ9YfzuaPG89CrzPduSk8hPXE+T9tKOCwtVjhFf5foRJ8s3JN1j/9XSX/DgiridllR+Z5IPIz6OBvhU9LynggSxHed3ftM4XvJ9yxP4qv/QT9C2f2nLJl6OhfJGfvzQE1pPP3bzkB+pzOtqrfA5HgvezTvfr/uZ0JFh/VHuS1xuD8xLdei4NfyNfXvU/dzyP8Uiv7z9PPC/xCK/rLxHtYTjmq36WhPoWTm2/5MsRQJ/DaS0v+XXi4Lxc2n7JLwsG+xXUnpdxavg7eVn/RH0OR3m9UWtE/Qmntl/y6bwR3sm/2s+6TjT+/PS6v3XZW7hPr9NxyffTYryTl/UMtOdB76MWTg1/J/+6/hZR/4Pev21ZDPAH3PO2pZ/488U+LPmJ70f2t9Xzhn2nb/Lz22nh3+n/63lpfaOfXdYz0J9Z511+/sT3eVmPJ/nK9up1PT0cAfRz2cOh8hXl2+v90pfFQ3s+nDz5M0nt55Kn8+vul54291dtKk/+cFL/p+fTYry7T6vKk3+S1f70cmR43nzUofID1u/8h15RP4v6A0ue/Rldfzst0ht5ff/L/8T1DPfzJ/qHQfStHxn9Q11/Pzr6q3Lf9bHxh0dT+YL+eSwqT/FXU3+mrwgO4wuxV0ue9ref3ukpP8LpEb2RL1nlO6y/q38ylsXDeFP8+RHxvhvn7j/Jd4w3Jf4aCfd3qH1b8hnja7FvS570f6o9H2yvpvpXS57OyzzfxiXP8XIMbgPy6aK9A+SgANqB6FzKUXALFmAGBdAdE6MGkQtApIJxLKIVFb3umM5L8QlQ6DckjSMXYNAzJA2URsPAOa6bIyiALFEsp+PwBMAlFfUNRj/ZqntA1ct7AXBJVb2nBaDoxMgNeYaB4Vj09m6gPTV6oysAA8ShHvsC0I2zAP434D5M9RkNQAdoOtUYZ1j6DjCGA8Bb8mGBAcitu26NZwA8gzm+8tCXqX0HEM9uARI8dPJHdGIovXyv1BVAO23k0Ku2zsDPUNVbWwCKLs29iAqg8NXufwHwfWsXdFPAhCNqDLIAEnpsntKeFyl17wKHM2J6ApAu5ahB+Mzo1OaoN9ACZNi4nPTELQCFddnxdAvQGNDdMwxwrHJRJnauCwC0NVc1lQtAruECCDe/AJVio6bBzgJgMNWPJLpU0dwvwKwKoPAoO/9wARotaTpd4os9e/WueIBKOAPGC9Bw4xZgJgeAjStRSTgDgNUoSZ3EPUB3uqGDVbLmwfaA9rHfUPSe3gM++BuqcnF7wHAbR+R4ce7PAhBbX1z4tgAUzpShfNwC0A1Upt6is3GCaHkCTr0pfqjJ2aWG5r4u0yuAy47cA4q6DpNJ3XodyCdAJ1bCX7sDabY6bgDEUxmt3BVAF0q9fJcnwKTMZDgd5wswUVubt0vzDBDuAdFt3MRYtCVnNTibswASHhuAfoOLsuZE1WjFXVkTE3atKsO4AAnOwwJM99AUKbbmvJmJytf8LcoBh3HeRQF0HnrQtOnkKKs7HnwyL9+Xdx8UgIUD2V2KHUOafiWWngCUiu4u170A+AwuPF6AQK+1KVtkxhjUu3fn3Tc0ld3VV0zmkxdgOveH1Nv4VOdVYgXHcNpaMAXfp+aQJlNeIzhnPWHSaQGaAyDrGDW0tLAMdnoB1HUIyJwYjVkUQOHxAkimYXBmd2RHzU7U1gdv+MQJUK52OBfO6CIil8vJxT4BEgNEl0Y72ct7QFVnfbB3v/5bH7pilDWae+iCpnIBmiNoyXovgFKPGXNu6yVmYeE4Yh8+K5DQMzZW71W9R0Qm0TRHlhSQwTKSbiiAQvylzFEyh5NP3NQAfAGIdTA26fWhl2mr4C8Zm+SSY2SMjU0qCqBstRkVSUe1k9O6B0TNDtitB29pXuWLF6DgEV2WNLmMLOnSw1ZfgIisw3SGrAe8HxZgSlL/8sbvAa7KbLlclCWezklcXmClMlFXt7c8WcwzuUTl8saJMzbPQgABM32z6y26YhbyBBZAfO8Vd5G/tACSnLXiH3oGx92vYJPMjHmpsqSAxng6M7MibMwPTqVaCifULVqQijCuKLQA5tXMlIQpXQuR5BkCH6CpZH/moqfpOLLckeebU92fvDEzU0P8nFmXptIUOSK5uQBCF6WJl6IBXpf0KHZ+u3GuFpS8yke4fQHKGRW9AwjrYPUy9FqHlkOniOk1IyVej2gK6CQugDBYViDMJ04rupmbmS7ajQ0DDgvz5DdUDAeMTXrV1lgwS7MAYoytKp3OQ1NnPXL+wVg9AWx22sWilhOn31A1Yo+Rn6G40v3AupT1BuL8naWVJEDBcGO5JmLsO58eXyuJzM8jx3pdJljmsLxoiWYKUlHLr5cUakYyYMUVepi5VSS7s4xktFXGyEFDl2S5/HLvROSuh2OWI5aOW1j/eiwDZnKsEkvlKVVk3nsT+Qr6ZtzKFHlyRpYrnpw8cTfugHFp8aPy8kme+N6p+rmRb1qrupHPGhSyfHUX7Ea+ffDnJ3VCWL5MdU838l3jkI284xc38lnz6Bv59MGf73otNvJB/RuWz84JZF88XzT5Q56qxJbTKjRHxBtv+azaa3deIPfyjtlJWF6Vi1JHCRM2y8MVkj0jO7AcXPEJymlQb+WT83gr8t9WSiIxKUY29t96/9J9mqqm5gcSA748Z2BMbbXdwmJxkVRS1msis2HXp5Dx6J9YxZNQ68hVpui4e9R/61UQFhv1LTmyKDIj4Js5YuBi/+D6cS+bcQuIU9kl69Cl6tapaaPITkF08bqVr3K9oJyayG5KdCXPkUuqV7wjqeDIPWtW8xgcADRvAcTT3QGaix4itwE6dskA9JaaEvGP5u13AEl9GYB0qTr3cgvQ0HULCE418BmKi0Q3b6moS7fbh6w+iwGolDTfPTQB0p22ki6lm6b8HcAviWuxozsPVLcZXZdT3HRRJWXuI9dt3gLGZkkewA8t9GwMeP0/BgM8A8guJcdqBHQYDOCeYQNIznoTBxedS2vPwNqa3DOQUxVdusL2gXfaA7B42y8pcguif+jIPYX+tW5uIL9x+yPqzf0GEN0z8D6oerM3f39EP3riyF+6P6K802pmArfeeEMWuDfBm8qA40hujPH+TH8UoPfDxoXzN9AWoHfcBuBvUR4qcXNPByzOu/EEmGu68TUCZoFuvJmAdZs3/tLmN3iPbPMM3ufbvCXvVW72wfutm532nvEWMP1b2nj36UNvyWVQDEDGeGrYHQOWFSxAdieOcmUWZTnlI6rf4jj30OQvJUcNTbSUDyb3IU+alNygJy48TS41MM+6h7ehutSooWOf3BW96ZZKWsw78GIwKkPliapKxdXjYNiQXCl85/fftHyn7dqYpsrjeqaalorFb0aFve5v4SkBrn0hY6rCqLxXea47yE2py4iutlGRYhnRw8uOY+DLwKhUlSf9N6o2ijxFYHdUMLm0d1Qzyt9Q2Sh/Q5Wj/A0Vj/I3VD/K36QSSP4uVYHyN6kQlL9JtZD8XSoH5W9SRSh/k4oi+btUF8rfpNKoResuVYfyN6lAClb6uHleSh1OtQ+BSxODFvizRzCCpirYVxyuIZ9j3uH6yyLaZ0tViwPOtZtFeywS8syjqWOZubj6GkL0uF/IPg/nw/FUpenGMFUuSIyaquYWq5lcOzfq88yu2Qj9vVnUnkxMtViXp4uXsJylqULHiGHobK54gVViNhcJZK5/6S6qzMgfTFcPEgvPDu2uSqhyldBw/EFDP3H6lGnf/QadHzowwJpDB+bFiXyaFVRKlUpEW2cFlVLIx9Xt07VAmrfIZXYylM8K+UhbXX1k4sYHK3eUVPHEMHQBxOBlTl4bQEo22eWNIagNy9z5YL/ideesKpQfQhKiy++k1Jov8nz0Ur/dObHDabcRWmxbuBpxatFWaax9rv2pDC5fdPNHKpOC/lBXnmk53VCnWjCcsIpK+Q2boueu/n7lAHa6OVktcMW989is2ZT2wRFqNimRdrq6UY+VK1uL1i82jqpt4IMsiVtLp+uB7Ewwz6SdDz1hIG6zQIQYyFjUMV2Rg/nepN5RT1yvXKIflGDum0suuJl3nQtV3ZDOPjC7sdw9nfI3cKrnAkjndJ/4lsbUlM4I2B5rI4dcvxRVjwxX/bicfOr+Hm40+OBRkcO5MyssoIIxm0YlS8rsdnc33Y2ntKw4QP3iwjWxzU1TK+j02Rgx1z9IttUGlbmWxsQtjcEBqKJl3M0Jo0Kq4fIng4cMD5ehMXXk0mTpvRtcS2VT9V4P0GRG2lTNAYi3H36mEE8+tuNSFUCktx1IN3kJC8R9F/5muP5Ub31mdL67q46abL2NyHD95djM7edTcRVidykdu+qJ6/GzOxqGWd2POeIZ+7262R2dK7mrqxTsXLpetLRz8tw8m4YwFED3dPfnYSDl06NSFJPH4HV3i05OirR5M1mDzExzWQXroIITZ5M1ogJwYImf6MA1mzYdxC2JnHWbP+ImnJDVsAkn7hmIe/MzVJ5Cu3cIneAzeed8em3y1Fw3MvQR2r0DZLckurOqK3Y23aDBxa67x5gImnM03JSJgf0x1TXUzoHaZ6PtHYAOxArbJGqyZjmac+TH5XRMVFVXxzM7NnFV9wEEiwUplTSdJetICtgILDfGix66uPY+a8ej7I3jEifH+LeDwkhbb0eRUc7/dtjZBuDHqSHgbmDbBuBHwiHgbujcBuDH2lHkdzs4DwF3o/ko0Vv8kK2GTVrZDXzeTHjLLvLbzJDL426WH/2G7h668qjK7gYjMS+d/QHioULZHyDuwLVhmEEB5PTl4qxG4Y3LGirauE2qSchaLmj8Dg8lVcuXsYIx+4aSjFmU7DtEMk/PdB0fM/PMXcfQzozl5Gm46WiJS2EcWWkcFbU9dbcPEUuxU7sBbBqZ1OnjdKiV52QFkOWz9KSbBoUFNEkLMsaVYrgHRHUdbHwUl1QpI8UU1s1I6c38Zj+0mkfz3YzFnjgj6Gbw9txVzgX3lijisOyYeway3nFojD94WmDsWio1eHhHdG7oY7bSPaApWWlcIVfDSphlXCE9Q3WTujvmdaKj1h/N9u8A+kGAzkvKNzTcpqxfDNngwaqWj3YAuhTtS5B+dhlVkkatgloA/LhQ1LI1G3bGn8PUIe6Fu+mCG+Jeth/cdABMBKkzMwrnFNXN3XweYzq92EzucGYyo8UYGvPZB0Hwgyw6F40/uDbcYU6oE0NvnpHQ7enuExERp9l58xWZcXRNvdwc1t3B5/6FppVHmw/uNF1Pn0iLNV1P5zuqavzceVZZdR8UG8hYVdXPPjg+1/3tHfmqorf+ksepAi4duAn/1T70hgYlK2dotX4Uu7j18wDV7Eb2VeyRzm79BW/jpMxZL3hruCE6PXMXuZuCyKVxrj9o80G3qPa5J0wzRq1E6xEdWT8EiCez+gGIXFISlRvtAZ3Suw8O8gcfhR9oE/UzaGViG2jPXaV265sPMkql82M89Rv5JOupmw9KSij0GLD9Rl6Cs8ZRtfteln1AEz/AqkMvOIsXdLS8fQCU5V0lDH/AVJ7XPmCKH7gUIqRW9FuDdnLWgvdR0PvCatXxA7tJho5EzFm6r2mUiZ59UHtVuFbD6X9pmHlwxSOlIl/nP+CbN/ovSeCSsPzFZU7KpntY9Sdz1B11vzJnBNw3APImKNHOkpzRn3Gdxjnh+U1uPQHtiQvbjGDC+1pnNPIHN7MWWyT+OF5Re2IjHT/yAVDbEfSXpHLfTgRR4q7ZliszHBcW+T6qrsWTPylXldKPm4+FuPEtDf0f97WG2NAfbq7XvmLJUdMAOPKnDJvL3vIUQcfuWFU6vE/3xZklT/F1d+vZzNZ3kwISt34oZ2G0B5Vw3UyqwYL0m7kzxPv7iUQRi8Wj75XlOZqP/uEnAE6Rcc2vuykyUbOL+99wM0CCKEL3Rc/IxVLRNQDav2yW5PYN44aoNTcGYHrNA/CmvFsSHc3bh8ZvVd69VgrmbzcOm/7vVAP5uDvl+38C1h9+/+nHl7/+8svXX3/948f3b//+/Pz/v3z7/vlf37/9+dvP1z/98eWn3z+vv/0v);lineShape=1;" vertex="1" parent="1">
                    <mxGeometry x="637.3769320986369" y="195.35127769238443" width="60.11195875509269" height="24.76931724790612" as="geometry"/>
                </mxCell>
                <mxCell id="80" value="&lt;pre style=&quot;border: 1px solid var(--card-border); font-style: normal; font-variant-ligatures: normal; font-variant-caps: normal; font-weight: 400; letter-spacing: normal; orphans: 2; text-indent: 0px; text-transform: none; widows: 2; -webkit-text-stroke-width: 0px; background: var(--card-background) !important; text-decoration-thickness: initial; text-decoration-style: initial; text-decoration-color: initial; box-sizing: border-box; line-height: 1.7em; padding: 10px; border-radius: 4px; word-spacing: 4px; color: rgb(165, 165, 165); text-align: start; font-family: urw-din !important; font-size: 17px !important;&quot;&gt;&lt;span style=&quot;border-color: rgb(0, 0, 0); box-sizing: border-box; line-height: 1.7em; font-size: 18px; font-family: urw-din !important;&quot;&gt;arr[ ] = {2, 7, 9, 5, 8, 7, 4} &lt;br style=&quot;border-color: rgb(0, 0, 0);&quot;&gt;&lt;/span&gt;&lt;/pre&gt;" style="text;whiteSpace=wrap;html=1;" vertex="1" parent="1">
                    <mxGeometry x="790" y="160.92" width="250" height="90" as="geometry"/>
                </mxCell>
                <mxCell id="81" value="" style="shape=stencil(7VjJUhtBDP0aX1Vq9X4myX9QhQmuEEwZsv191DETT0vmORxTxW081pvW8rT1Jl493V0/bjfCT8+H/Zftj93N890mftiI7B7utofdsz5t4sdNvLrdH7afD/tvDzfH34/XQ3I8fd1/H1/4ecTFStwGSvjX8Q1Trn9efDrK3+8eVvJSqfMkHykGIK9/z9+vFAXIBwplkg9MFSgUGtX5gJCXI88DKtU4AcaZEQJkVkkaMbBZAZxmHxUMKNRnQErUMgS02eicKOATXr63AEqkBOIwALOXqsBAD4BMgMY4DgoIM6BSKgDQKc9G9wiNlkIyG93V0QAQG4k5oUEvZaYyB653ioBLOZCIBSQQ6QHIFpCBl1Sl6lQqIA6pU3UqVQRQL0ULaCBFU7E1QAEvhD8PSDbjBgCpJEt+naoGEzMIdT/jpt4BoFJhBwCRi5mqAzRgREy29A0AsiESVxdqYEOOttgrv1G1b+KM1uIK2NfSUt1XAAGhbsWxL1MAbm1/6b8GAC91oRzfBMhLCq8BwOiu1MjOaGCDhkmqcyuqlSc2rxAZFJqRw+4IVAaUCSVYQAO1T2uprX0ZZnVPxCZyuC127cvJARCZGoXuAMCGls9woyN+a9f0XkJ0FZdyWheA0S1QcfxGBV9PEKdSQifEMycIqgJqok85BNCq0h0ARzq7DII5mig58qEhbnR+n6NIpWbnmVNdeC3jvJcSyri+UG2doviE4IoA6tRvBrzPM+/zzH80z4i4ULfFDecTwtWlCr0qi77rjQOkAy/d5h9XGi+Pdya2tLiwlLmp4cLW5+QvrJVOnwt7q8rPyX9hMWYKc6KNzRvEi207H6s9sDfYbh7weBvt7BkY8k0bwMy3Chttt1cZEc6doVGc84Vh49cF2oRL2YbYzzaBeZmvXru7qdnK47uh0o08A/aIm0MYskfJYubHCzVU3cdWHrAn6mbh5EF4o1uOeFHw1Ypr7RVQfTSZzM2Wxhd9v9r0Yti733pXeFleH04Xk7e7+/vjveb6f3uRqa+Ol6Dx428=);lineShape=1;" vertex="1" parent="1">
                    <mxGeometry x="926.2255611033593" y="220.20329091313937" width="1.0560764010360235" height="20.4822766265837" as="geometry"/>
                </mxCell>
                <mxCell id="82" value="" style="shape=stencil(lVjLctswDPwaXzEEHyB5TtP/yEycxtM0zjju6+8L1UPFgKT15OYoWJFcAIuldunu/fnhbb+L4f18On7f/z48np936csuxsPr8/50OOuvXbrfpbun42n/7XT8+fp4+fvtYYqcfv04/pre8OeC69R4AsXw9/IgCdX0/8nXS/zL4fUqvlCPJr4UymU7PlFJJl4qNUHxoZj4WqhEtB8XL0KBt+Mbid1PqVTAfjgOOgYgV+IAAEKteka5bgNioGYp1UMhimIejAwA18HCOqARW5I4UGggCUzVrpCpgjOnQqnZBSiCIkqdWEy87ge8P2sVVff+1EF8o+SyTA0QVBIl2wWa9pgBoI3zzTkLY8lVgCSKliHtvI4AuoJLARODRqiLzilxZGUdUCnbLclMw3rrMIkF6JqMACoWltYWqIA89DB6dwYoDWCF3ilYlrpWKkicAlyldlUQkAcFSPcAJBgK6MEChCLofw5z8c8ILDHTEtUDOt6Tk5jeqKJEdN9w+iTjLbmGmNZEvLahcR+ahEVAEXmxpwZUQAEcPQDNEmWxZU9TxwCpHsAoEQqwBa5PUM9NAFevMmjYPIPbUqGKVlgMBwUwzlxx5ao9B4RmSnVfAG4UU/WAjgES/BkSrm+faRlKstlyizw0AFjvakE09QVNM9Obp7YtNBGHAal4wI3a8KeepWcL4BPRsTJ9FtCWKqCjGqhAy5TdTMnQ4dZ5MM9jDqdaHarLg3pQNNuruiMLKDKacN0MaM87E1qgyxUd1Vb6UsaGRrzORLxCYT+D1IRmkDi1zdGZUB7quWX6gu0HHXIg0WoqXWXIENv1eBkT7eP90BSr2XHNQIJc90JjOEPXqvvNliE1lajbYvRWI85uZV2U1C7ZwssBaj1rEdgzaN4TMjPsV5AIB1z1vaPNkUH84jo2WUqQtYUKT80MKAqLomO4/+BTIGXY6o37rbv5lAjVSLxz0zKsYP91uNmr+AAaX+2H3X+KlJHYkdiCSAxrtHmDPt0twYxqXq01HnWZeovg4xuagZ5/PS90bF5UNB612DxQr/hHtzAVCSsqKtToa4EOJ6sR6cb9xQ8zjYdW6pPfg27H64+Pj09Ph5eXy7er6//7j1X66PKhK93/Aw==);lineShape=1;" vertex="1" parent="1">
                    <mxGeometry x="924.6754299918916" y="220.95238389624575" width="7.4488067220075775" height="3.3634259669572475" as="geometry"/>
                </mxCell>
                <mxCell id="83" value="" style="shape=stencil(lVjbUhsxDP2avGpsy5btZ0r/gxlCyZQSJkAvf1+5qWEt7x7C2xJ0bOno7h1fPd/fPO13wT2/nI7f978Oty/3O/6yC+HweL8/HV70a8fXO766O572307H18fb899PN02yff04/mwn/D7jMklpoOD+nH9wFOu/H76exR8Oj4N4SoM4k0vb4oW8G8SFit8Wr8Tj6d6Rc9vy3lOKIyCSBxf4REFGQIUGKB1htCBEygEAhIIfGXJUgQ3MFAylSjJvA6KnUAdAjF3JdUClPN6QHEneBqRMZaQ1CQmICkmWJQkUgA3Zkx9VkkwB0JoT1TAA9IiEAJWER0AiB2wogcpIa85UQSyVRHE0urju+3VAJjfSqnf6CACF2NzAVJENdVIpUQaAqtk+0qpKCsiH6ieAEg2CrwaKYz7oESj4FFBGx1WmggBagswNQh6EhgJkDL76RvQ6IFLKI6BSBY5TG5K3AI/8MBtde7Bs2WBvKDBa1YZYLADW4kQSLSALAGhtl08ByuS4D1RSEycboNG1h9qFtHr31nAu9ZxGwuQ5RhlUe4NdABKKPmVxUklQfGsKiwVkdINQnGjKoHxrbJie1QBIpWjrfbMBscS2UTeWcMrJRGv8oDBNgIBUCnZUasGEQmPq7C1c0Q2xt4NlQiCj1Q9zjqJaqZ6eVII5mteqADK6TH4ouHzXlcKEmtxqxqE2up7UqOB/HtHa5ljLFmesI6TTsuxCIOkUEIzd2ucwwBlnMxxFy1zyPUzrEm2ladMACCedXywgU0YzU7AqqZIF3TCtBKqkQwA3DVmhZ9X6ZFlsHWhHoGFX3TQC9AjUhXLoXW0xu6LJUqqdv3U6FnCD6DQwxpLO36hrpdJ71GLC5wIAvsfmYodAtSzqGGcADk4DHK2ndQ9icEOY2hzjYVd3Qx5rGXtyIB8890BYbIsFJZCV97iUxb4ZLvdd4IVg+0NbqMH5yrhZy/pcuiH+f86+7DVgKqr4rcH1Vf5dnEEj0cOiEQ8g73Urz0bcA3FvC5caA4mP9lnFASK559JCHG30tmRh8Wk7x8pIj/HLTJVewC8jMtuQxG7KlCzvKAg+/Zz1gbh+vL+c3R0eHs4Pb8v/25c2/en8SsfXfwE=);lineShape=1;" vertex="1" parent="1">
                    <mxGeometry x="973.7215126579326" y="222.44674821772628" width="2.610510959013675" height="20.146076542292068" as="geometry"/>
                </mxCell>
                <mxCell id="84" value="" style="shape=stencil(lVjZctswDPwav2J4E3hO0//ITJzG0zTOOE6Pvy9Ul4oBWevkTZa5JI4FsNQm37w+3r1sNym8Hg/779tfu/vj4yZ/2aS0e37cHnZHfdrk202+edgftt8O+7fn+9Pvl7tp5fT0Y/9z2uH3CZcKcZhQKfz5/0ao139vvp4AT7vnM0BkasUAcqEmAFAo2RNKphIAIFJoBlAjJV4HdCrdrG+RInBBXRazvgcqZX19Hv7N6/vY4eJ6JmZrj1BrOEI2pFVo+rkGSIGCtahUaFGqJDYHOY0gX3Y5jogMQBSqIAe5UYsGoD6jHATiZC2iAPZXB0s26zUGgEQ1UK5uPUewvlKwJNKIdrBevL+axQhy1hZJVh524EFjEutx7hQyKINM2dZNwTlQGrsTtHAgsRNVC+iJEqARN887DrBZSPTMZqEIThD2eZZCBQOc04LzIOKZJ5USoJICuniAgMQpQGzDkDa2+Cig47CqSQ7AVEHLm5y25alvUKansEYP6FcSZ8MaAy5p9bFnf4QAfisgdg9oKHMa9oUTARS1AkrwcU3IpEbJmdQpgz6jgGzbxnQmBjRnUoXTRw0I0QOu5KEuSg7NBo1JLB6ABq4C+gJQMb99WCtOnPiZPkUJhVWptswDkj3vbD5PNXaCnRM83FoD+EQoXXFVu+46xQGFiX3Dv15y8umq/iSC2c85SRQB/3ihQDkTgzh18Rq3V6goexn7zZNUGY4kaxj7zXIjDSMvqwGlp+3gWekChkoLJDbXqpMFKZq2kHxz3V4GzLN/BszT+7KGa2PmvGss1Jn0npDtEMICSCPiunFMUMTlWSrMMZoVzmUdLUOknl1+BORZVW22Na2aDPkQF821YR9i8uRWMqIm0L0U4AjFRhg0OyseAUN00fY6HliRqs2BCt8CepLKbMvrymOHNX8ticrcP1avn053CwxQbF4gKk0yqOWJZNYkpUnHLHIm6ZsC+pH+XdkDMiK2RnV5AvKhjNI9A6Bi1lr3J+iZgEcKqNEDOgY43Z3mS+PqrdhdyVSeXQE4pzu8Rk+XyOIBqJqnjug+xzCc0ApItl8kLNQ//cHnAwB9eP++9LB7ejp9njr/33+P0lenb1n59i8=);lineShape=1;" vertex="1" parent="1">
                    <mxGeometry x="972.5542834396897" y="221.99403265800163" width="5.356487610722946" height="3.586573317619438" as="geometry"/>
                </mxCell>
                <mxCell id="85" value="" style="shape=stencil(lZ3ZsiQ3ckS/pl/TEjvwPJL+g2ZsDmkzYtOaHC1/L0C0rLrljjrJ+9YLvHIDAhEeHoEv6W+///zDb1+/xPP3P75/+8fX//7lxz9+/pL+7UuMv/z689fvv/wx//Ql/fuX9Lefvn3/+vfv3/71649//v23H9bI9af//PZf6xf+509cSEdKCxXP//3zX85j1P//h//4c/w/f/n14/h49PwyPhxnw/E5yvgScPyZZPyIMH7+3Ov4ecETxs/HGzJ+0P2fR379/XTU9H78OHp9GZ6v538zPL2+nXJEePv9aOVleD0iPGy//vca3o6zvB/ejhZlOL2adqTXX+/HyO+HV30z42Z4lnk2vxzcfL2m4WN8wPHlaOF1fMSJX47UX8cnnJjF7ifj/eSjvc7LMJ8Ifj8fRdZVw4WYjyi/348waPz5+nXDODIs3LksZF2dR4OFMu3O61SeC5GmflK7MP9lwO9H/b7zi1S4/3ik1+/1nN9vxp9y/+M4YT4HXbrpPGqn8WLXUrxsxZvx6XW9JJ6f4QhyP3OGw3w4L1vwGF/x+55Hl/vvxwnf91Tjk8a14t6Mr6/j83ntTG/Gy3rJc6PA55V9K88VBO/zPJIY/nIMvH/Zd3M7OszPU3eKPLca/v3X+VDiEfj3X9dvybiRzvf5ah9KPQq+zyr3048K9mp+zdffr/MXwH4GtVc1sqNxxNf3XzPaH1uPteD3Cjr/azsCPG+8/vcxvuP8n0/3+j7rwPcZr93nsbk/PKE39jaL7xDRPjyszWN8wveTdf60gvatHOH1fbZ67Zhvxsv8adMbQv9B72ccDd5/0+/VA/pij9X9GD/tD9xPV/+nzy8C9zMu6/oYn69feDO+yvhyeQjvHOHwaiB65Q1vWvSsgEaAuYXJK2qXUX0HGKcCyKcMD5PwAHQ2Ekl3yT7fM+3ayT7zuAzfHmB+3DhxHoWib2k8tto9oB7h9S2NgDHJBAwDoCvRdC6NeO1ue0C/pv4HQKOHHtfe+wAkDGUmYHQFkHl5eqsfAIX8v6CB4QKQwY7XzPkAQI80qku9APQMSff8CaDXupx8e4YOK25FKfKl8xHoloquuAnI5LZXe4Z8dLpCU0dqPFbIHtAvv+8DgDzH+HC0HoCKpjsF9aVGu170HhB185yAAreUsu7+E0DR5XTWxZCNjm8ptcvb+gCoMJemuy4O2ATQBpptQ5kAiujy3GCDASiEjWb55k2ST/KgAD4C6JaS7nF3gHxt4n8VUMzy3QCqfYdbQP/cFdrFgP1VQDdTeQMYR/jcW/IlyoAyw5f2KUCw2XoL0A2FJ9+Mz6KtOJreE9AcQBRWsrnElF15bB8fAWCMZ8yoH24C6KHzFbR8BICZKWV3BQY0txp0S3VnZugK9SJyPgA6fbgZO2QDgKmcgFINQF+6b4xxJzZ0LlG/AgOGPwMBhvl8/Awz3t88A7ylRRD4bIUvXY0DWACKEcP1ex8BEHTXeHl4f3FNV3fhHvvqHjBXnH04fIaigeJ6rXSFYq50R7+11s3UICqptmvf/wAI9KW7kpHL/YG51E5layeAYtFm9OjyyOChWzS71C6Gew9ISmhMQCTCIW+egRirCej2lui1tmILqGG026aplC9dkfR8cjYfAMTitGbGuCJt29xUPlzfd4Aur5WJvdaViZ0RCubJuvka0wtkgHpknOto4wrCPka79NDDzP10JuiWhtJpExAoU3lq7nGxDgzQXfTEW+pBGbgJoC89AeJrLG4GXmuPRnkNvkI0Uq1jAN6TfrgJiGCXJkDmUm8YZU2AWO/ekJvpWYPXXi878g7QugKItuvFqNPCz1B0Ta+foLdUNMnfM5Kn844lQunMXq930hWAU8Oz5fHKKLwDiO895y95lXPmiFe5GGl66H7xVQ/AybO122s9cX+Yy0WSaMvw0EOP6xE/sPYN5tJc8pKWnwD6DossfZ1La8eIAAh2BV4PEyAbygSQqVxkqaVCyFQOC/zmVk+mcu4GKgSZzgTMpScz+QAkzP7PHe0UQMT09toCBcAk8zAz0wIKGEbR9TC9QMyIFOVm6kBG98kbPgCdH7qqzzddX/K9l7MjWc2KbOgEyB433fdG68Gc9RlRkHc/zCNbMQvN1qYZjhkV4RJt6iTOuIvI/tE1pJnBJsWii/t8/Q4znC30DObCFU5NLe5TABXlA09i5QEomC9+0k8PQGYzM3TylYQJvGFJlxIwYl+A1wVUTvTuh8nf8uDZOlSlkzuqUMZQM5PbxQe9Bbza1lxxU1yA19maC2ZpJkBSIjnfAfQKnGka5t0vrcvNW3o1M4tr5y8tSch8ovpsTT6RDzGZ8yRLH4CG+pJhQVOq/NBdo91U0Pd2q5EySmqWXRJNVsTweJgCMwUkaBfH8LriEqugnomoCxDHdc23G8rrFSLrdiZA3lJsl/F8t4uKMmVpMXifLiI1LDw1isZxzzzmW19DAAn5pZF1AUVONw8Ly5ZgkR46qdV4KobeAYQ+XRImektRFTBLU0XPEDRbtkRzZL2DacFZw7ac9a6ASGvaVHWBN/Y+1KsMzCROQGwKIF1UN0/gqa94B4imBKYIZUaKYvmW5IMidkuZh4ISkiXcaQqgJdqrmvsJwFi0aEJ7Aii91o3cDBl9vgnQW8roCSy9lQFo250Bvc6lzJSXaf5CxihrMVinAWguBeWM765w2nfgAobFAFQDMPW4eQamHoM/A1HA3aT9mbn7fjk7HwHw0IsztrdE62EChF9aAGaltQwm4y7a6vV7HwGUHXiUF/zVZyi7ZyDFY1aa4mY9tKSxaGANY4tKSN3M1ifH8BcXUDuVhQsZzX0dVieSUce7kl9+BU6vJQNEAmR14QL7rTOg9zWNSchgViPdpWrPoQBisGZ8ruUx6eLa9wDTL00ArbhSVa8RWABYLC8aWKFbTLkZElq+JY6wh6YFNAH64W4AyTyyG0BUAeA9QOugbgBWyHIHsLT/DWCJhT51Sy5HugN0cx0SmplslNeqy2SALyCSDeeqRMgEEAWci1m+iGqKnM0YR3Swcrb1wCU52VjpCYhU82Z6vgkguWqOSkgtjTmJGING7BNA2YEJCEEBRHllK1xaAFJuDhWpTEClyo1hG0pAGjt121ACcgKr9OtzAOOM756hmjG+eUtVObIQuF7RaIq7t1SUSXzWKu8BeXMFyuKnbDWyXIydkgptVpEGFV1aFdCzHnoPiBaLnug6pGj6JdxEU1DTyqLhdFp2Gl3KOV7cYi6Cnrcr3BLrhKKRiFyTPf9bM0A4iVbdtCSAsOwyWm69oF8Vs9XxcZls0mAso2cYo9bNcQjgdbgZl8CqkxXWF+3EqlsUHhoXwCo80X4BtOMEy5lETJmErtsyywhWlbfUNWM4smp5dDyWRTb1jVgXFJxPxvkZqiahAvenKEbdov1Z5VRFx9P7z7q7Ri7XyrrPRIzugrnw7BOtMCjLeLLoq6JNEjH8vazOlIUxy1+SDB3Pt6B10wWz+nM7kfVSkZRb46OMJ83XKnNU+0nJuTU+fO5+Tv19/L6n5pDqlQJ9O16flxjzNV4kCTz/TUlbeD1apF+Qpl3vU/cX0oZ5WSrrHdZ80Psn4mGOl/2CqfLgdffonwTrG8D79Rqv8wftz+b3E1ftJp0PFOqu9yliDaQd13idz3frS3//bv3q/VPZWjg1NOFki8//ioT6bn3FG/ug65ekjjv7gPud2Z+C/th6n1HH8+9/brzVVTG/usLr199n0i14XxfUsCxWJMp4tIdJ+0IEnp/JWBKM8Z6E9nM87o+eF+P7L8Z4YJVaKBpPcVum5b9VHc/+nhIqfP8mRwu83zVLDvF+2t3/pCxJsBZdTO9M/z+p/0ZJdy9sjzh/Vvyi/iTGd+aPRVSgRKuxZeJyLb8h47FtSdLUM+cuonHmnMqLxfoIcXxadb1zYnvF72pvaT4sfkD3O4q/4tD1VZn3OvV7cVua5Hpp3K9TsAKF64Lv+B+5/86/76XyKEFPSVUtg2v3s9r/gf7hqsQ3Sg1vqKiw7emiveURhwIoFbyYyqYA0hZtuNATVcYbtpVlZxs+98RteMMYn8irbzjpExfyhvW+BWju+MSCjMXc29TADEpQ3zXwZrmyD04AU7oiKtsRAuaOs2fYA8YPK0fjrDclpvLmlkiRmItJIwL3jSiW2Y3oU69cWVQAkTa5qVF9tj19B+gGoG1qZRS7AshObnKWXJCxyYoyYJN3vQF4ZvcG4LnjW4Bmp28Anv++AXiG/RagOfwbgKsEIqa+NjqEG4ArHThRW6y/U2CSsfTN9CbrXc0rCZHr5HeKE/IzlqbFUvKfVM2kW12OyzsI0CxRy4qTjbYoscbL1UssgtnooxKLwnx/SJiP2Gi8EovzXEXGEf9Gp5ZYReZKOFZrbLR2CUnujZovYdS50QsmpEU2isSbZ3DNY2LpnKsqORO20W2mzypDWR+10Z7yAtqoWxNLq10/ywtoo9BN6Kx36xsRuCvcBHT7DtQYdemYP6W161mrRW/UfBPgEkYikbpVcASuXetVO7XcqCpXfbZJSfG17hS6+NDNDBmXD/VuWorC7Qe67Q+cG+hW7BY4GdU9pGE2YJwmbGtceRzM8nUuJA6qRwiDq1CMgJoArDeyJg3xxBT9SCpRidy6e1VPC0cXsPfssLZZq30wVQNlZa1WmphLlb19+k31tGiLYubvUJQomgAs6LY1vVIFdEvVHrpyVVZVIiR2rni1wpgl7+FiaPHu04le5aYkMKBXObpV+EVeQEaEJHYSV+WxAG6q46wuOFU092PYGRqN18Mw0U3HbXcCJPBLA9O0w6LdzHmGCRBx3uJSuHpaXmtmzzic1vAsZ7YzfombYn8TJ63mjzevSa7QuLJ+mHyrc7cMK8DLA8vjxtAEUWGSbAxTrMW7WmVx71fjxJt6a7kClzQN4x4L19Ntavc5DT7Mdyg3nSa66r4Kt6sc5s7UExsLrZ5ukgkPmJof1plrtdOj19o09zCj/ptqaPkOlRsLefl0ZTnFam8m6ZnGTUiMi6/conxUFczUcdfmRBupnPwMZdOqBddD0U2uRd53s7pkLbIhy6riaRzIrb7WIrvNWDow/PyDzKX4fsDCTR8Iq7duFVOnw6Sui1cggPnSE4A7u4W7rXMPBWujO4N43EY9/TiQrOxmvfuJ1Mkq0JYO/IEribspxFnYPwGSsegR3Zlu/S175HprS5c9g/h3AHmtnRs8zfhYO9VxCymPwHtBM9OLnYRQkaFdv3cqgGbroh28tR3zFN48jxJyq2ZcvnRHtcX8TEKtd26u2pPKWdf8pddqBRarhQFdIVpH2ZO7AwSlTgafvNOtQ9oIfIXTcvgBRe8ToC37OdztpjodCdsvrcNe7OgESlA3i2kGC9cWHWoHG1B83LodmFeYP/U+o+WuMam4P6t5C/HYXbULy79h4lubet50lG0qJx3caKtV3dhXTM7kvRDfgzfFZgqh5Zje9N21h8buxJZUHMxTrN7B1mGZQpoWrRtrR0e3eXPVjs5JMx3t6pkG07tuz4ugxtXNDme4ab5t9M8YyHnVatObzzxcvbS7ArA1tjUhGSwv2vYDpwB803F8cJt172nOTXk2XdM5Yt/0ZR8o2Nh0fh/4pTe95QcfnWDd6z+wL+8QppG6RegJmncI71198xh+kMDNi/KjCgYfGeGHIQw+VtWPW+BzXjcHOtxcwY+MuAVsrvC5Yy94wm4O1hh8xoQf3cGLbnM4CC/r7fEjxIVsDzihSq/tESp44t/ukJYbgH84BOwOmkHA7igbBOwOy7kBuC1DwO7AHwTsjhRCwO7QIgTsjkW6Aaj7PTAMysH8E94X1+FR9tCoe7be1YvmJQXqbmqQc7yO2LIPRzF4ynY2Wkfl4yquNx8LD/Eyxd1gFjgafb/a/cIt+TGVK0tH+vym/fNG5YLtqhHy4G6PsdjZBgVL5FYzSPlwGR0aPxt7ZDzkcdVEWLBI8evm6D/u2xZNKnkTjq7jC+1gPgq0omnJFglLlVeWbFppbj7kUZ3jhDL0YLUSg/vyhGaeKDfBCW7uWb0ZTEs2uE1ncHMfUL4Qsu1xNxVY1oHh2TT/HUBY4NWWn75D1Lm0SCy6paBF+p2byq4qwa4APIfV2jZ0zrt4HWXn882HsvedyZZuZ9UWpkPVTi4ykuR2ul31hHbVSjgW70ehqxIzNzy8nSW0+CwS3WsY2pj4ybottMIVJWpRW8asl4l+WkR1SlTz2AKbeLv/kwt99f3UzoXolgttXJitAUblc5POzbkBlKe07aNGdHbsfPl64vy0uvUlQsfx2jegomU3fqtwn1Or454hHK1fF38MFE6cylVlPgjI7NsMNMjJsURd5sJLe585on2wPh7TpadEoB30kpjMs/mTGm5iViebuPHBqeKExNKBYMKvhM9rLFu6aZSjXm86ubBcGYjIR1XZ6dVrB6FGVOoTrEJZKnxVJzyy0jrp+7yRTCbrA3Ci+5qs5oVPAfW6Bj5oIut6uenynU15W3B/ydayO9/s19qXkAu5vbtdxP26WGM4bnxgxGNgeVFVncDABvxNp3O/GS6lnDeHqHnTD0wb2+kyWMZgmcSMwsJhGlVM564OLdYxgzt+SL74xlBZujhwR7WgrMeJ7O2zJ+hzPAZUUYvVzruOH8nG0/uxFM79+KHj6XmTBoS39y87BesBnuVWz/GknApWcX8bbtp4mv278cQ47e6fHM9nldJzPHY8sxpSriMPthOd3CHKyKObDiq34+cffvvhj5///MtPv/zzn7//8f3bP75+/P+fvn3/+vfv3/7164+Pf/r95x9++zr/9n8=);lineShape=1;" vertex="1" parent="1">
                    <mxGeometry x="919.5002722463687" y="200.21344262444717" width="57.30901337535078" height="22.667145416228745" as="geometry"/>
                </mxCell>
                <mxCell id="86" value="" style="shape=stencil(lVfLctswDPwaXTEkwQd4TtP/yEycWlPXzjhO2/x9oGqkklC1Hd9kCUsC2MXDAz+8HZ9eD0Nwb7fr5fvh1/h8Ow78ZQhhPB8P1/GmTwM/Dvzwcrkevl0v7+fn+ffr02Q5Pf24/JxO+D3jAlNMEyq4j/lNpFj/vPg625/Gc2PvC0ns7D1TLQAg5KUDhEQ57QOCJ84dgBOxA4BMzvchZAhgptzHkArlvA/Q83yfpCyUQJZSpdK7JI4SCLomiq4DVHXSA0Ch1Ke1Rgrohmpj0Ds9Q0A1gLxQuQcQ41KhAKRRhWrPtL4JIK3TeeaGNaq9tBppKKCgoAPFHuCdIwfEJOuBzRUVMCdl4akBRJBXSRuAUAFyFa3IYIkQ5BLbqJVqlCYFlGLFhIpa4obqSBloQzKJAWhUmIdQLCCiCvJU2QKgXCOl7Q0IkBchNEEjLU28bgASYMkVsTwgQKPmhmokV73CtGMVE2r402cThJCgql5dbgoioRt46RJtyaE24JZe2gJQyQm5aAFoQtwNiGkZs+uE0KgAgP0ycRZA0UGJBu8609Ypp2lFRW27RixwZumA6h1iPB+cpVkXgQJ0sVGqDxSA/7oGmEUD9rBNg/G4bZOrxtwjUdtKdnCce085GPuA7LUBW3vUWbzWWLnHfq3xxh/UV+r2/AySr9mLYtKJ4p24NGJYuve/7bUz9+zqAWjpZMsXL4Tsnn/P2vx/e334u6O/jKfTvOK33+1Or6/m/wP8+Ak=);lineShape=1;" vertex="1" parent="1">
                    <mxGeometry x="925.7288990242832" y="243.44027602829317" width="1.2038700347516451" height="2.9648850953510464" as="geometry"/>
                </mxCell>
                <mxCell id="87" value="" style="shape=stencil(lZbdUttADIWfxrdnpNX+XlN4D2YIjYc0YUKg5e3R1mOIlkSd3vnv88pHR8c7yc3L9v55MwV6OR0PT5vf88NpO8mPKYR5v90c55MeTXI7yc3j4bj5eTy87h+W8+f7/mQ/+nV462/4s3CNUEKnAr0vV2JCan+v3C3Abt6fAxmlGCAJWnWAhsoGyIKaXSCJAUoEeyUltGyAqis4QG2IFmiMFh1AVbIltYLE14FCyFYlJgLRdSITJNolGtiRKRGq7ZzqQE4jooBtI2oFO4BUkAVK84EMsrrmBhIHKGMjUkV1VIphXCGqW5zO6W1pFggITklaQK4G0CKzs0KuaMkCGSE53lARrZlU6OB8dG+TXUFbGfyBoGFG6V8zykPjCLFcB87c/OkNWoPh8hI6MBbQofJa3UdysGtbX3FZJh36YUg1GJySeqzYkr6i53KrBeXbjFYnBjQa6wBofHozmhCHoVZZHTN1QP4HkDima09Dx0whrm7+BBKyE0yc1rQ+i43ofHRBtW4tDHHaEMYwzrym7cXn1ar2AxKvKXLteWuLSODg1ZNsYgRfUc0TWz831xQcR4GYkZweBxmBBHEmRz0x/Bm0AY6garpBofHfpgdfO47HebdbNizn98cdil5adjdy+wE=);lineShape=1;" vertex="1" parent="1">
                    <mxGeometry x="925.5015445769518" y="241.50965560998065" width="0.4450659717235995" height="0.4464312852398136" as="geometry"/>
                </mxCell>
                <mxCell id="88" value="" style="shape=stencil(lVfZctswDPwavWJI8AKf0/Q/MhOn1tS1M47T4+8LVVUtgu4qfpNlrHAtwOUQHt72T6+7gd3b5Xz6uvsxPl/2Q/g0MI/H/e48XvRpCI9DeHg5nXdfzqf34/P8+/Vpspyevp2+T1/4OeO8c+TcBGP3a34VyNU/Lz7PgMN4XAFqpVQae3aUBQI4tw4ScYIA1wJipBwBQEhqA0iJgoeA0nrIiUoAgGKLVBLFAgBxKeICkEABVEkqZd8CKgnwIGw9qM8KcihMtfWgZWAQUvZL1RfAiiw3EVEbIa2Luji9CVAmmM5pTB4kwSRtH0TIAXtPnlv7spDrpr0j35Jb/kX4H3tDVVGqgnhcF3+gCPMNhhVMEXWAYtsy0SaCWctUk7VnUB9lqevsAYd8x1IFFJCAj+SlyxjMgU+WpVrSxACQu5pGOPwK+EvJFSkqIIWG1LPOgy543Q2mSgKXsFded3OAchBK3tpX0LduLtVewPe15F08jBLoeFQogkXhugJpFwGNukNNW+ZABxxFM8eBBJFoqfaKpQUtOspmr3gSMGf5xtgEEL92n609I077pXwrQAIJKEVTshl7NPkKiPcAkvaszaEyHGQ9s7laAFp2RSxAWVfQoRy6ydeFjMYsU2q3l+oEdN7omJhVsaFEpsXQNm5D62iK0uawoaYUkFvAhl5TQGhz2FCEWiWzXbDknM7stqqMh6F0wgVnLJaqHooKVWZm2hwlpB47FeLgJFxpfLVHskuFH4d77JVi5Z54ilVFG/nK0p6P1XO6IVh7qPdVGbenGebD3XecDwD04XqlehkPh/lGtv7fXsH01Xx9C4+/AQ==);lineShape=1;" vertex="1" parent="1">
                    <mxGeometry x="971.9611607831221" y="246.89807404720432" width="1.7728742793113157" height="3.731843995393456" as="geometry"/>
                </mxCell>
                <mxCell id="89" value="" style="shape=stencil(lZbdUttADIWfxrdnpNX+XlN4D2YIjYc0YUKg5e3R1mOIlkSd3vnv88pHR8c7yc3L9v55MwV6OR0PT5vf88NpO8mPKYR5v90c55MeTXI7yc3j4bj5eTy87h+W8+f7/mQ/+nV462/4s3CNUEKnAr0vV2JCan+v3C3Abt6fAxmlGCAJWnWAhsoGyIKaXSCJAUoEeyUltGyAqis4QG2IFmiMFh1AVbIltYLE14FCyFYlJgLRdSITJNolGtiRKRGq7ZzqQE4jooBtI2oFO4BUkAVK84EMsrrmBhIHKGMjUkV1VIphXCGqW5zO6W1pFggITklaQK4G0CKzs0KuaMkCGSE53lARrZlU6OB8dG+TXUFbGfyBoGFG6V8zykPjCLFcB87c/OkNWoPh8hI6MBbQofJa3UdysGtbX3FZJh36YUg1GJySeqzYkr6i53KrBeXbjFYnBjQa6wBofHozmhCHoVZZHTN1QP4HkDima09Dx0whrm7+BBKyE0yc1rQ+i43ofHRBtW4tDHHaEMYwzrym7cXn1ar2AxKvKXLteWuLSODg1ZNsYgRfUc0TWz831xQcR4GYkZweBxmBBHEmRz0x/Bm0AY6garpBofHfpgdfO47HebdbNizn98cdil5adjdy+wE=);lineShape=1;" vertex="1" parent="1">
                    <mxGeometry x="973.2127046122114" y="243.75248154851772" width="0.4450659717235995" height="0.4464312852398136" as="geometry"/>
                </mxCell>
            </root>
        </mxGraphModel>
    </diagram>
</mxfile>